<svg width="233" height="66" viewBox="0 0 233 66" fill="none" xmlns="http://www.w3.org/2000/svg">
<path d="M0 0H64.9972V65.932H0V0Z" fill="#EE7125"/>
<path d="M14.4038 52.211L12.735 53.9039L11.6371 52.7903L13.3059 51.0972L8.95812 46.6871C8.25545 45.9742 8.16761 45.8406 7.28928 46.2862C6.98184 46.4643 6.63051 46.4643 6.32309 46.197C5.75218 45.6178 6.36701 44.9496 6.45485 44.8606L11.8567 39.3809C11.9445 39.2918 12.6032 38.7127 13.1742 39.2473C13.4377 39.5146 13.4377 39.871 13.262 40.2275C12.7789 41.1183 12.9107 41.2074 13.6573 41.9203L23.7143 52.1219C24.417 52.8348 24.5049 52.9684 25.383 52.5228C25.7344 52.3447 26.0419 52.3447 26.3493 52.612C26.9201 53.1912 26.3055 53.8594 26.2176 53.9484L20.8157 59.4281C20.7279 59.517 20.0691 60.0963 19.4982 59.5617C19.2347 59.2942 19.2347 58.938 19.4104 58.5815C19.8935 57.6905 19.7617 57.6013 19.0151 56.8887L14.4038 52.211ZM14.3599 65.9319H12.1641C12.1641 65.9319 12.1641 65.9319 12.1641 65.8875C12.6472 64.9965 12.4715 64.9075 11.7688 64.1946L1.71182 53.9931C1.00914 53.2802 0.921312 53.1465 0.0429688 53.5921V51.3647L4.65425 46.6871C4.74209 46.5979 5.40084 46.0187 5.97175 46.5535C6.23527 46.8208 6.23527 47.177 6.05959 47.5334C5.5765 48.4244 5.70826 48.5136 6.45485 49.2263L16.5119 59.4281C17.2145 60.1407 17.3024 60.2744 18.1807 59.829C18.532 59.6506 18.8395 59.6506 19.1469 59.9179C19.7178 60.4972 19.103 61.1654 19.0151 61.2545L14.3599 65.9319Z" fill="white"/>
<path d="M41.987 8.82063L47.0377 3.69754L61.3984 18.265L56.348 23.388C56.2602 23.4771 55.6015 24.0562 55.0304 23.5216C54.7669 23.2543 54.7669 22.8981 54.9426 22.5417C55.4258 21.6506 55.2939 21.5615 54.5474 20.8488L44.4903 10.6471C43.7876 9.93435 43.6998 9.80071 42.8216 10.2462C42.4702 10.4244 42.1627 10.4244 41.8554 10.1571C41.2845 9.57795 41.8992 8.90973 41.987 8.82063ZM50.6389 0H53.669L56.0845 2.45018C56.1723 2.53928 56.5237 2.94022 55.9528 3.51934C55.6015 3.87572 55.338 3.74208 54.9426 3.56388C52.8784 2.49472 50.99 2.53928 49.0139 3.96482L47.9158 2.85112L50.6389 0ZM64.9996 11.2263V14.5229L62.2328 17.3294L61.1349 16.2157C62.4963 14.4338 62.6282 12.1618 61.6182 10.1126C61.4863 9.66705 61.2668 9.26613 61.6182 8.90973C62.2328 8.28604 62.7598 8.90973 62.8039 8.99883L64.9996 11.2263ZM54.2839 9.31067C54.8988 8.28604 54.5036 7.12778 53.9325 6.23682C53.713 5.79133 53.4933 5.39039 53.9325 4.98945C54.5474 4.36577 55.1182 5.16765 55.2501 5.34583L59.3784 9.53341C59.51 9.66705 60.3444 10.2907 59.7297 10.8699C59.3343 11.2708 58.8951 11.0926 58.5 10.8699C57.5778 10.2907 56.4796 9.88979 55.4696 10.5135L54.2839 9.31067Z" fill="white"/>
<path d="M36.4971 63.5251L34.1256 65.9306H32.8521C32.8959 65.8414 32.9399 65.797 32.9837 65.7078C33.1156 65.4405 32.808 65.1732 32.6323 64.9951L26.967 59.2484C26.7913 59.07 26.5278 58.7583 26.2645 58.8919C25.957 59.0256 25.7375 59.2037 25.474 58.9364C25.2104 58.6691 25.4299 58.3574 25.6496 58.1346L28.4163 55.3281L36.4971 63.5251Z" fill="white"/>
<path d="M54.5474 28.821L57.1826 26.148L64.0337 33.0975C64.4288 33.4987 64.4729 33.5876 64.9997 33.3203V34.5678L62.4087 37.1961C62.3647 37.2406 61.9695 37.5525 61.706 37.2406C61.5742 37.1069 61.5742 36.8843 61.662 36.706C61.9255 36.2159 61.8377 36.127 61.4425 35.7261L54.5474 28.821ZM61.7498 26.5934C61.7939 26.6381 62.0134 26.9498 61.706 27.2618C61.3985 27.5736 61.0911 27.3508 60.7838 27.1282C60.1249 26.6381 59.2467 26.0588 58.2805 26.2372L57.6656 25.6134L59.2467 24.0098L61.7498 26.5934ZM52.5273 30.8701L54.1085 29.2664L54.7231 29.8901C54.5474 30.8701 55.1185 31.7166 55.6015 32.4293C55.8212 32.6966 56.0407 33.053 55.7334 33.3648C55.4258 33.6768 55.1185 33.454 55.0745 33.4095L52.5273 30.8701Z" fill="white"/>
<path d="M19.5903 33.1881C19.0194 34.4353 19.5025 35.1037 19.9856 35.5936L29.9108 45.6617C30.3938 46.1518 31.0527 46.6419 32.2823 46.0626L33.3804 47.1764C28.9446 50.9186 23.7625 49.493 19.9417 45.6617C16.1209 41.7859 14.7595 36.5293 18.4485 32.0298L19.5903 33.1881ZM33.1607 45.1716C33.7315 43.9242 33.2485 43.256 32.7655 42.7659L22.8403 32.698C22.3571 32.2079 21.6983 31.718 20.4687 32.297L19.3708 31.1832C23.8063 27.4413 28.9886 28.8669 32.8093 32.698C36.6302 36.5737 37.9916 41.8304 34.3026 46.3299L33.1607 45.1716Z" fill="white"/>
<path d="M54.3257 24.1905C54.0622 23.9233 53.7108 23.9233 53.3595 24.1016C52.4811 24.5917 52.3932 24.4578 51.6907 23.7004L41.6337 13.5435C40.9309 12.8307 40.7991 12.7416 41.2383 11.8506C41.414 11.5388 41.414 11.1824 41.1504 10.8705C40.5796 10.2914 39.9209 10.9151 39.8331 11.0042L34.7826 16.1273L38.9106 23.8788L38.8668 23.9233L30.9179 20.0031L26.0869 24.9034C25.8675 25.1262 25.2964 25.7053 25.8675 26.329C26.3505 26.8191 26.8775 26.329 27.141 26.1062C27.4924 25.7944 27.7997 25.9726 28.2389 26.0617C28.6341 26.1509 29.0295 26.3735 29.4246 26.5518L45.3227 34.5704L45.8935 33.9914L38.0763 19.4239L46.9914 28.4672C47.6941 29.1801 47.826 29.3138 47.3868 30.1601C47.2111 30.5165 47.2111 30.8283 47.4747 31.1403C48.0455 31.7193 48.7042 31.0956 48.792 31.0066L54.1938 25.5272C54.2817 25.438 54.8527 24.7698 54.3257 24.1905Z" fill="white"/>
<path d="M39.3077 34.4814L36.014 31.1402L31.7979 29.002L31.7539 29.0464L38.2098 35.5952C40.3177 38.3572 38.3414 38.8026 39.176 39.6491C39.7909 40.2726 40.4934 39.4263 40.7131 39.2035L42.9089 37.0206C43.1286 36.798 43.9629 36.0406 43.3481 35.4616C42.4697 34.5706 42.0305 36.5752 39.3077 34.4814Z" fill="white"/>
<path d="M28.8984 54.8385C30.699 52.9675 33.5097 52.7003 36.4522 55.3731C39.0872 57.8233 38.7798 61.209 36.9792 62.991L36.3644 62.3673C36.9352 61.6099 36.3644 60.9417 35.9252 60.5408L31.3577 55.8631C30.9626 55.4622 30.3039 54.8832 29.5571 55.4178L28.8984 54.8385Z" fill="white"/>
<path d="M32.9392 50.7871L35.7939 47.8915L43.8745 56.0884L41.02 58.984C40.9762 59.0285 40.5808 59.3405 40.2735 59.0285C40.1416 58.8949 40.1416 58.6721 40.2295 58.494C40.493 58.0039 40.4052 57.9149 40.01 57.5138L34.3447 51.767C33.9493 51.3661 33.9055 51.2772 33.3784 51.5445C33.2028 51.6334 33.0271 51.6334 32.8514 51.4998C32.5441 51.188 32.8954 50.7871 32.9392 50.7871ZM36.2331 47.4014L38.6486 44.9512L40.8444 47.1786C40.8884 47.2231 41.0638 47.4459 40.7565 47.8023C40.5808 47.9804 40.4052 47.9359 40.1857 47.8023C39.0438 47.1786 37.9459 47.2231 36.848 48.0251L36.2331 47.4014ZM43.699 54.9301C44.4456 53.95 44.5334 52.658 43.9623 51.4998C43.8745 51.2772 43.7428 51.0099 43.9623 50.8316C44.3137 50.4751 44.5772 50.8316 44.665 50.876L46.817 53.059L44.3137 55.5983L43.699 54.9301ZM39.8343 51.0544C40.1857 50.4751 39.966 49.8516 39.6586 49.3168C39.5268 49.0942 39.4389 48.827 39.6586 48.6041C40.01 48.2477 40.3173 48.7378 40.4052 48.827L42.7328 51.188C42.8206 51.2772 43.2598 51.6334 42.9085 51.9454C42.689 52.168 42.4255 52.079 42.2058 51.9454C41.7228 51.6334 41.0638 51.4108 40.493 51.767L39.8343 51.0544Z" fill="white"/>
<path d="M42.8189 40.7156C43.829 39.691 44.5757 39.1564 45.3661 38.9336C46.6396 38.5771 47.6499 39.0228 48.5721 39.9138C49.4943 40.8492 49.8897 41.8739 49.5383 43.1658C49.3186 43.9677 48.8356 44.6806 47.7815 45.7497L47.1667 45.1259C47.6937 44.3686 47.2985 43.8785 46.7275 43.3439L45.1025 41.6956C44.6195 41.2055 44.0925 40.8492 43.4338 41.3393L42.8189 40.7156ZM40.8865 45.1259C40.4913 44.725 40.4473 44.6359 39.9204 44.9031C39.7448 44.9923 39.5691 44.9923 39.3934 44.8587C39.0859 44.5469 39.3934 44.1458 39.4813 44.1458L42.3357 41.2502L49.187 48.1999C49.5821 48.6008 49.6262 48.6898 50.153 48.4225C50.3287 48.3335 50.5043 48.3335 50.68 48.4672C50.9876 48.7789 50.68 49.1798 50.6362 49.1798L47.518 52.2538C47.4742 52.2983 47.1667 52.5655 46.8593 52.2538C46.7275 52.1201 46.6837 51.9418 46.7715 51.7637C47.035 51.2736 46.9031 51.2736 46.508 50.8727L40.8865 45.1259Z" fill="white"/>
<path d="M49.6721 34.748C49.3645 35.4607 49.628 35.8171 49.8915 36.0844L55.469 41.742C55.7325 42.0095 56.0839 42.3212 56.7866 41.9648L57.4015 42.5885C54.8982 44.6823 51.9997 43.9249 49.8477 41.742C47.6958 39.5593 46.949 36.619 49.0132 34.0798L49.6721 34.748ZM57.2696 41.4747C57.577 40.762 57.3137 40.4056 57.0501 40.1383L51.4727 34.4807C51.2091 34.2135 50.8578 33.9015 50.1551 34.2579L49.5402 33.6342C52.0435 31.5404 54.942 32.2978 57.094 34.4807C59.2459 36.6635 60.0365 39.6038 57.9283 42.1431L57.2696 41.4747Z" fill="white"/>
<path d="M7.77516 24.9487L10.2784 22.4093L16.7342 28.9581C17.0856 29.3143 17.1734 29.4035 17.6126 29.1807C17.7883 29.0917 17.9639 29.0917 18.0957 29.2254C18.4031 29.5371 18.0957 29.8936 18.0517 29.9381L15.1532 32.8784C15.1093 32.9228 14.758 33.2346 14.4505 32.9228C14.3188 32.7892 14.3188 32.6111 14.4066 32.4328C14.6262 31.9429 14.5823 31.8982 14.1871 31.5417L7.77516 24.9487ZM14.5823 22.8994C14.6262 22.9439 14.8458 23.2111 14.5384 23.5231C14.2749 23.7904 13.9235 23.6123 13.704 23.3895C13.0891 22.9439 12.2547 22.4093 11.3764 22.5429L10.7615 21.9193L12.2108 20.4492L14.5823 22.8994ZM5.88672 26.9088L7.33598 25.4388L7.95082 26.0623C7.81906 26.998 8.30215 27.7998 8.78525 28.4233C8.96091 28.6908 9.1805 29.0026 8.91698 29.2699C8.60957 29.5816 8.30215 29.359 8.30215 29.3143L5.88672 26.9088Z" fill="white"/>
<path d="M22.0012 23.6548C22.3526 24.0113 22.4405 24.1004 22.8795 23.8776C23.0551 23.7885 23.2308 23.7885 23.3627 23.9221C23.67 24.2341 23.3627 24.5903 23.3187 24.635L20.4202 27.5306C20.3763 27.5751 20.025 27.887 19.7175 27.5751C19.5858 27.4414 19.5858 27.2188 19.6736 27.0852C19.8932 26.5951 19.8493 26.5504 19.454 26.1942L14.184 20.7592C13.8326 20.4028 13.7448 20.3137 13.3057 20.5364C13.13 20.6255 12.9543 20.6255 12.8226 20.4919C12.5151 20.1801 12.8226 19.8237 12.8665 19.7791L15.765 16.8389C15.8089 16.7944 16.1603 16.4825 16.4677 16.7944C16.5994 16.928 16.5994 17.1507 16.5116 17.2844C16.292 17.7744 16.3359 17.819 16.7312 18.1754L22.0012 23.6548ZM20.9472 19.8237L20.0689 20.7146L19.454 20.091L20.3324 19.2L18.0487 16.8835C17.6973 16.5271 17.6095 16.438 17.1704 16.6607C16.9947 16.7498 16.819 16.7498 16.6873 16.6162C16.3798 16.3043 16.6873 15.9479 16.7312 15.9034L19.6297 13.0077C19.6736 12.9632 20.025 12.6513 20.3324 12.9632C20.4641 13.0968 20.4641 13.275 20.3763 13.4532C20.1567 13.9432 20.2006 13.9878 20.5959 14.3442L25.9098 19.7346C26.2612 20.091 26.349 20.1801 26.7882 19.9573C26.9639 19.8682 27.1396 19.8682 27.2712 20.0019C27.5788 20.3137 27.2712 20.6701 27.2274 20.7146L24.3289 23.6548C24.2849 23.6995 23.9335 24.0113 23.6262 23.6995C23.4943 23.5659 23.4943 23.3875 23.5822 23.2094C23.8019 22.7193 23.7579 22.6749 23.3627 22.3184L20.9472 19.8237Z" fill="white"/>
<path d="M20.554 12.0264L23.2329 9.30891L30.8305 17.0158L28.1517 19.7333C28.1077 19.7778 27.7563 20.0897 27.449 19.7778C27.3171 19.6442 27.3171 19.466 27.4049 19.2878C27.6246 18.7978 27.5806 18.7532 27.1854 18.3968L21.8715 13.0064C21.5201 12.65 21.4323 12.5609 20.9931 12.7837C20.8175 12.8728 20.6418 12.8728 20.5101 12.7391C20.2026 12.4273 20.5101 12.0709 20.554 12.0264ZM23.6721 8.86341L25.9557 6.54688L28.0198 8.64066C28.0638 8.68523 28.2395 8.90797 27.932 9.21981C27.7563 9.39799 27.6246 9.35345 27.4049 9.21981C26.307 8.64067 25.297 8.68523 24.287 9.44255L23.6721 8.86341ZM30.655 15.9467C31.3575 15.0111 31.4453 13.8083 30.9183 12.6946C30.8305 12.4719 30.7428 12.2491 30.9183 12.0709C31.2258 11.7591 31.5332 12.0709 31.5332 12.1155L33.5535 14.1647L31.2258 16.5258L30.655 15.9467ZM27.0538 12.2937C27.3611 11.7591 27.1854 11.1354 26.8781 10.6899C26.7462 10.4672 26.6584 10.2444 26.8781 10.0217C27.1854 9.70983 27.4928 10.1108 27.5806 10.1999L29.7766 12.4273C29.8644 12.5164 30.2596 12.8282 29.9523 13.1401C29.7326 13.3628 29.5131 13.2737 29.2934 13.1401C28.8104 12.8282 28.2395 12.65 27.7125 12.9619L27.0538 12.2937Z" fill="white"/>
<path d="M60.6953 63.2601C60.6953 62.191 61.4859 61.4336 62.4521 61.4336C63.4181 61.4336 64.2087 62.2354 64.2087 63.2601C64.2087 64.3292 63.3743 65.131 62.4521 65.131C61.5297 65.0866 60.6953 64.3292 60.6953 63.2601ZM62.4521 64.8193C63.2424 64.8193 63.8573 64.1511 63.8573 63.2601C63.8573 62.3691 63.2424 61.7009 62.4521 61.7009C61.6615 61.7009 61.0467 62.3691 61.0467 63.2601C61.0467 64.1511 61.6615 64.8193 62.4521 64.8193ZM62.1007 64.3292H61.7932V62.191H62.5399C63.023 62.191 63.2424 62.3691 63.2424 62.8147C63.2424 63.1709 63.023 63.3492 62.7154 63.3937L63.2865 64.3292H62.9351L62.4081 63.3937H62.0567L62.1007 64.3292ZM62.4521 63.1264C62.7154 63.1264 62.9351 63.1264 62.9351 62.77C62.9351 62.5027 62.7154 62.4582 62.4959 62.4582H62.1007V63.1264H62.4521Z" fill="white"/>
<path d="M174.478 11.6055H164.75V53.9576H194.663V45.7021H174.478V11.6055Z" fill="#6D6E71"/>
<path d="M216.075 37.8139H224.003V45.2307C222.542 45.7811 219.7 46.3577 216.988 46.3577C208.225 46.3577 205.304 41.8761 205.304 32.8081C205.304 24.1333 208.094 19.0489 216.857 19.0489C221.734 19.0489 224.498 20.5952 226.793 23.5305L232.844 17.9482C229.167 12.628 222.699 11.0293 216.648 11.0293C203.009 11.0293 195.863 18.4986 195.863 32.7557C195.863 46.9343 202.331 54.6394 216.596 54.6394C223.142 54.6394 229.532 52.9621 233 50.5247V29.9777H216.101V37.8139H216.075Z" fill="#6D6E71"/>
<path d="M117.573 0.205078C99.6044 0.205078 85 14.8553 85 32.9651C85 51.0486 99.6044 65.7251 117.573 65.7251C135.516 65.7251 150.042 51.2058 150.198 33.2272V32.703C150.042 14.7243 135.49 0.205078 117.573 0.205078Z" fill="url(#paint0_radial_305_2195)"/>
<path d="M95.509 10.7675C84.6078 21.7225 83.5125 38.3907 93.0836 48.0091C102.655 57.6274 119.241 56.5267 130.116 45.5717C141.017 34.5906 142.139 17.9223 132.568 8.30395C128.212 3.92722 122.371 1.75195 116.268 1.75195C109.044 1.77816 101.429 4.81829 95.509 10.7675Z" fill="url(#paint1_linear_305_2195)"/>
<path d="M115.878 47.6417L116.687 47.1699V19.4943L116.478 19.1798L116.687 19.1274V19.075H116.817L119.243 18.2363L119.686 18.9963C119.686 18.9963 119.764 19.0488 119.738 19.206L119.712 44.4181H125.632L126.102 45.1519C126.154 45.2043 126.18 45.2568 126.18 45.4664V48.0086C126.18 48.1396 126.102 48.2183 125.997 48.2183H116.922C116.713 48.2183 116.504 48.1134 116.478 48.0872L115.878 47.6417ZM145.296 31.4451H125.137V34.6949L125.632 35.3763C125.632 35.3763 125.684 35.455 125.815 35.455H141.175H142.662H142.688C141.827 48.2707 131.057 58.3083 118.2 58.3083C111.654 58.3083 105.499 55.74 100.857 51.1273C96.2408 46.4885 93.685 40.3559 93.685 33.8039C93.685 27.2519 96.0843 20.9619 100.726 16.3493C105.395 11.7367 111.236 9.29939 118.252 9.14214L119.582 9.11593H119.738C119.843 9.11593 119.921 9.11593 119.921 8.90626V6.25926C119.921 6.0758 119.843 5.97097 119.843 5.97097L119.243 5.21094L117.913 5.39439L117.235 5.63026C101.926 5.63026 90.4512 18.4984 90.4512 33.8039C90.4512 41.2207 93.346 48.1921 98.5879 53.4337C103.83 58.6753 110.767 61.3223 118.2 61.3223C125.658 61.3223 132.647 58.4918 137.889 53.2502C143.131 48.0086 146.026 41.0373 146.026 33.6204V32.0217L145.296 31.4451ZM107.585 18.6294C105.16 18.6294 103.204 20.595 103.204 23.0062C103.204 25.4173 105.16 27.3829 107.585 27.3829C110.011 27.3829 111.967 25.4173 111.967 23.0062C111.967 20.5688 110.011 18.6294 107.585 18.6294Z" fill="url(#paint2_linear_305_2195)"/>
<path d="M116.557 46.9863L115.879 47.6415H125.659L125.033 46.9863H116.557Z" fill="#616D76"/>
<path d="M125.032 45.0216L125.657 44.3926H119.268L118.512 45.0216H125.032Z" fill="#879AA4"/>
<path d="M119.269 18.2363H115.879L116.531 18.8391H118.539L119.269 18.2363Z" fill="#8E9BA1"/>
<path d="M118.565 44.9685L119.269 44.3919V18.2363L118.539 18.8391L118.565 44.9685Z" fill="url(#paint3_linear_305_2195)"/>
<path d="M125.031 45.0216V46.9872L125.657 47.6424V44.3926L125.031 45.0216Z" fill="url(#paint4_linear_305_2195)"/>
<path d="M115.879 18.2363V47.6417L116.557 46.9865L116.531 18.8391L115.879 18.2363Z" fill="#B5BEC4"/>
<path d="M102.916 22.4828C102.916 24.8416 104.82 26.7547 107.167 26.7547C109.514 26.7547 111.418 24.8416 111.418 22.4828C111.418 20.1241 109.514 18.2109 107.167 18.2109C104.82 18.2109 102.916 20.1503 102.916 22.4828ZM110.792 22.4828C110.792 24.4746 109.175 26.0995 107.167 26.0995C105.159 26.0995 103.542 24.4746 103.542 22.4828C103.542 20.4648 105.159 18.8399 107.167 18.8399C109.149 18.8661 110.792 20.491 110.792 22.4828Z" fill="url(#paint5_linear_305_2195)"/>
<path d="M142.53 33.9617L125.657 33.9355L125.031 34.5907H141.905L142.244 34.25L142.53 33.9617Z" fill="#505C61"/>
<path d="M125.657 32.0213L144.539 31.995L145.191 31.3398H125.031L125.657 32.0213Z" fill="#8F9DA5"/>
<path d="M145.192 32.9398V31.3411L144.54 31.9963V32.9398C144.54 40.1732 141.749 46.9873 136.638 52.1241C131.552 57.2608 124.772 60.0651 117.522 60.0651C110.324 60.0651 103.543 57.2346 98.4576 52.1241C93.3722 46.9873 90.5556 40.1732 90.5556 32.9398C90.5556 17.975 102.656 5.81454 117.522 5.81454H118.565L119.191 5.21176L117.522 5.18555C102.317 5.18555 89.9297 17.6343 89.9297 32.966C89.9297 40.3829 92.7984 47.3542 98.0143 52.5958C103.23 57.8374 110.141 60.7203 117.522 60.7203C124.928 60.7203 131.865 57.8374 137.081 52.5958C142.323 47.328 145.192 40.3567 145.192 32.9398Z" fill="url(#paint6_linear_305_2195)"/>
<path d="M118.564 7.8309L117.859 7.80469H117.181C110.662 7.90952 104.507 10.5041 99.8647 15.1691C95.1443 19.9128 92.5625 26.2289 92.5625 32.9644C92.5625 39.6736 95.1704 45.9897 99.8647 50.7334C104.533 55.3984 110.688 58.0192 117.234 58.0978H117.885C130.847 57.9406 141.644 47.6933 142.53 34.6417L142.556 33.9603L142.244 34.2486L141.905 34.5893C141.044 47.405 130.351 57.4426 117.573 57.4426C111.053 57.4426 104.95 54.8743 100.334 50.2616C95.7442 45.6228 93.2145 39.4902 93.2145 32.9382C93.2145 26.3862 95.7442 20.2273 100.334 15.6147C104.95 11.0021 111.079 8.45989 117.573 8.45989L119.216 8.4861L118.564 7.8309Z" fill="url(#paint7_linear_305_2195)"/>
<path d="M125.657 32.0213L125.031 31.3398V34.5896L125.657 33.9344V32.0213Z" fill="#B5BEC4"/>
<path d="M118.59 7.83256L119.216 8.46155V5.18555L118.59 5.81454V7.83256Z" fill="url(#paint8_linear_305_2195)"/>
<path d="M116.242 18.5778V47.2756H125.317V44.7072H118.85V18.5516H116.242V18.5778ZM117.207 5.52621C102.342 5.70967 90.293 17.9488 90.293 32.9398C90.293 40.278 93.1356 47.1445 98.2732 52.3337C103.411 57.5229 110.27 60.3533 117.546 60.3533C124.848 60.3533 131.707 57.4967 136.844 52.3337C142.008 47.1445 144.825 40.278 144.825 32.9398V31.6818H143.756H125.37V34.224H142.243C142.243 34.2764 142.243 34.5385 142.243 34.5909C141.356 47.5114 130.638 57.785 117.572 57.785C110.974 57.785 104.767 55.1904 100.073 50.4991C95.4045 45.8079 92.8487 39.5704 92.8487 32.9398C92.8487 26.2829 95.4306 20.0454 100.073 15.3542C104.767 10.663 110.974 8.09459 117.572 8.09459C117.859 8.09459 118.563 8.09459 118.876 8.09459V5.52621C118.615 5.52621 118.198 5.52621 117.859 5.5H117.207V5.52621Z" fill="url(#paint9_radial_305_2195)"/>
<path d="M103.23 22.482C103.23 24.6572 105.004 26.387 107.142 26.387C109.281 26.387 111.054 24.631 111.054 22.482C111.054 20.3067 109.281 18.5508 107.142 18.5508C105.004 18.5508 103.23 20.3067 103.23 22.482Z" fill="url(#paint10_radial_305_2195)"/>
<path d="M107.845 19.2584C108.731 19.2584 109.566 19.5729 110.218 20.0971C109.514 19.1536 108.392 18.5508 107.14 18.5508C104.976 18.5508 103.229 20.3067 103.229 22.482C103.229 23.74 103.828 24.8407 104.741 25.5483C104.246 24.8931 103.933 24.0807 103.933 23.1896C103.933 21.0143 105.706 19.2584 107.845 19.2584Z" fill="white"/>
<path d="M118.85 5.52621C118.511 5.52621 117.859 5.5 117.52 5.5C102.499 5.5 90.2676 17.8178 90.2676 32.9136C90.2676 40.2518 93.1102 47.1183 98.2478 52.3075C98.4043 52.4647 98.5869 52.622 98.7433 52.7792C93.8926 47.6425 91.2064 40.9856 91.2064 33.8571C91.2325 18.8137 101.873 6.28624 118.85 5.52621Z" fill="white"/>
<path d="M118.852 44.7344C118.852 44.7344 120.729 45.2847 125.319 45.2847V44.7344H118.852Z" fill="white"/>
<path d="M118.85 19.3906V18.5781H116.242V47.2759C116.242 47.2759 117.051 42.8991 117.051 19.3644H118.85V19.3906Z" fill="white"/>
<path d="M144.825 31.6816H125.344V34.2238H126.048V32.3893C143.026 32.4155 144.825 31.6816 144.825 31.6816Z" fill="white"/>
<path d="M142.244 34.2508C142.244 34.3032 142.244 34.5915 142.218 34.6177C141.357 47.5383 130.639 57.7856 117.547 57.7856C110.949 57.7856 104.742 55.191 100.048 50.4998C96.9962 47.4334 94.8577 43.7119 93.7363 39.6235C96.6572 50.3163 106.411 58.0739 117.964 58.0739C130.378 58.0739 141.827 48.2983 142.557 34.2246H142.244V34.2508Z" fill="white"/>
<defs>
<radialGradient id="paint0_radial_305_2195" cx="0" cy="0" r="1" gradientUnits="userSpaceOnUse" gradientTransform="translate(116.371 31.9512) scale(33.9808 34.1485)">
<stop stop-color="#C00C3F"/>
<stop offset="0.5" stop-color="#C00C3F"/>
<stop offset="0.7363" stop-color="#BF0C3E"/>
<stop offset="0.8358" stop-color="#B90A3B"/>
<stop offset="0.9094" stop-color="#B00737"/>
<stop offset="0.9701" stop-color="#A30330"/>
<stop offset="1" stop-color="#9A002B"/>
</radialGradient>
<linearGradient id="paint1_linear_305_2195" x1="104.229" y1="4.42928" x2="121.576" y2="51.8555" gradientUnits="userSpaceOnUse">
<stop stop-color="#F48996"/>
<stop offset="0.0111818" stop-color="#F28693"/>
<stop offset="0.263" stop-color="#DB5A69"/>
<stop offset="0.4875" stop-color="#CC3750"/>
<stop offset="0.6746" stop-color="#C31B43"/>
<stop offset="0.8011" stop-color="#C00C3F"/>
<stop offset="1" stop-color="#C00C3F"/>
</linearGradient>
<linearGradient id="paint2_linear_305_2195" x1="95.8292" y1="16.1637" x2="135.468" y2="55.6076" gradientUnits="userSpaceOnUse">
<stop stop-color="#CE425C"/>
<stop offset="0.0901959" stop-color="#BD3551"/>
<stop offset="0.2501" stop-color="#A82242"/>
<stop offset="0.431" stop-color="#9B1438"/>
<stop offset="0.6483" stop-color="#930933"/>
<stop offset="1" stop-color="#910531"/>
</linearGradient>
<linearGradient id="paint3_linear_305_2195" x1="118.546" y1="31.6024" x2="119.27" y2="31.6024" gradientUnits="userSpaceOnUse">
<stop stop-color="#B5BEC4"/>
<stop offset="0.1753" stop-color="#99A2A9"/>
<stop offset="0.569" stop-color="#646C74"/>
<stop offset="0.8544" stop-color="#424950"/>
<stop offset="1" stop-color="#333940"/>
</linearGradient>
<linearGradient id="paint4_linear_305_2195" x1="125.03" y1="46.0151" x2="125.667" y2="46.0151" gradientUnits="userSpaceOnUse">
<stop stop-color="#B4BCC2"/>
<stop offset="0.1351" stop-color="#989FA4"/>
<stop offset="0.548" stop-color="#585D61"/>
<stop offset="0.8473" stop-color="#373E41"/>
<stop offset="1" stop-color="#2B3337"/>
</linearGradient>
<linearGradient id="paint5_linear_305_2195" x1="104.149" y1="19.4593" x2="110.189" y2="25.4696" gradientUnits="userSpaceOnUse">
<stop stop-color="#ABBAC3"/>
<stop offset="1" stop-color="#202428"/>
</linearGradient>
<linearGradient id="paint6_linear_305_2195" x1="95.5295" y1="15.7234" x2="135.11" y2="55.1091" gradientUnits="userSpaceOnUse">
<stop stop-color="#B5BEC4"/>
<stop offset="1" stop-color="#3E454D"/>
</linearGradient>
<linearGradient id="paint7_linear_305_2195" x1="142.549" y1="32.9464" x2="92.5547" y2="32.9464" gradientUnits="userSpaceOnUse">
<stop stop-color="#B5BEC4"/>
<stop offset="1" stop-color="#485059"/>
</linearGradient>
<linearGradient id="paint8_linear_305_2195" x1="118.578" y1="6.8242" x2="119.209" y2="6.8242" gradientUnits="userSpaceOnUse">
<stop stop-color="#B4BCC2"/>
<stop offset="0.1351" stop-color="#989FA4"/>
<stop offset="0.548" stop-color="#585D61"/>
<stop offset="0.8473" stop-color="#373E41"/>
<stop offset="1" stop-color="#2B3337"/>
</linearGradient>
<radialGradient id="paint9_radial_305_2195" cx="0" cy="0" r="1" gradientUnits="userSpaceOnUse" gradientTransform="translate(106.555 21.3324) scale(41.7164 41.9223)">
<stop stop-color="white"/>
<stop offset="0.35" stop-color="white"/>
<stop offset="0.5295" stop-color="#F6F8F9"/>
<stop offset="0.7147" stop-color="#E6EBEF"/>
<stop offset="0.902" stop-color="#CFD9DE"/>
<stop offset="1" stop-color="#C0CCD3"/>
</radialGradient>
<radialGradient id="paint10_radial_305_2195" cx="0" cy="0" r="1" gradientUnits="userSpaceOnUse" gradientTransform="translate(105.53 21.0438) scale(6.0914 6.12146)">
<stop stop-color="white"/>
<stop offset="0.35" stop-color="white"/>
<stop offset="0.5653" stop-color="#F6F8F9"/>
<stop offset="0.7879" stop-color="#E6EBEF"/>
<stop offset="1" stop-color="#D0DADF"/>
</radialGradient>
</defs>
</svg>
