<svg width="66" height="66" viewBox="0 0 66 66" fill="none" xmlns="http://www.w3.org/2000/svg">
<path d="M32.7338 0C14.6765 0 0 14.6503 0 32.76C0 50.8435 14.6765 65.52 32.7338 65.52C50.7649 65.52 65.3627 51.0008 65.52 33.0221V32.4979C65.3627 14.5192 50.7387 0 32.7338 0Z" fill="url(#paint0_radial_304_2054)"/>
<path d="M10.5609 10.5624C-0.394004 21.5174 -1.49474 38.1857 8.12359 47.804C17.7419 57.4223 34.4102 56.3216 45.339 45.3667C56.2939 34.3855 57.4208 17.7172 47.8025 8.09887C43.4258 3.72214 37.5552 1.54688 31.4225 1.54688C24.1629 1.57308 16.5102 4.61321 10.5609 10.5624Z" fill="url(#paint1_linear_304_2054)"/>
<path d="M31.0294 47.4366L31.8418 46.9649V19.2892L31.6321 18.9747L31.8418 18.9223V18.8699H31.9728L34.4102 18.0312L34.8557 18.7913C34.8557 18.7913 34.9344 18.8437 34.9081 19.0009L34.8819 44.213H40.8312L41.3029 44.9468C41.3553 44.9993 41.3815 45.0517 41.3815 45.2613V47.8035C41.3815 47.9346 41.3029 48.0132 41.1981 48.0132H32.0777C31.868 48.0132 31.6584 47.9084 31.6321 47.8821L31.0294 47.4366ZM60.592 31.2401H40.3332V34.4899L40.8312 35.1713C40.8312 35.1713 40.8836 35.2499 41.0146 35.2499H56.4511H57.945H57.9712C57.1063 48.0656 46.2824 58.1033 33.3619 58.1033C26.7837 58.1033 20.5986 55.5349 15.9336 50.9223C11.2947 46.2835 8.72635 40.1508 8.72635 33.5988C8.72635 27.0468 11.1375 20.7569 15.8025 16.1443C20.4937 11.5317 26.3643 9.09431 33.4143 8.93706L34.7509 8.91085H34.9081C35.013 8.91085 35.0916 8.91085 35.0916 8.70118V6.05418C35.0916 5.87072 35.013 5.76589 35.013 5.76589L34.4102 5.00586L33.0736 5.18931L32.3922 5.42518C17.0081 5.42518 5.47656 18.2933 5.47656 33.5988C5.47656 41.0157 8.38565 47.987 13.6535 53.2286C18.9213 58.4702 25.8926 61.1172 33.3619 61.1172C40.8574 61.1172 47.8811 58.2867 53.1489 53.0451C58.4167 47.8035 61.3258 40.8322 61.3258 33.4153V31.8166L60.592 31.2401ZM22.6952 18.4244C20.2579 18.4244 18.2923 20.39 18.2923 22.8011C18.2923 25.2122 20.2579 27.1778 22.6952 27.1778C25.1326 27.1778 27.0982 25.2122 27.0982 22.8011C27.0982 20.3637 25.1326 18.4244 22.6952 18.4244Z" fill="url(#paint2_linear_304_2054)"/>
<path d="M31.7127 46.7812L31.0312 47.4364H40.8592L40.2303 46.7812H31.7127Z" fill="#616D76"/>
<path d="M40.2297 44.8165L40.8587 44.1875H34.4378L33.6777 44.8165H40.2297Z" fill="#879AA4"/>
<path d="M34.4383 18.0312H31.0312L31.6864 18.634H33.7045L34.4383 18.0312Z" fill="#8E9BA1"/>
<path d="M33.7293 44.7634L34.4369 44.1868V18.0312L33.7031 18.634L33.7293 44.7634Z" fill="url(#paint3_linear_304_2054)"/>
<path d="M40.2285 44.8165V46.7821L40.8575 47.4373V44.1875L40.2285 44.8165Z" fill="url(#paint4_linear_304_2054)"/>
<path d="M31.0312 18.0312V47.4366L31.7127 46.7814L31.6864 18.634L31.0312 18.0312Z" fill="#B5BEC4"/>
<path d="M18.0039 22.2778C18.0039 24.6365 19.9171 26.5497 22.2758 26.5497C24.6345 26.5497 26.5477 24.6365 26.5477 22.2778C26.5477 19.919 24.6345 18.0059 22.2758 18.0059C19.9171 18.0059 18.0039 19.9453 18.0039 22.2778ZM25.9187 22.2778C25.9187 24.2696 24.2938 25.8945 22.2758 25.8945C20.2578 25.8945 18.6329 24.2696 18.6329 22.2778C18.6329 20.2597 20.2578 18.6349 22.2758 18.6349C24.2676 18.6611 25.9187 20.286 25.9187 22.2778Z" fill="url(#paint5_linear_304_2054)"/>
<path d="M57.8141 33.7567L40.8575 33.7305L40.2285 34.3857H57.1851L57.5258 34.045L57.8141 33.7567Z" fill="#505C61"/>
<path d="M40.8575 31.8162L59.8321 31.79L60.4873 31.1348H40.2285L40.8575 31.8162Z" fill="#8F9DA5"/>
<path d="M60.4879 32.7347V31.136L59.8327 31.7912V32.7347C59.8327 39.9681 57.0284 46.7822 51.8917 51.919C46.7811 57.0558 39.967 59.86 32.6812 59.86C25.4478 59.86 18.6337 57.0296 13.5231 51.919C8.41258 46.7822 5.58212 39.9681 5.58212 32.7347C5.58212 17.77 17.7426 5.60946 32.6812 5.60946H33.7295L34.3585 5.00668L32.6812 4.98047C17.4019 4.98047 4.95312 17.4293 4.95312 32.7609C4.95312 40.1778 7.836 47.1491 13.0776 52.3907C18.3192 57.6323 25.2643 60.5152 32.6812 60.5152C40.1243 60.5152 47.0956 57.6323 52.3372 52.3907C57.605 47.1229 60.4879 40.1516 60.4879 32.7347Z" fill="url(#paint6_linear_304_2054)"/>
<path d="M33.729 7.62582L33.0214 7.59961H32.34C25.788 7.70444 19.6029 10.299 14.9378 14.9641C10.1942 19.7077 7.59961 26.0238 7.59961 32.7593C7.59961 39.4685 10.2204 45.7847 14.9378 50.5283C19.6291 55.1933 25.8142 57.8141 32.3924 57.8928H33.0476C46.073 57.7355 56.9231 47.4882 57.8141 34.4366L57.8403 33.7552L57.5258 34.0435L57.1851 34.3842C56.3203 47.1999 45.575 57.2376 32.7331 57.2376C26.1811 57.2376 20.0484 54.6692 15.4096 50.0566C10.797 45.4178 8.25481 39.2851 8.25481 32.7331C8.25481 26.1811 10.797 20.0222 15.4096 15.4096C20.0484 10.797 26.2073 8.25481 32.7331 8.25481L34.3842 8.28102L33.729 7.62582Z" fill="url(#paint7_linear_304_2054)"/>
<path d="M40.8575 31.8162L40.2285 31.1348V34.3846L40.8575 33.7294V31.8162Z" fill="#B5BEC4"/>
<path d="M33.7559 7.62748L34.3848 8.25647V4.98047L33.7559 5.60946V7.62748Z" fill="url(#paint8_linear_304_2054)"/>
<path d="M31.3973 18.3727V47.0705H40.5177V44.5021H34.0181V18.3465H31.3973V18.3727ZM32.367 5.32113C17.4284 5.50459 5.32031 17.7437 5.32031 32.7347C5.32031 40.0729 8.17698 46.9394 13.34 52.1286C18.5029 57.3178 25.3956 60.1483 32.7077 60.1483C40.0459 60.1483 46.9386 57.2916 52.1016 52.1286C57.2908 46.9394 60.1212 40.0729 60.1212 32.7347V31.4767H59.0467H40.5701V34.0189H57.5266C57.5266 34.0713 57.5266 34.3334 57.5266 34.3858C56.6356 47.3063 45.8641 57.5799 32.7339 57.5799C26.1033 57.5799 19.8658 54.9853 15.1483 50.2941C10.4571 45.6028 7.8887 39.3653 7.8887 32.7347C7.8887 26.0779 10.4833 19.8404 15.1483 15.1491C19.8658 10.4579 26.1033 7.88952 32.7339 7.88952C33.0222 7.88952 33.7298 7.88952 34.0443 7.88952V5.32113C33.7822 5.32113 33.3629 5.32113 33.0222 5.29492H32.367V5.32113Z" fill="url(#paint9_radial_304_2054)"/>
<path d="M18.3203 22.2769C18.3203 24.4522 20.1025 26.1819 22.2515 26.1819C24.4006 26.1819 26.1827 24.426 26.1827 22.2769C26.1827 20.1016 24.4006 18.3457 22.2515 18.3457C20.1025 18.3457 18.3203 20.1016 18.3203 22.2769Z" fill="url(#paint10_radial_304_2054)"/>
<path d="M22.9572 19.0533C23.8483 19.0533 24.6869 19.3678 25.3421 19.892C24.6345 18.9485 23.5075 18.3457 22.2496 18.3457C20.0743 18.3457 18.3184 20.1016 18.3184 22.2769C18.3184 23.5349 18.9211 24.6356 19.8384 25.3432C19.3405 24.688 19.026 23.8756 19.026 22.9845C19.026 20.8093 20.8081 19.0533 22.9572 19.0533Z" fill="white"/>
<path d="M34.0169 5.32113C33.6762 5.32113 33.021 5.29492 32.6803 5.29492C17.5845 5.29492 5.29297 17.6127 5.29297 32.7085C5.29297 40.0467 8.14964 46.9132 13.3126 52.1024C13.4699 52.2597 13.6533 52.4169 13.8106 52.5742C8.93588 47.4374 6.23646 40.7806 6.23646 33.652C6.26267 18.6086 16.9555 6.08116 34.0169 5.32113Z" fill="white"/>
<path d="M34.0176 44.5293C34.0176 44.5293 35.9046 45.0797 40.5172 45.0797V44.5293H34.0176Z" fill="white"/>
<path d="M34.0173 19.1855V18.373H31.3965V47.0708C31.3965 47.0708 32.2089 42.6941 32.2089 19.1593H34.0173V19.1855Z" fill="white"/>
<path d="M60.1203 31.4766H40.543V34.0187H41.2506V32.1842C58.312 32.2104 60.1203 31.4766 60.1203 31.4766Z" fill="white"/>
<path d="M57.5262 34.0457C57.5262 34.0982 57.5262 34.3864 57.5 34.4127C56.6351 47.3332 45.8636 57.5805 32.7072 57.5805C26.0766 57.5805 19.8391 54.9859 15.1216 50.2947C12.0553 47.2284 9.90624 43.5068 8.7793 39.4184C11.7146 50.1112 21.5164 57.8688 33.1265 57.8688C45.6015 57.8688 57.1068 48.0932 57.8407 34.0195H57.5262V34.0457Z" fill="white"/>
<defs>
<radialGradient id="paint0_radial_304_2054" cx="0" cy="0" r="1" gradientUnits="userSpaceOnUse" gradientTransform="translate(31.5259 31.7461) scale(34.1485)">
<stop stop-color="#C00C3F"/>
<stop offset="0.5" stop-color="#C00C3F"/>
<stop offset="0.7363" stop-color="#BF0C3E"/>
<stop offset="0.8358" stop-color="#B90A3B"/>
<stop offset="0.9094" stop-color="#B00737"/>
<stop offset="0.9701" stop-color="#A30330"/>
<stop offset="1" stop-color="#9A002B"/>
</radialGradient>
<linearGradient id="paint1_linear_304_2054" x1="19.3237" y1="4.22421" x2="36.6055" y2="51.7053" gradientUnits="userSpaceOnUse">
<stop stop-color="#F48996"/>
<stop offset="0.0111818" stop-color="#F28693"/>
<stop offset="0.263" stop-color="#DB5A69"/>
<stop offset="0.4875" stop-color="#CC3750"/>
<stop offset="0.6746" stop-color="#C31B43"/>
<stop offset="0.8011" stop-color="#C00C3F"/>
<stop offset="1" stop-color="#C00C3F"/>
</linearGradient>
<linearGradient id="paint2_linear_304_2054" x1="10.8812" y1="15.9586" x2="50.5202" y2="55.5976" gradientUnits="userSpaceOnUse">
<stop stop-color="#CE425C"/>
<stop offset="0.0901959" stop-color="#BD3551"/>
<stop offset="0.2501" stop-color="#A82242"/>
<stop offset="0.431" stop-color="#9B1438"/>
<stop offset="0.6483" stop-color="#930933"/>
<stop offset="1" stop-color="#910531"/>
</linearGradient>
<linearGradient id="paint3_linear_304_2054" x1="33.7102" y1="31.3973" x2="34.4373" y2="31.3973" gradientUnits="userSpaceOnUse">
<stop stop-color="#B5BEC4"/>
<stop offset="0.1753" stop-color="#99A2A9"/>
<stop offset="0.569" stop-color="#646C74"/>
<stop offset="0.8544" stop-color="#424950"/>
<stop offset="1" stop-color="#333940"/>
</linearGradient>
<linearGradient id="paint4_linear_304_2054" x1="40.2275" y1="45.81" x2="40.8675" y2="45.81" gradientUnits="userSpaceOnUse">
<stop stop-color="#B4BCC2"/>
<stop offset="0.1351" stop-color="#989FA4"/>
<stop offset="0.548" stop-color="#585D61"/>
<stop offset="0.8473" stop-color="#373E41"/>
<stop offset="1" stop-color="#2B3337"/>
</linearGradient>
<linearGradient id="paint5_linear_304_2054" x1="19.2434" y1="19.2543" x2="25.2835" y2="25.2943" gradientUnits="userSpaceOnUse">
<stop stop-color="#ABBAC3"/>
<stop offset="1" stop-color="#202428"/>
</linearGradient>
<linearGradient id="paint6_linear_304_2054" x1="10.5806" y1="15.5183" x2="50.1612" y2="55.0989" gradientUnits="userSpaceOnUse">
<stop stop-color="#B5BEC4"/>
<stop offset="1" stop-color="#3E454D"/>
</linearGradient>
<linearGradient id="paint7_linear_304_2054" x1="57.8325" y1="32.7414" x2="7.59173" y2="32.7414" gradientUnits="userSpaceOnUse">
<stop stop-color="#B5BEC4"/>
<stop offset="1" stop-color="#485059"/>
</linearGradient>
<linearGradient id="paint8_linear_304_2054" x1="33.7436" y1="6.61912" x2="34.3776" y2="6.61912" gradientUnits="userSpaceOnUse">
<stop stop-color="#B4BCC2"/>
<stop offset="0.1351" stop-color="#989FA4"/>
<stop offset="0.548" stop-color="#585D61"/>
<stop offset="0.8473" stop-color="#373E41"/>
<stop offset="1" stop-color="#2B3337"/>
</linearGradient>
<radialGradient id="paint9_radial_304_2054" cx="0" cy="0" r="1" gradientUnits="userSpaceOnUse" gradientTransform="translate(21.6622 21.1273) scale(41.9223)">
<stop stop-color="white"/>
<stop offset="0.35" stop-color="white"/>
<stop offset="0.5295" stop-color="#F6F8F9"/>
<stop offset="0.7147" stop-color="#E6EBEF"/>
<stop offset="0.902" stop-color="#CFD9DE"/>
<stop offset="1" stop-color="#C0CCD3"/>
</radialGradient>
<radialGradient id="paint10_radial_304_2054" cx="0" cy="0" r="1" gradientUnits="userSpaceOnUse" gradientTransform="translate(20.6315 20.8387) scale(6.12147 6.12146)">
<stop stop-color="white"/>
<stop offset="0.35" stop-color="white"/>
<stop offset="0.5653" stop-color="#F6F8F9"/>
<stop offset="0.7879" stop-color="#E6EBEF"/>
<stop offset="1" stop-color="#D0DADF"/>
</radialGradient>
</defs>
</svg>
