<svg width="183" height="184" viewBox="0 0 183 184" fill="none" xmlns="http://www.w3.org/2000/svg">
<path d="M175 0H7.79999C3.49999 0 0 3.5 0 7.8V175.8C0 180.1 3.49999 183.6 7.79999 183.6H175C179.3 183.6 182.8 180.1 182.8 175.8V7.8C182.8 3.5 179.3 0 175 0ZM177.6 174.3C177.6 176.3 175.9 178 173.9 178H8.89999C6.79999 178 5.19998 176.3 5.19998 174.3V9.3C5.19998 7.3 6.89999 5.60001 8.89999 5.60001H173.9C176 5.60001 177.6 7.3 177.6 9.3V174.3Z" fill="#414042"/>
<path d="M36.5 142.5L32.7 155.3H30.8L27.8 146.3L24.8 155.3H22.9L19.1 142.5H21.4L23.9 151.7L26.8 142.5H28.6L31.6 151.7L34.1 142.5H36.5Z" fill="#414042"/>
<path d="M53.4 155.3H51L50 152.7H44.2L43.2 155.3H40.9L46.3 142.5H48.1L53.4 155.3ZM49.4 151.1L47.2 145.4L44.9 151.1H49.4Z" fill="#414042"/>
<path d="M71.5 155.3H68.9L65.8 149.9H63V155.3H60.8V142.5H66.5C67.9 142.5 69 142.8 69.8 143.5C70.6 144.2 71 145.1 71 146.2C71 147.1 70.7 147.8 70.2 148.4C69.7 149 69 149.4 68.1 149.6L71.5 155.3ZM68.8 146.2C68.8 145.6 68.6 145.1 68.1 144.7C67.6 144.3 67 144.2 66.3 144.2H63V148.2H66.3C67 148.2 67.6 148 68.1 147.7C68.6 147.3 68.8 146.9 68.8 146.2Z" fill="#414042"/>
<path d="M90.3 155.3H87.7L84.6 149.9H81.9V155.3H79.7V142.5H85.4C86.8 142.5 87.9 142.8 88.7 143.5C89.5 144.2 89.9 145.1 89.9 146.2C89.9 147.1 89.6 147.8 89.1 148.4C88.6 149 87.9 149.4 87 149.6L90.3 155.3ZM87.7 146.2C87.7 145.6 87.5 145.1 87 144.7C86.6 144.3 86 144.2 85.2 144.2H81.9V148.2H85.2C85.9 148.2 86.5 148 87 147.7C87.4 147.3 87.7 146.9 87.7 146.2Z" fill="#414042"/>
<path d="M109.6 155.3H107.2L106.2 152.7H100.4L99.4 155.3H97L102.4 142.5H104.2L109.6 155.3ZM105.6 151.1L103.4 145.4L101.1 151.1H105.6Z" fill="#414042"/>
<path d="M127.9 155.3H125.9L119.1 146.3V155.3H116.9V142.5H118.9L125.7 151.5V142.5H127.9V155.3Z" fill="#414042"/>
<path d="M146 144.2H142V155.3H139.8V144.2H135.8V142.5H146.1L146 144.2Z" fill="#414042"/>
<path d="M163.3 142.5L158.9 150V155.3H156.7V150L152.3 142.5H154.7L157.8 148.1L160.9 142.5H163.3Z" fill="#414042"/>
<path d="M163.5 134.6H18.9V136.7H163.5V134.6Z" fill="#58595B"/>
<mask id="mask0_1_5" style="mask-type:luminance" maskUnits="userSpaceOnUse" x="18" y="134" width="146" height="3">
<path d="M163.5 134.6H18.9V136.7H163.5V134.6Z" fill="white"/>
</mask>
<g mask="url(#mask0_1_5)">
<path d="M163.5 134.6H18.9V136.7H163.5V134.6Z" fill="#58595B"/>
</g>
<path d="M20.4 56.2L20.1 50.1C20.1 29.3 26.4 15.4 50.9 15.4C70.4 15.4 82.6 24.7 82.6 44C82.6 55.4 78.4 64.5 72.9 74.4L53.2 109.8H83.6V129.1H18.7L45.3 82.9C51.4 72.2 60.5 57.1 60.5 44.8C60.5 39 58.6 31 51.1 31C42.2 31 41.7 43 41.7 49.1L42 56.2H20.4Z" fill="#58595B"/>
<path d="M109.4 109.8L103.3 121.3V129.1H98.3V121.3L92.2 109.8H97.6L100.8 116.8L104 109.8H109.4Z" fill="#414042"/>
<path d="M125.2 129.1H111.4V109.8H125.2V114.1H116.4V117.3H123.9V121.5H116.4V124.9H125.2V129.1Z" fill="#414042"/>
<path d="M145.2 129.1H140L139.1 126.2H132.9L131.9 129.1H126.7L134.1 109.8H137.9L145.2 129.1ZM137.8 122.3L136.1 117.1L134.3 122.3H137.8Z" fill="#414042"/>
<path d="M163.2 129.1H157.4L153.8 121.9H152.1V129.1H147.1V109.8H155.1C157.3 109.8 159 110.4 160.2 111.7C161.4 112.9 162 114.3 162 116C162 117.2 161.6 118.3 160.9 119.2C160.3 120 159.6 120.6 158.7 121L163.2 129.1ZM157.2 116C157.2 115.5 157 115 156.6 114.6C156.2 114.2 155.7 114 155 114H152.2V117.9H155C155.7 117.9 156.2 117.7 156.6 117.3C157 117 157.2 116.5 157.2 116Z" fill="#414042"/>
<path d="M148.5 30.7L148.6 29.9C149.2 29.8 149.9 29.6 150.5 29.3C150.5 28.9 150.5 28.6 150.4 28.2C149.7 28 149 27.8 148.4 27.7C148.4 27.4 148.3 27.2 148.2 26.9C148.1 26.6 148 26.4 147.9 26.2C148.4 25.8 148.9 25.3 149.3 24.8C149.1 24.5 148.9 24.2 148.7 23.8C148 23.9 147.3 24.1 146.7 24.3C146.5 24.1 146.3 23.9 146.2 23.7C146 23.5 145.8 23.4 145.6 23.2C145.8 22.6 146 21.9 146.2 21.3C145.9 21.1 145.6 20.9 145.2 20.7C144.6 21.1 144.1 21.6 143.7 22.1C143.5 22 143.2 21.9 143 21.8C142.8 21.7 142.5 21.7 142.2 21.6C142.1 20.9 142 20.3 141.8 19.6C141.4 19.5 141.1 19.5 140.7 19.5C140.4 20.1 140.2 20.8 140 21.4C139.7 21.4 139.5 21.5 139.2 21.5C138.9 21.5 138.7 21.6 138.4 21.7C138 21.1 137.6 20.6 137.2 20.1C136.9 20.2 136.5 20.4 136.2 20.6C136.2 21.3 136.3 22 136.5 22.6C136.3 22.7 136.1 22.9 135.9 23.1C135.7 23.3 135.5 23.4 135.3 23.6C134.7 23.3 134.1 23 133.5 22.8C133.2 23.1 133 23.4 132.8 23.7C133.1 24.3 133.6 24.9 134 25.4C133.9 25.6 133.8 25.9 133.6 26.1C133.5 26.3 133.4 26.6 133.3 26.8C132.6 26.8 131.9 26.8 131.3 26.9C131.2 27.3 131.1 27.6 131.1 28C131.7 28.4 132.3 28.7 132.9 28.9C132.9 29.2 132.9 29.4 132.9 29.7C132.9 30 132.9 30.2 133 30.5C132.4 30.8 131.8 31.2 131.3 31.5C131.4 31.9 131.5 32.2 131.6 32.6C132.3 32.6 133 32.6 133.7 32.6C133.8 32.8 133.9 33.1 134.1 33.3C134.2 33.5 134.4 33.7 134.5 33.9C134.1 34.4 133.7 35 133.4 35.6C133.7 35.9 133.9 36.2 134.2 36.4C134.8 36.1 135.4 35.8 136 35.4C136.2 35.6 136.4 35.7 136.7 35.8C136.9 35.9 137.1 36.1 137.4 36.2C137.3 36.9 137.3 37.6 137.3 38.2C137.7 38.3 138 38.5 138.4 38.5C138.8 37.9 139.2 37.4 139.5 36.8C139.8 36.8 140 36.9 140.3 36.9C140.6 36.9 140.8 36.9 141.1 36.9C141.3 37.5 141.6 38.1 141.9 38.7C142.3 38.6 142.6 38.6 143 38.5C143.1 37.8 143.2 37.1 143.2 36.4C143.4 36.3 143.7 36.2 143.9 36.1C144.1 36 144.4 35.9 144.6 35.7C145.1 36.1 145.6 36.6 146.2 37C146.5 36.8 146.8 36.6 147.1 36.3C146.9 35.6 146.6 35 146.3 34.4C146.5 34.2 146.7 34 146.8 33.8C146.9 33.6 147.1 33.4 147.2 33.2C147.8 33.4 148.5 33.5 149.2 33.6C149.4 33.3 149.5 32.9 149.7 32.6C149.2 32.1 148.7 31.7 148.1 31.3L148.5 30.7ZM140.3 32.3C138.7 32 137.6 30.5 137.9 28.8C138.2 27.2 139.7 26.1 141.4 26.4C143 26.7 144.1 28.2 143.8 29.9C143.4 31.5 141.9 32.6 140.3 32.3Z" fill="#414042"/>
<path d="M124 40L124.5 38.9C125.2 39 126 39 126.8 39C127.1 38.1 127.4 37.2 127.6 36.2C127 35.8 126.3 35.4 125.7 35.1L125.9 33.9C125.9 33.5 125.9 33.1 126 32.7C126.7 32.5 127.4 32.2 128.1 32C128.1 31 128 30.1 127.8 29.1C127.1 29 126.3 28.9 125.6 28.8L125.3 27.6L124.9 26.4C125.5 25.9 126 25.4 126.6 24.9C126.2 24 125.8 23.2 125.2 22.4C124.5 22.6 123.7 22.8 123 23C122.8 22.7 122.5 22.3 122.3 22L121.5 21.1C121.9 20.4 122.2 19.8 122.5 19.1C121.8 18.4 121.1 17.8 120.3 17.3C119.7 17.7 119.1 18.2 118.5 18.7L117.4 18.1L116.3 17.6C116.4 16.9 116.4 16.1 116.4 15.3C115.5 15 114.6 14.7 113.6 14.5C113.2 15.1 112.8 15.8 112.5 16.4L111.3 16.2C110.9 16.2 110.5 16.2 110.1 16.1C109.9 15.4 109.6 14.7 109.4 14C108.4 14 107.5 14.1 106.5 14.3C106.4 15 106.3 15.8 106.2 16.5L105 16.8L103.8 17.2C103.3 16.6 102.8 16.1 102.3 15.5C101.4 15.9 100.6 16.3 99.8 16.9C100 17.6 100.1 18.4 100.4 19.1C100.1 19.3 99.7 19.6 99.4 19.8L98.5 20.6C97.8 20.2 97.2 19.9 96.5 19.6C95.8 20.3 95.2 21 94.7 21.8C95.1 22.4 95.6 23 96.1 23.6L95.5 24.7L95 25.8C94.3 25.7 93.5 25.7 92.7 25.7C92.4 26.6 92.1 27.5 91.9 28.5C92.5 28.9 93.2 29.3 93.8 29.6L93.6 30.8C93.6 31.2 93.6 31.6 93.5 32C92.8 32.2 92.1 32.5 91.4 32.7C91.4 33.7 91.5 34.6 91.7 35.6C92.4 35.7 93.2 35.8 93.9 35.9L94.2 37.1L94.6 38.3C94 38.8 93.5 39.3 92.9 39.8C93.3 40.7 93.7 41.5 94.3 42.3C95 42.2 95.8 42 96.5 41.7C96.7 42 97 42.4 97.2 42.7L98 43.6C97.6 44.3 97.3 44.9 97 45.6C97.7 46.3 98.4 46.9 99.2 47.4C99.8 47 100.4 46.5 101 46L102.1 46.6L103.2 47.1C103.1 47.8 103.1 48.6 103.1 49.4C104 49.7 104.9 50 105.9 50.2C106.3 49.6 106.7 48.9 107 48.3L108.2 48.5C108.6 48.5 109 48.5 109.4 48.6C109.6 49.3 109.9 50 110.1 50.7C111.1 50.7 112 50.6 113 50.4C113.1 49.7 113.2 48.9 113.3 48.2L114.5 47.9L115.7 47.5C116.2 48.1 116.7 48.6 117.2 49.2C118.1 48.8 118.9 48.4 119.7 47.8C119.5 47.1 119.3 46.3 119.1 45.6C119.4 45.4 119.8 45.1 120.1 44.9L121 44.1C121.7 44.5 122.3 44.8 123 45.1C123.7 44.4 124.3 43.7 124.8 42.9C124.4 42.3 123.9 41.7 123.4 41.1L124 40ZM112.9 43.2C111.5 43.6 110 43.8 108.5 43.6C107 43.5 105.6 43 104.3 42.3C103 41.6 101.8 40.6 100.9 39.5C100 38.4 99.2 37 98.8 35.6C98.4 34.2 98.2 32.7 98.4 31.2C98.5 29.7 99 28.3 99.7 27C100.4 25.7 101.4 24.5 102.5 23.6C103.6 22.7 105 21.9 106.4 21.5C107.8 21.1 109.3 20.9 110.8 21.1C112.3 21.2 113.7 21.7 115 22.4C116.3 23.1 117.5 24.1 118.4 25.2C119.3 26.3 120.1 27.7 120.5 29.1C120.9 30.5 121.1 32 120.9 33.5C120.8 35 120.3 36.4 119.6 37.7C118.9 39 117.9 40.2 116.8 41.1C115.6 42 114.3 42.7 112.9 43.2Z" fill="#414042"/>
<path d="M120.3 33.4C120.4 32 120.3 30.6 119.9 29.2C119.5 27.8 118.8 26.6 117.9 25.5C117 24.4 115.9 23.5 114.7 22.8C113.4 22.1 112.1 21.7 110.7 21.6C109.3 21.5 107.9 21.6 106.5 22C105.1 22.4 103.9 23.1 102.8 24C101.7 24.9 100.8 26 100.1 27.2C99.4 28.5 99 29.8 98.9 31.2C98.8 32.6 98.9 34 99.3 35.4C99.7 36.7 100.4 38 101.3 39.1C102.2 40.2 103.3 41.1 104.5 41.8C105.8 42.5 107.1 42.9 108.5 43C109.9 43.1 111.3 43 112.7 42.6C114 42.2 115.3 41.5 116.4 40.6C117.5 39.7 118.4 38.6 119.1 37.4C119.7 36.2 120.1 34.8 120.3 33.4ZM112.3 41.4C111.1 41.8 109.8 41.9 108.6 41.8C107.4 41.7 106.2 41.3 105.1 40.7C104 40.1 103 39.3 102.2 38.4C101.4 37.4 100.8 36.3 100.4 35.1C100 33.9 99.9 32.6 100 31.4C100.1 30.2 100.5 29 101.1 27.9C101.7 26.8 102.5 25.8 103.4 25C104.4 24.2 105.5 23.6 106.7 23.2C107.9 22.8 109.2 22.7 110.4 22.8C111.6 22.9 112.8 23.3 113.9 23.9C115 24.5 116 25.3 116.8 26.2C117.6 27.2 118.2 28.3 118.6 29.5C119 30.7 119.1 32 119 33.2C118.9 34.4 118.5 35.6 117.9 36.7C117.3 37.8 116.5 38.8 115.6 39.6C114.7 40.5 113.5 41.1 112.3 41.4Z" fill="#414042"/>
<path d="M129.2 86.3C129.5 85.5 129.8 84.8 130 84.1C132.1 84.1 134.3 83.9 136.4 83.5C136.7 82.3 136.8 81.1 136.9 79.9C135 78.9 132.9 78 130.9 77.5C130.8 76.7 130.8 75.9 130.6 75.1C130.5 74.3 130.2 73.5 130 72.8C131.7 71.6 133.3 70.2 134.8 68.6C134.3 67.5 133.7 66.4 133 65.4C130.8 65.7 128.7 66.2 126.7 67C126.2 66.4 125.6 65.8 125.1 65.2C124.5 64.7 123.9 64.1 123.2 63.7C123.8 61.7 124.3 59.6 124.6 57.5C123.5 56.9 122.5 56.4 121.3 56C119.7 57.5 118.3 59.2 117.1 61C116.3 60.8 115.5 60.7 114.7 60.6C113.9 60.5 113.1 60.4 112.3 60.5C111.7 58.5 110.8 56.5 109.8 54.6C108.6 54.7 107.4 55 106.2 55.3C105.8 57.5 105.7 59.6 105.7 61.8C105 62.1 104.2 62.4 103.5 62.8C102.8 63.2 102.2 63.7 101.5 64.1C99.8 62.9 98 61.8 96 60.8C95.1 61.7 94.3 62.5 93.5 63.5C94.4 65.5 95.6 67.4 96.9 69C96.4 69.7 96.1 70.4 95.7 71.1C95.4 71.8 95.1 72.6 94.9 73.3C92.8 73.3 90.6 73.5 88.5 73.9C88.2 75.1 88.1 76.3 88 77.5C89.9 78.5 92 79.4 94 79.9C94.1 80.7 94.1 81.5 94.3 82.3C94.4 83.1 94.7 83.9 94.9 84.6C93.2 85.8 91.6 87.2 90.1 88.8C90.6 89.9 91.2 91 91.8 92C94 91.7 96.1 91.2 98.1 90.4C98.6 91 99.2 91.6 99.7 92.2C100.3 92.7 100.9 93.3 101.6 93.7C101 95.7 100.4 97.8 100.2 99.9C101.3 100.5 102.3 101 103.5 101.4C105.1 99.9 106.5 98.2 107.7 96.4C108.5 96.6 109.3 96.7 110.1 96.8C110.9 96.9 111.7 97 112.5 96.9C113.1 98.9 114 100.9 115 102.8C116.2 102.7 117.4 102.4 118.6 102.1C119 99.9 119.1 97.8 119.1 95.6C119.8 95.3 120.6 95 121.3 94.6C122 94.2 122.7 93.7 123.3 93.3C125 94.5 126.8 95.6 128.8 96.6C129.7 95.7 130.5 94.9 131.3 93.9C130.4 91.9 129.2 90 127.9 88.4C128.5 87.7 128.8 87 129.2 86.3ZM111.3 89.8C109 89.5 106.7 88.5 105 86.9C103.3 85.3 102 83.1 101.6 80.8C101.1 78.5 101.4 76.1 102.4 73.9C103.4 71.7 105.1 69.9 107.1 68.8C109.2 67.6 111.6 67.2 113.9 67.4C116.2 67.7 118.5 68.7 120.2 70.3C121.9 71.9 123.2 74.1 123.6 76.4C124.1 78.7 123.8 81.1 122.8 83.3C121.8 85.5 120.1 87.3 118.1 88.4C116.1 89.6 113.6 90.1 111.3 89.8Z" fill="#414042"/>
<path d="M157.3 61.2C157.7 60.4 158.1 59.6 158.3 58.7C158.5 57.8 158.7 57 158.8 56.1C160.8 55.6 162.9 54.7 164.8 53.5C164.6 52 164.3 50.5 163.8 49.1C161.5 48.7 159.3 48.7 157.1 49C156.7 48.2 156.1 47.5 155.5 46.9C154.9 46.2 154.2 45.7 153.5 45.2C154 43.2 154.3 41 154.2 38.7C152.8 38.1 151.4 37.6 149.9 37.4C148.4 39.2 147.2 41.1 146.5 43.1C145.6 43.1 144.7 43.2 143.9 43.4C143 43.6 142.2 43.9 141.4 44.3C139.9 42.8 138.2 41.5 136.2 40.4C135 41.3 133.9 42.3 132.9 43.5C133.7 45.7 134.8 47.7 136.2 49.3C135.8 50.1 135.4 50.9 135.2 51.8C135 52.7 134.8 53.5 134.7 54.4C132.7 54.9 130.6 55.8 128.7 57C128.9 58.5 129.2 60 129.7 61.4C132 61.8 134.2 61.8 136.4 61.5C136.8 62.3 137.4 63 138 63.6C138.6 64.3 139.3 64.8 140 65.3C139.5 67.3 139.2 69.5 139.3 71.8C140.7 72.4 142.1 72.9 143.6 73.1C145.1 71.3 146.3 69.4 147 67.4C147.9 67.4 148.8 67.3 149.6 67.1C150.5 66.9 151.3 66.6 152.1 66.2C153.6 67.7 155.4 69 157.3 70.1C158.5 69.2 159.6 68.2 160.6 67C159.8 64.8 158.7 62.8 157.3 61.2ZM151.6 56.7C151.1 58.4 149.6 59.9 147.8 60.3C146.1 60.8 144.1 60.2 142.8 58.8C141.5 57.5 141.1 55.5 141.6 53.8C142.1 52.1 143.6 50.6 145.4 50.2C147.1 49.8 149.1 50.3 150.4 51.7C151.7 53 152.1 55 151.6 56.7Z" fill="#414042"/>
<path d="M23.6 160C26.3 160 27.8 162 27.8 164.5C27.8 167 26.2 169 23.6 169C20.9 169 19.4 167 19.4 164.5C19.4 162 21 160 23.6 160ZM23.6 167.4C25.3 167.4 25.9 166 25.9 164.5C25.9 163 25.3 161.6 23.6 161.6C21.9 161.6 21.3 163 21.3 164.5C21.3 165.9 21.9 167.4 23.6 167.4Z" fill="#414042"/>
<path d="M30.9 160.2H32.8L36.4 165.9V160.2H38.2V168.8H36.3L32.7 163.1V168.8H30.9V160.2Z" fill="#414042"/>
<path d="M46.7 160.2H50.6C52.7 160.2 53.6 161.6 53.6 162.9C53.6 164.3 52.8 165.6 50.6 165.6H48.6V168.7H46.7V160.2ZM48.6 164.2H50.1C51 164.2 51.8 164 51.8 162.9C51.8 161.8 51 161.6 50.1 161.6H48.6V164.2Z" fill="#414042"/>
<path d="M58 160.2H59.9L63.1 168.8H61.1L60.5 166.9H57.3L56.6 168.8H54.7L58 160.2ZM57.8 165.4H60L58.9 162.3L57.8 165.4Z" fill="#414042"/>
<path d="M65.7 160.2H70.3C71.8 160.2 72.8 161.3 72.8 162.6C72.8 163.6 72.4 164.4 71.4 164.7C72.3 164.9 72.6 165.8 72.6 166.7C72.6 167.2 72.6 168.2 73 168.7H71.1C70.9 168.2 70.9 167.3 70.8 166.6C70.7 165.7 70.3 165.3 69.4 165.3H67.5V168.6H65.6L65.7 160.2ZM67.5 164.1H69.6C70.4 164.1 70.9 163.7 70.9 162.9C70.9 162.1 70.4 161.7 69.6 161.7H67.5V164.1Z" fill="#414042"/>
<path d="M77.8 161.8H75.2V160.2H82.2V161.8H79.6V168.8H77.7V161.8H77.8Z" fill="#414042"/>
<path d="M86.3 165.9C86.3 167 87.2 167.5 88.2 167.5C88.9 167.5 89.9 167.3 89.9 166.4C89.9 165.5 88.6 165.3 87.4 165C86.1 164.7 84.8 164.2 84.8 162.6C84.8 160.8 86.5 160 88 160C89.8 160 91.4 160.8 91.4 162.8H89.6C89.5 161.8 88.8 161.5 87.9 161.5C87.3 161.5 86.6 161.8 86.6 162.5C86.6 163.2 87 163.2 89.2 163.8C89.8 164 91.7 164.4 91.7 166.3C91.7 167.9 90.5 169 88.1 169C86.2 169 84.4 168.1 84.5 166H86.3V165.9Z" fill="#414042"/>
<path d="M104.5 167.9C103.8 168.6 103.1 168.9 102.1 168.9C100.6 168.9 99.3 168 99.3 166.3C99.3 165.1 100.2 164.3 101.2 163.8C100.7 163.2 100.4 162.7 100.4 162C100.4 160.8 101.5 160 102.6 160C103.9 160 105 160.7 105 162.1C105 163.1 104.3 163.8 103.5 164.2L104.6 165.6C104.8 165.3 104.9 164.9 104.9 164.6H106.4C106.3 165.4 106.1 166.1 105.6 166.7L107.3 168.7H105.2L104.5 167.9ZM102.1 165C101.5 165.3 100.9 165.7 100.9 166.4C100.9 167 101.5 167.5 102.1 167.5C102.7 167.5 103.1 167.2 103.5 166.7L102.1 165ZM102.7 161.2C102.3 161.2 101.9 161.5 101.9 162C101.9 162.5 102.2 162.9 102.6 163.3C103.1 163 103.5 162.7 103.5 162.1C103.5 161.6 103.2 161.2 102.7 161.2Z" fill="#414042"/>
<path d="M114.9 160.2H116.8V167.2H121V168.8H114.9V160.2Z" fill="#414042"/>
<path d="M126.2 160.2H128.1L131.3 168.8H129.3L128.7 166.9H125.5L124.8 168.8H122.9L126.2 160.2ZM126 165.4H128.2L127.1 162.3L126 165.4Z" fill="#414042"/>
<path d="M133.9 160.2H137.9C139.5 160.2 140.6 160.7 140.6 162.3C140.6 163.1 140.2 163.7 139.4 164.1C140.4 164.4 141 165.2 141 166.3C141 168 139.5 168.8 138 168.8H133.9V160.2ZM135.7 163.6H137.6C138.3 163.6 138.8 163.3 138.8 162.6C138.8 161.8 138.2 161.6 137.5 161.6H135.7V163.6ZM135.7 167.3H137.7C138.4 167.3 139.1 167.1 139.1 166.2C139.1 165.3 138.5 165 137.7 165H135.6V167.3H135.7Z" fill="#414042"/>
<path d="M147.9 160C150.6 160 152.1 162 152.1 164.5C152.1 167 150.5 169 147.9 169C145.2 169 143.7 167 143.7 164.5C143.7 162 145.3 160 147.9 160ZM147.9 167.4C149.6 167.4 150.2 166 150.2 164.5C150.2 163 149.6 161.6 147.9 161.6C146.2 161.6 145.6 163 145.6 164.5C145.6 165.9 146.3 167.4 147.9 167.4Z" fill="#414042"/>
<path d="M155.2 160.2H159.8C161.3 160.2 162.3 161.3 162.3 162.6C162.3 163.6 161.9 164.4 160.9 164.7C161.8 164.9 162.1 165.8 162.1 166.7C162.1 167.2 162.1 168.2 162.5 168.7H160.6C160.4 168.2 160.4 167.3 160.3 166.6C160.2 165.7 159.8 165.3 158.9 165.3H157V168.6H155.1L155.2 160.2ZM157.1 164.1H159.2C160 164.1 160.5 163.7 160.5 162.9C160.5 162.1 160 161.7 159.2 161.7H157.1V164.1Z" fill="#414042"/>
</svg>
