<svg width="180" height="185" viewBox="0 0 180 185" fill="none" xmlns="http://www.w3.org/2000/svg">
<g clip-path="url(#clip0_1_63)">
<path d="M173.84 176.613H24.16C14.2 176.613 6.16003 168.547 6.16003 158.554V8.38721H155.84C165.8 8.38721 173.84 16.4534 173.84 26.4458V176.613Z" fill="#0A1649"/>
<path d="M178.4 181.188H21.6C10.56 181.188 1.59998 172.199 1.59998 161.123V3.81238H158.4C169.44 3.81238 178.4 12.8015 178.4 23.8775V181.188Z" stroke="#0A1649" stroke-width="5" stroke-miterlimit="10"/>
<path d="M27.4401 124.203C25.0401 124.203 23.2801 123.561 22.2401 122.237C21.2001 120.912 20.6801 119.026 20.6801 116.538C20.6801 113.97 21.2801 112.084 22.4801 110.799C23.6801 109.515 25.3601 108.873 27.6001 108.873C28.0401 108.873 28.5201 108.913 29.0001 108.994C29.4801 109.074 29.9601 109.194 30.4001 109.355C30.8401 109.515 31.2801 109.756 31.6801 109.997C32.0801 110.278 32.4401 110.559 32.7201 110.92L30.9601 112.645C30.5601 112.164 30.0801 111.803 29.5601 111.562C29.0401 111.321 28.4001 111.201 27.6801 111.201C25.0401 111.201 23.7601 113.047 23.7601 116.739C23.7601 120.029 25.0801 121.675 27.6801 121.675C28.4801 121.675 29.2001 121.594 29.9201 121.394C30.6001 121.193 31.2801 120.992 31.8801 120.712L32.5601 122.999C31.9201 123.36 31.1601 123.641 30.2401 123.882C29.2801 124.083 28.3601 124.203 27.4401 124.203Z" fill="white"/>
<path d="M36.28 116.458C36.28 113.93 36.84 112.043 38 110.759C39.16 109.515 40.88 108.873 43.28 108.873C44.48 108.873 45.48 109.034 46.32 109.395C47.16 109.756 47.8 110.278 48.32 110.92C48.84 111.602 49.2 112.405 49.44 113.368C49.68 114.331 49.76 115.414 49.76 116.578C49.76 119.106 49.2 120.992 48.04 122.277C46.88 123.561 45.12 124.163 42.76 124.163C41.56 124.163 40.52 124.002 39.72 123.641C38.92 123.28 38.24 122.758 37.72 122.076C37.2 121.394 36.84 120.591 36.64 119.628C36.4 118.705 36.28 117.662 36.28 116.458ZM46.68 116.297C46.68 115.615 46.64 114.933 46.52 114.291C46.4 113.649 46.24 113.127 46 112.645C45.76 112.164 45.4 111.803 44.96 111.522C44.52 111.241 43.96 111.12 43.32 111.12C42.56 111.12 41.96 111.241 41.44 111.482C40.92 111.722 40.52 112.084 40.2 112.565C39.88 113.047 39.64 113.609 39.52 114.291C39.4 114.973 39.32 115.776 39.32 116.658C39.32 117.381 39.36 118.063 39.48 118.665C39.6 119.307 39.76 119.829 40.04 120.31C40.32 120.792 40.64 121.153 41.08 121.434C41.52 121.715 42.04 121.835 42.72 121.835C43.48 121.835 44.12 121.715 44.64 121.474C45.16 121.233 45.56 120.872 45.84 120.391C46.12 119.909 46.36 119.347 46.48 118.665C46.6 117.983 46.68 117.22 46.68 116.297Z" fill="white"/>
<path d="M70.68 109.114V123.922H67.7201V111.401H67.5201L64.7201 123.922H60.8L57.96 111.401H57.76V123.922H54.8V109.114H60.0401L62.76 121.635H62.96L65.6 109.114H70.68Z" fill="white"/>
<path d="M76.28 123.922V109.114H81.8C83.48 109.114 84.76 109.515 85.68 110.278C86.6 111.04 87.04 112.204 87.04 113.729C87.04 114.491 86.92 115.174 86.68 115.776C86.44 116.378 86.08 116.899 85.64 117.301C85.2 117.702 84.68 118.023 84.08 118.264C83.48 118.464 82.8 118.585 82.08 118.585H79.2V123.962H76.28V123.922ZM81.6 116.257C81.88 116.257 82.16 116.217 82.48 116.137C82.76 116.057 83 115.896 83.24 115.695C83.44 115.495 83.64 115.214 83.76 114.893C83.88 114.572 83.96 114.17 83.96 113.689C83.96 113.247 83.88 112.886 83.76 112.605C83.6 112.324 83.44 112.084 83.2 111.923C82.96 111.763 82.72 111.602 82.44 111.562C82.16 111.482 81.88 111.442 81.6 111.442H79.2V116.257H81.6Z" fill="white"/>
<path d="M100.6 121.594V123.922H91.6001V109.114H94.5601V121.594H100.6Z" fill="white"/>
<path d="M104.72 109.114H107.68V123.922H104.72V109.114Z" fill="white"/>
<path d="M122.96 123.922L121.72 120.07H116.2L114.96 123.922H111.84L117.12 109.114H121.04L126.2 123.922H122.96ZM118.88 111.401L116.96 117.702H120.92L119.08 111.401H118.88Z" fill="white"/>
<path d="M143.52 109.114V123.922H138.4L133.48 111.401H133.28V123.922H130.32V109.114H135.44L140.36 121.635H140.56V109.114H143.52Z" fill="white"/>
<path d="M159.32 109.114V111.442H154.96V123.922H152V111.442H147.64V109.114H159.32Z" fill="white"/>
<path d="M56.36 60.7975H45.72L31.4 100.888H39.88L43.24 90.4537H55.32C55.32 90.4537 53.56 84.2736 53.64 84.073H45.32L50.52 67.0177H51.04L61.48 100.888H70.28L56.36 60.7975Z" fill="white"/>
<path d="M134.68 60.7972H124.04L109.72 100.887H118.2L121.56 90.4534H133.64C133.64 90.4534 131.88 84.2734 131.96 84.0727H123.64L128.84 67.0174H129.36L139.8 100.887H148.6L134.68 60.7972Z" fill="white"/>
<path d="M87.8401 60.7972C91.1201 60.7972 94.0401 61.1584 96.6401 61.8807C99.2401 62.6031 101.4 63.7668 103.16 65.372C104.92 66.9773 106.28 69.064 107.2 71.6324C108.12 74.2007 108.56 77.3308 108.56 80.9425C108.56 84.6747 108 87.8048 106.84 90.3731C105.72 92.9415 104.12 94.9881 102.16 96.513C100.16 98.038 97.8001 99.1616 95.0801 99.8439C92.3601 100.526 89.4001 100.847 86.2001 100.847H74.8401V60.7571H87.8401V60.7972ZM86.0001 94.6269C88.2001 94.6269 90.1601 94.3862 91.9201 93.9447C93.6801 93.5033 95.1601 92.7007 96.4001 91.6573C97.6401 90.5738 98.5601 89.1291 99.2401 87.2831C99.8801 85.4371 100.24 83.1096 100.24 80.3406C100.24 75.8059 99.1201 72.4751 96.8801 70.3482C94.6401 68.2213 91.5601 67.1378 87.6801 67.1378H82.9601V94.6269H86.0001Z" fill="white"/>
</g>
<defs>
<clipPath id="clip0_1_63">
<rect width="180" height="185" fill="white"/>
</clipPath>
</defs>
</svg>
