<svg width="1534" height="370" viewBox="0 0 1534 370" fill="none" xmlns="http://www.w3.org/2000/svg">
<path d="M0 225.395H648.285" stroke="#6D6E71" stroke-width="0.9201" stroke-miterlimit="10"/>
<path d="M362.164 291.044H374.199L393.894 351.222L414.136 291.044H423.436L443.678 351.222L463.373 291.044H474.861L448.602 366.54H438.754L418.512 307.456L398.271 366.54H388.423L362.164 291.044Z" fill="#6D6E71"/>
<path d="M485.803 262.596H498.386V274.632H485.803V262.596ZM486.351 291.044H497.292V365.994H486.351V291.044Z" fill="#6D6E71"/>
<path d="M519.175 346.299V300.892H508.781V291.045H519.175V268.615H530.117V291.045H553.641V300.892H530.117V344.658C530.117 353.958 535.04 357.241 542.699 357.241C546.529 357.241 549.811 356.694 553.641 354.505V363.806C549.811 365.994 545.435 367.088 539.964 367.088C528.475 367.635 519.175 361.617 519.175 346.299Z" fill="#6D6E71"/>
<path d="M566.223 260.408H577.165V304.174C582.088 295.968 589.747 289.403 602.877 289.403C620.931 289.403 631.325 301.439 631.325 319.492V365.994H620.384V322.228C620.384 308.551 612.725 299.798 599.595 299.798C586.465 299.798 577.165 309.098 577.165 323.322V365.994H566.223V260.408Z" fill="#6D6E71"/>
<path d="M681.109 295.421C681.109 254.937 711.199 221.566 754.418 221.566C780.677 221.566 796.542 230.866 810.219 243.449L794.354 262.049C782.866 251.655 770.83 244.543 754.418 244.543C727.611 244.543 707.369 266.973 707.369 294.874V295.421C707.369 323.322 727.064 345.752 754.418 345.752C771.924 345.752 782.866 338.64 794.901 327.699L810.766 344.111C795.995 359.429 779.583 369.276 753.324 369.276C712.293 368.729 681.109 336.452 681.109 295.421Z" fill="#C00C3F"/>
<path d="M825.538 259.313H850.156V283.385C856.721 267.519 869.304 256.578 887.904 257.125V282.837H886.263C864.927 282.837 849.609 297.062 849.609 324.962V365.446H824.991V259.313H825.538Z" fill="#C00C3F"/>
<path d="M891.734 335.358C891.734 311.834 909.787 300.345 936.047 300.345C948.083 300.345 956.289 301.986 965.042 304.722V301.986C965.042 286.668 955.742 278.462 938.235 278.462C926.199 278.462 917.446 281.197 907.599 285.027L901.034 265.879C912.523 260.408 924.558 257.126 941.518 257.126C957.383 257.126 969.419 261.503 977.078 269.162C984.737 276.821 988.566 288.309 988.566 301.986V365.447H964.495V352.317C957.383 361.071 945.894 368.182 929.482 368.182C909.24 368.182 891.734 356.694 891.734 335.358ZM965.042 327.699V320.587C959.024 318.398 950.271 316.21 940.971 316.21C925.105 316.21 915.805 322.775 915.805 334.264V334.811C915.805 345.205 925.105 351.223 936.594 351.223C952.459 350.676 965.042 341.376 965.042 327.699Z" fill="#C00C3F"/>
<path d="M1199.74 224.301H1224.9V365.994H1199.74V224.301Z" fill="#C00C3F"/>
<path d="M1239.13 313.475C1239.13 282.839 1262.65 257.126 1294.93 257.126C1315.17 257.126 1327.75 264.785 1337.6 275.727L1322.28 292.139C1314.62 284.48 1306.96 279.009 1294.93 279.009C1276.87 279.009 1263.74 294.327 1263.74 312.928V313.475C1263.74 332.623 1276.87 347.941 1296.02 347.941C1307.51 347.941 1316.26 342.47 1323.92 334.811L1338.69 349.582C1328.3 361.071 1315.72 369.824 1294.93 369.824C1262.65 368.729 1239.13 343.564 1239.13 313.475Z" fill="#C00C3F"/>
<path d="M1344.16 312.927C1344.16 281.743 1366.05 256.578 1396.68 256.578C1430.6 256.578 1448.11 283.385 1448.11 314.021C1448.11 316.209 1448.11 318.397 1447.56 321.133H1368.78C1371.52 338.639 1383.55 348.487 1399.42 348.487C1411.46 348.487 1419.66 344.11 1428.41 335.904L1442.64 348.487C1432.24 360.522 1418.57 368.728 1398.87 368.728C1367.69 368.728 1344.16 346.298 1344.16 312.927ZM1422.94 305.268C1421.3 289.402 1412 277.367 1395.59 277.367C1380.82 277.367 1369.88 288.855 1367.69 305.268H1422.94Z" fill="#C00C3F"/>
<path d="M1456.32 224.849V229.226H1448.11V252.203H1442.64V229.226H1434.43V224.849H1456.32Z" fill="#C00C3F"/>
<path d="M1489.14 224.849V252.203H1483.67V228.678H1483.12L1477.65 252.203H1470.54L1465.07 228.678H1464.52V252.203H1459.05V224.849H1468.9L1473.82 247.826H1474.37L1479.29 224.849H1489.14Z" fill="#C00C3F"/>
<path d="M1139.56 280.103V258.767H1110.56V229.772H1085.95V258.767H1037.8V253.844C1037.8 242.902 1042.73 237.432 1052.03 237.432C1057.5 237.432 1061.33 238.526 1066.25 240.167V219.378C1060.78 217.737 1054.76 216.643 1046.56 216.643C1036.16 216.643 1027.96 219.378 1022.48 225.396C1017.01 230.867 1013.73 240.167 1013.73 251.655V258.767H1000.05V280.103H1013.73V365.994H1038.35V280.103H1085.95V336.452C1085.95 359.976 1098.53 367.636 1116.58 367.636C1125.88 367.636 1132.45 365.447 1138.46 362.165V341.923C1133.54 344.111 1128.62 345.752 1123.15 345.752C1114.94 345.752 1110.02 341.923 1110.02 332.623V280.103H1139.56Z" fill="#C00C3F"/>
<path d="M194.212 101.209H224.301V129.11C218.831 131.298 207.889 133.487 197.495 133.487C164.123 133.487 153.181 116.527 153.181 82.6085C153.181 49.7839 163.576 30.6363 196.948 30.6363C215.548 30.6363 225.943 36.6541 234.696 47.5957L257.673 26.2597C243.449 6.01793 219.378 0 196.401 0C144.975 0 117.622 28.4479 117.622 82.0614C117.622 135.675 142.24 164.67 195.853 164.67C220.472 164.67 245.09 158.105 258.22 149.352V71.667H194.212V101.209Z" fill="#6D6E71"/>
<path d="M37.2012 2.73535H0V161.934H113.245V131.298H37.2012V2.73535Z" fill="#6D6E71"/>
<path d="M372.558 2.73511H322.227V162.481H372.558C415.777 162.481 443.131 135.127 443.131 82.6082C443.131 32.2772 417.419 2.73511 372.558 2.73511ZM371.464 141.692H345.752V22.977H372.011C403.742 22.977 420.154 44.86 420.154 82.6082C419.607 120.356 401.553 141.692 371.464 141.692Z" fill="#C00C3F"/>
<path d="M510.968 163.575C547.622 163.575 565.676 138.957 565.676 103.397C565.676 67.2898 547.622 43.2185 510.421 43.2185C473.767 43.2185 455.166 67.2898 455.166 103.397C456.261 139.504 474.314 163.575 510.968 163.575ZM510.968 62.9131C533.945 62.9131 543.793 80.4197 543.793 103.397C543.793 126.374 534.492 143.88 510.968 143.88C487.444 143.88 478.144 126.374 478.144 103.397C478.144 79.8726 487.991 62.9131 510.968 62.9131Z" fill="#C00C3F"/>
<path d="M634.061 163.575C670.715 163.575 688.768 138.957 688.768 103.397C688.768 67.2898 670.715 43.2185 633.514 43.2185C596.313 43.2185 578.259 67.2898 578.259 103.397C579.353 139.504 597.407 163.575 634.061 163.575ZM634.061 62.9131C657.038 62.9131 666.885 80.4197 666.885 103.397C666.885 126.374 657.585 143.88 634.061 143.88C610.537 143.88 601.236 126.374 601.236 103.397C601.236 79.8726 611.084 62.9131 634.061 62.9131Z" fill="#C00C3F"/>
<path d="M768.094 45.4058C761.529 45.4058 746.211 45.4058 740.74 45.4058C716.122 45.4058 704.086 61.271 703.539 84.2482V162.48H725.422V83.7011C725.422 71.1183 730.346 65.1005 741.834 65.1005H757.699L768.094 45.4058Z" fill="#C00C3F"/>
<path d="M1052.03 161.934V2.18799H1100.72C1144.48 2.18799 1168.01 30.6358 1168.01 82.0609C1168.01 133.486 1142.84 161.934 1100.72 161.934H1052.03ZM1070.08 145.522H1099.62C1131.35 145.522 1149.41 123.092 1149.41 82.608C1149.41 40.4832 1132.45 19.6943 1099.62 19.6943H1070.08V145.522Z" fill="#C00C3F"/>
<path d="M851.249 45.4072H833.743V162.481H851.249V45.4072Z" fill="#C00C3F"/>
<path d="M851.249 2.73511H833.743V18.0533H851.249V2.73511Z" fill="#C00C3F"/>
<path d="M945.346 161.934V77.6839C945.346 66.7424 939.875 60.7245 927.839 60.7245H891.732V161.386H874.226V44.3123H931.122C951.911 44.3123 962.852 58.5363 962.852 75.4956V161.386H945.346V161.934Z" fill="#C00C3F"/>
<path d="M1181.68 103.397C1181.68 64.0074 1202.47 43.2185 1233.66 43.2185C1265.39 43.2185 1285.63 63.4603 1285.63 103.397C1285.63 143.333 1264.84 163.575 1233.66 163.575C1202.47 163.575 1181.68 142.786 1181.68 103.397ZM1199.19 103.397C1199.19 134.58 1212.87 147.71 1233.66 147.71C1254.44 147.71 1268.12 134.58 1268.12 103.397C1268.12 72.2135 1254.44 59.0837 1233.66 59.0837C1212.87 59.0837 1199.19 72.2135 1199.19 103.397Z" fill="#C00C3F"/>
<path d="M1298.21 103.397C1298.21 64.0074 1319 43.2185 1350.18 43.2185C1381.91 43.2185 1402.15 63.4603 1402.15 103.397C1402.15 143.333 1381.37 163.575 1350.18 163.575C1319 163.575 1298.21 142.786 1298.21 103.397ZM1316.26 103.397C1316.26 134.58 1329.94 147.71 1350.73 147.71C1371.52 147.71 1385.19 134.58 1385.19 103.397C1385.19 72.2135 1371.52 59.0837 1350.73 59.0837C1329.94 59.0837 1316.26 72.2135 1316.26 103.397Z" fill="#C00C3F"/>
<path d="M1476.56 45.4058H1452.49C1429.51 45.4058 1416.38 59.0826 1416.38 83.154V162.48H1433.89V83.154C1433.89 68.93 1441 61.818 1454.13 61.818H1468.35L1476.56 45.4058Z" fill="#C00C3F"/>
<path d="M815.69 96.8323H761.529V109.962H815.69V96.8323Z" fill="#C00C3F"/>
<path d="M1035.07 96.8323H980.905V109.962H1035.07V96.8323Z" fill="#C00C3F"/>
<path d="M1534 25.7133C1534 29.5429 1533.45 32.2782 1532.36 35.5606C1531.26 38.296 1529.62 40.4844 1527.44 42.6727C1525.25 44.314 1523.06 45.9551 1519.78 47.0493C1517.04 48.1434 1513.76 48.6906 1510.48 48.6906C1507.19 48.6906 1503.91 48.1434 1501.18 47.0493C1498.44 45.9551 1495.7 44.314 1494.06 42.6727C1491.88 41.0315 1490.23 38.296 1489.14 35.5606C1488.05 32.8253 1487.5 29.5429 1487.5 25.7133C1487.5 21.8838 1488.05 19.1484 1489.14 16.413C1490.23 13.6776 1491.88 11.4894 1494.06 9.30107C1496.25 7.11277 1498.44 6.01868 1501.18 4.92453C1503.91 3.83038 1507.19 3.2832 1510.48 3.2832C1513.76 3.2832 1517.04 3.83038 1519.78 4.92453C1522.51 6.01868 1525.25 7.65984 1527.44 9.30107C1529.62 11.4894 1531.26 13.6776 1532.36 16.413C1533.45 19.1484 1534 22.4309 1534 25.7133ZM1528.53 25.7133C1528.53 20.2426 1526.89 16.4131 1523.61 13.1307C1520.32 9.84821 1515.95 8.20685 1510.48 8.20685C1507.74 8.20685 1505.01 8.75399 1502.82 9.30107C1500.63 10.3952 1498.99 11.4894 1497.35 13.1307C1495.7 14.7719 1494.61 16.4131 1494.06 18.6014C1493.52 20.7897 1492.97 22.978 1492.97 25.7133C1492.97 31.1841 1494.61 35.0136 1497.89 38.296C1501.18 41.5785 1505.55 43.2198 1511.02 43.2198C1516.49 43.2198 1520.87 41.5785 1524.15 38.296C1526.89 35.5606 1528.53 31.1841 1528.53 25.7133ZM1514.85 37.7491L1510.48 28.9958H1508.29V37.7491H1501.18V13.6776H1511.57C1514.31 13.6776 1517.04 14.2248 1518.68 15.3189C1520.32 16.4131 1521.42 18.6014 1521.42 20.7897C1521.42 22.4309 1520.87 24.0721 1520.32 25.1662C1519.78 26.2604 1518.68 27.3545 1517.59 27.9016L1523.06 37.7491H1514.85ZM1511.57 24.0722C1512.12 24.0722 1512.66 24.0722 1513.21 23.5251C1513.76 22.978 1513.76 22.431 1513.76 21.3368C1513.76 20.2427 1513.76 19.6955 1513.21 19.6955C1512.66 19.1484 1512.12 19.1484 1511.57 19.1484H1508.29V24.0722H1511.57Z" fill="#C00C3F"/>
</svg>
