<svg width="974" height="357" viewBox="0 0 974 357" fill="none" xmlns="http://www.w3.org/2000/svg">
<path d="M336.507 338.793H19.9351V270.784H336.507V338.793Z" fill="#00AEEF"/>
<path d="M178.21 46.3876C243.299 46.3876 301.008 78.4953 336.507 127.65V17.0913H19.9351V127.605C55.3897 78.4507 113.098 46.3876 178.21 46.3876Z" fill="#00AEEF"/>
<path d="M178.21 54.197C112.273 54.197 54.1187 87.8889 19.9351 138.962V263.02H336.53V139.029C302.324 87.9112 244.125 54.197 178.21 54.197Z" fill="#00AEEF"/>
<path d="M178.21 54.1971C244.125 54.1971 302.346 87.9113 336.507 139.029V127.672C301.008 78.4954 243.299 46.3877 178.21 46.3877C113.098 46.3877 55.3897 78.4508 19.9351 127.605V138.962C54.1187 87.8889 112.273 54.1971 178.21 54.1971Z" fill="white"/>
<path d="M195.826 218.149C195.826 217.034 196.093 215.204 196.985 212.526C199.304 205.989 205.035 196.685 215.203 187.135C207.577 205.52 200.397 216.342 197.765 218.395C196.918 219.019 196.316 219.332 196.004 219.399C195.915 219.198 195.826 218.841 195.826 218.149ZM179.347 187.202C175.958 195.948 171.119 205.721 165.366 210.362C165.076 210.563 164.853 210.741 164.63 210.898C164.875 207.283 169.29 197.577 179.347 187.202ZM181.287 173.368C176.426 177.652 172.033 179.638 170.472 179.638C170.517 179.147 170.717 178.076 171.698 176.068C174.53 176.179 177.764 175.287 181.287 173.368ZM188.801 160.047C189.716 159.824 190.34 159.802 190.741 159.869C190.608 160.047 190.474 160.226 190.184 160.494C184.476 165.826 179.414 169.173 175.445 170.512C181.688 162.368 187.062 160.449 188.801 160.047ZM133.434 168.638C134.259 168.214 134.817 168.08 135.151 168.08C135.017 168.682 134.415 170.11 131.94 172.252C130.134 173.837 128.462 175.242 126.923 176.492C129.487 171.159 132.386 169.173 133.434 168.638ZM84.2214 155.518C85.1802 155.563 85.2917 155.942 85.3809 156.12C85.4478 156.344 85.5147 156.634 85.5147 156.968C85.5147 159.133 83.597 163.64 77.7771 169.575C69.9949 177.563 62.6364 182.516 56.1029 185.528C67.6312 163.26 79.4495 155.317 84.2214 155.518ZM51.108 184.301C50.4168 185.618 49.9485 186.845 49.5248 187.983C36.837 191.798 28.3412 188.429 27.8061 188.161C26.5127 187.626 25.041 188.25 24.5059 189.5C23.9707 190.772 24.5728 192.222 25.8215 192.78C26.4235 193.048 35.2315 196.64 48.3876 193.472C48.3876 193.628 48.3653 193.829 48.3653 194.007C48.3653 197.689 49.9039 200.21 51.9777 201.526C57.6861 205.23 70.2625 202.062 88.5696 183.431C87.3431 186.822 86.2951 190.526 85.6262 194.319C85.5816 194.52 85.5816 194.654 85.5816 194.81C85.5816 195.837 86.2059 196.841 87.1648 197.198C89.1493 198.001 90.3088 196.35 91.29 194.944L93.832 191.151C96.0396 187.849 100.99 180.419 104.312 176.536C103.911 178.678 103.487 181.088 103.487 183.364C103.487 186.465 104.245 189.299 106.743 190.772C108.794 191.954 112.161 192.401 119.408 188.05C120.055 189.723 121.259 190.526 121.95 190.861C126.589 193.003 135.33 188.362 144.45 179.638C143.223 182.382 142.264 184.68 142.019 185.662C141.975 185.908 141.93 186.198 141.93 186.421C141.93 187.581 142.621 188.429 143.424 188.786C145.453 189.678 146.68 187.916 147.705 186.488L150.47 182.494C152.767 179.147 158.119 171.248 161.218 167.946C162.155 170.222 163.805 173.078 166.793 174.751C165.923 176.715 165.5 178.388 165.5 179.816C165.5 181.534 166.124 182.851 167.439 183.743C169.781 185.35 173.371 184.48 177.072 182.472C165.232 194.23 159.791 205.9 159.613 211.121C159.613 211.21 159.613 211.322 159.613 211.411C159.613 214.311 161.017 215.449 161.909 215.896C163.716 216.81 165.901 216.275 168.465 214.222C177.34 207.149 183.851 190.326 187.174 180.039C191.611 176.403 196.829 172.877 202.805 169.642C200.887 173.056 199.772 176.269 199.772 178.879C199.772 179.839 199.928 180.687 200.196 181.467C200.887 183.319 202.359 184.457 204.232 184.658C208.357 185.082 214.066 180.753 220.733 172.476C220.153 174.149 219.618 175.733 219.038 177.295C200.419 191.999 192.035 207.707 190.964 216.23C190.875 216.922 190.808 217.547 190.808 218.105C190.808 221.541 192.169 223.125 193.44 223.839C194.844 224.642 197.253 225.044 200.798 222.299C204.767 219.287 214.177 204.561 223.297 180.24C235.361 170.958 251.929 162.056 273.982 155.964C275.074 155.652 275.833 154.648 275.833 153.555C275.833 153.309 275.788 153.108 275.721 152.863C275.342 151.546 273.982 150.765 272.599 151.122C253.378 156.477 238.126 163.93 226.218 172.007C227.646 167.79 229.05 163.305 230.411 158.642C230.455 158.419 230.522 158.196 230.522 157.95C230.522 156.991 229.965 156.098 229.05 155.697C227.913 155.183 226.575 155.563 225.906 156.611C213.531 176.157 206.462 179.682 204.923 179.66C204.812 179.526 204.79 179.259 204.79 178.902C204.79 176.67 206.663 171.114 212.817 164.599C213.285 164.131 213.531 163.528 213.531 162.881C213.531 162.413 213.352 161.922 213.062 161.475C212.371 160.494 211.1 160.137 210.03 160.605C202.181 163.908 195.424 167.879 189.537 172.052C189.604 171.784 189.649 171.605 189.693 171.538C189.693 171.315 189.783 171.137 189.783 170.936C189.783 170.021 189.225 169.129 188.422 168.705C188.378 168.682 188.311 168.682 188.289 168.66C190.006 167.344 191.767 165.826 193.596 164.108C195.58 162.279 196.093 160.628 196.093 159.378C196.093 158.843 195.982 158.396 195.87 158.039C195.29 156.299 193.663 155.139 191.433 154.849C185.925 154.224 177.184 158.865 169.357 170.4C166.659 168.995 165.611 165.469 165.165 163.863L164.964 163.238C164.63 162.189 163.693 161.542 162.578 161.542C160.884 161.565 159.078 162.725 156.246 166.072C156.268 165.96 156.313 165.871 156.379 165.849C156.491 165.492 156.602 165.112 156.602 164.755C156.602 163.908 156.156 163.082 155.398 162.613C154.283 161.944 152.856 162.234 152.12 163.26C138.184 182.003 126.009 187.202 124.113 186.265C124.113 186.198 124.069 186.064 124.069 185.751C124.069 185.528 124.113 185.194 124.18 184.837C127.28 182.605 130.937 179.705 135.307 175.889C139.343 172.431 140.258 169.597 140.258 167.745C140.258 166.875 140.079 166.206 139.901 165.826C139.076 163.908 137.091 162.814 134.683 163.06C129.554 163.506 123.065 169.53 119.832 181.847C111.782 187.38 109.575 186.532 109.307 186.376C108.192 185.707 108.304 182.226 109.53 176.068C110.11 173.323 110.355 172.074 109.709 170.958C109.129 169.82 108.103 169.151 106.854 169.084C104.245 168.972 101.235 171.717 95.0584 180.419C97.489 174.64 99.8972 170.624 99.9641 170.579C100.209 170.155 100.321 169.731 100.321 169.307C100.321 168.482 99.9641 167.723 99.2283 167.232C98.1802 166.451 96.7308 166.697 95.8835 167.678C73.9417 194.498 59.024 200.031 54.765 197.309C53.873 196.685 53.4048 195.547 53.4048 194.007C53.4048 193.36 53.494 192.624 53.6724 191.865C61.8782 188.942 71.3551 183.342 81.4117 173.011C87.3431 166.942 90.5541 161.252 90.5541 156.901C90.5541 155.942 90.3534 155.027 90.0636 154.224C89.1716 151.97 87.1202 150.609 84.5112 150.475C76.5952 150.163 63.2384 160.449 51.108 184.301Z" fill="white"/>
<path d="M267.292 99.8262C265.687 99.8262 264.349 100.741 263.769 102.191C263.769 102.191 250.078 137.356 248.472 141.417C244.191 141.64 206.685 143.603 206.685 143.603C204.723 143.715 203.117 145.366 203.117 147.329C203.117 147.419 203.117 147.463 203.117 147.53C203.251 149.605 205.013 151.212 207.064 151.1L251.26 148.757C252.731 148.668 254.025 147.731 254.56 146.37C254.56 146.37 262.944 124.861 267.225 113.883C271.484 124.861 279.846 146.236 279.846 146.236C280.359 147.597 281.608 148.534 283.057 148.601C283.057 148.601 305.891 149.918 317.576 150.565C308.567 158.062 290.929 172.721 290.929 172.721C290.037 173.435 289.546 174.484 289.546 175.577C289.546 175.912 289.613 176.202 289.658 176.514C289.658 176.514 295.322 198.671 298.243 210.005C288.431 203.646 269.255 191.33 269.255 191.33C268.028 190.526 266.467 190.526 265.241 191.33C265.241 191.33 245.886 203.646 235.874 210.028C238.929 198.983 244.436 179.147 244.436 179.147C244.503 178.812 244.526 178.455 244.526 178.121C244.526 176.492 243.478 174.997 241.805 174.528C239.821 173.993 237.725 175.153 237.212 177.161L226.107 217.391C225.683 218.886 226.241 220.47 227.445 221.385C228.694 222.299 230.388 222.322 231.704 221.496C231.704 221.496 263.613 201.192 267.225 198.871C270.816 201.192 302.19 221.452 302.19 221.452C303.527 222.299 305.133 222.255 306.426 221.362C307.385 220.626 307.965 219.488 307.965 218.328C307.965 217.993 307.92 217.681 307.853 217.368C307.853 217.368 298.533 181.044 297.507 176.938C300.74 174.216 329.594 150.252 329.594 150.252C330.486 149.516 330.977 148.445 330.977 147.374C330.977 146.95 330.932 146.593 330.754 146.192C330.308 144.741 328.992 143.715 327.432 143.648C327.432 143.648 290.193 141.506 285.889 141.26C284.328 137.244 270.682 102.169 270.682 102.169C270.213 100.763 268.809 99.8262 267.292 99.8262Z" fill="white"/>
<path d="M33.5591 326.008V286.403H53.9622V290.754H38.5986V303.539H52.8696V307.89H38.5986V321.59H54.2967V326.008H33.5591Z" fill="white"/>
<path d="M87.767 286.403V326.008H80.8545L65.2232 291.669H65.1117V326.008H60.6074V286.403H67.743L83.1735 320.341H83.2627V286.403H87.767Z" fill="white"/>
<path d="M94.7686 326.008V286.403H115.172V290.754H99.7857V303.539H114.057V307.89H99.7857V321.59H115.506V326.008H94.7686Z" fill="white"/>
<path d="M132.543 307.801C134.282 307.801 138.14 308.002 138.496 312.844C138.942 318.109 138.63 323.286 140.035 326.008H145.342C144.562 323.531 144.004 317.328 143.959 315.633C143.67 307.667 142.02 306.15 137.493 305.458V305.347C142.131 304.521 144.673 300.973 144.673 296.288C144.673 291.334 142.265 286.426 135.196 286.426H121.572V326.03H126.589V307.823H132.543V307.801ZM126.589 290.754H134.26C138.117 290.754 139.544 293.989 139.544 296.823C139.544 300.259 137.805 303.383 134.17 303.383H126.589V290.754Z" fill="white"/>
<path d="M169.112 297.024C169.112 292.316 167.217 289.795 162.11 289.795C160.549 289.795 154.819 290.085 154.819 298.385V311.773C154.819 320.407 157.361 322.594 162.11 322.594C165.723 322.594 168.153 321.59 169.179 320.831V309.006H161.887V304.61H174.218V323.888C170.963 325.651 167.194 326.833 162.088 326.833C153.682 326.833 149.646 322.483 149.646 311.505V298.519C149.646 290.598 153.682 285.578 162.088 285.578C170.651 285.578 174.709 288.701 174.397 297.024H169.112Z" fill="white"/>
<path d="M198.413 286.403H203.497L192.682 310.902V326.008H187.665V310.902L177.028 286.403H182.67L190.385 305.547L198.413 286.403Z" fill="white"/>
<path d="M220.555 314.205V315.343C220.555 320.742 223.967 322.483 227.155 322.483C231.169 322.483 234.246 320.72 234.246 316.057C234.246 307.243 216.519 308.247 216.519 296.332C216.519 289.304 221.469 285.578 228.114 285.578C235.339 285.578 239.397 289.081 239.085 297.158H233.823C233.867 292.852 232.507 289.951 227.757 289.951C224.725 289.951 221.648 291.535 221.648 295.797C221.648 304.521 239.42 303.249 239.42 315.811C239.42 324.156 233.667 326.833 227.133 326.833C215.471 326.967 215.471 317.998 215.56 314.205H220.555Z" fill="white"/>
<path d="M267.582 286.403V290.754H257.147V326.008H252.107V290.754H241.694V286.403H267.582Z" fill="white"/>
<path d="M263.413 326.008H268.497L271.462 316.57H286.759L289.613 326.008H295.255L282.411 286.403H275.944L263.413 326.008ZM285.377 312.219H272.711L278.91 291.089H278.977L285.377 312.219Z" fill="white"/>
<path d="M310.106 307.801C311.8 307.801 315.703 308.002 316.082 312.844C316.505 318.109 316.216 323.286 317.62 326.008H322.883C322.147 323.531 321.59 317.328 321.523 315.633C321.255 307.667 319.605 306.15 315.034 305.458V305.347C319.694 304.521 322.281 300.973 322.281 296.288C322.281 291.334 319.806 286.426 312.804 286.426H299.157V326.03H304.174V307.823H310.106V307.801ZM304.174 290.754H311.801C315.725 290.754 317.108 293.989 317.108 296.823C317.108 300.259 315.391 303.383 311.778 303.383H304.174V290.754Z" fill="white"/>
<path d="M367.524 308.537H375.128L378.874 329.199H378.986L384.248 308.537H392.187L397.025 329.199H397.137L401.262 308.537H408.598L401.151 336.004H393.101L388.151 317.239H388.039L382.487 336.004H374.325L367.524 308.537Z" fill="#00AEEF"/>
<path d="M409.825 308.537H417.429L421.175 329.199H421.286L426.549 308.537H434.487L439.326 329.199H439.437L443.562 308.537H450.899L443.451 336.004H435.401L430.451 317.239H430.339L424.787 336.004H416.626L409.825 308.537Z" fill="#00AEEF"/>
<path d="M452.125 308.537H459.729L463.475 329.199H463.586L468.849 308.537H476.787L481.626 329.199H481.737L485.863 308.537H493.199L485.751 336.004H477.724L472.773 317.239H472.662L467.11 336.004H458.948L452.125 308.537Z" fill="#00AEEF"/>
<path d="M501.093 328.842V336.026H494.559V328.842H501.093Z" fill="#00AEEF"/>
<path d="M513.981 323.509C513.981 326.767 514.093 331.675 517.46 331.675C520.18 331.675 520.716 329.065 520.716 326.789H528.498C528.386 329.779 527.405 332.233 525.554 333.907C523.77 335.602 521.05 336.562 517.46 336.562C507.559 336.562 506.266 330.515 506.266 321.925C506.266 314.428 507.359 308.002 517.46 308.002C527.784 308.002 528.921 314.695 528.654 323.509H513.981ZM521.005 319.203C521.005 316.547 521.117 312.732 517.482 312.732C513.959 312.732 514.004 316.86 514.004 319.203H521.005Z" fill="#00AEEF"/>
<path d="M541.765 311.326H541.877C542.635 310.077 543.572 309.251 544.597 308.76C545.69 308.225 546.939 308.002 548.344 308.002C551.978 308.002 555.189 310.188 555.189 313.981V336.004H547.518V317.083C547.518 314.629 547.072 312.732 544.642 312.732C542.189 312.732 541.765 314.629 541.765 317.083V336.004H534.095V308.537H541.765V311.326Z" fill="#00AEEF"/>
<path d="M568.345 323.509C568.345 326.767 568.457 331.675 571.824 331.675C574.544 331.675 575.079 329.065 575.079 326.789H582.862C582.75 329.779 581.769 332.233 579.918 333.907C578.134 335.602 575.414 336.562 571.824 336.562C561.923 336.562 560.63 330.515 560.63 321.925C560.63 314.428 561.723 308.002 571.824 308.002C582.148 308.002 583.285 314.695 583.018 323.509H568.345ZM575.369 319.203C575.369 316.547 575.481 312.732 571.846 312.732C568.323 312.732 568.367 316.86 568.367 319.203H575.369Z" fill="#00AEEF"/>
<path d="M595.75 308.537V312.063H595.862C597.266 308.917 599.875 307.979 602.975 307.979V314.829C596.241 314.383 596.129 318.31 596.129 321.032V335.982H588.458V308.515H595.75V308.537Z" fill="#00AEEF"/>
<path d="M627.548 308.537V337.142C627.548 339.038 627.659 346.558 617.112 346.558C611.403 346.558 606.52 345.085 606.342 338.391H613.834C613.834 339.529 613.99 340.511 614.481 341.158C614.971 341.872 615.841 342.251 617.045 342.251C618.94 342.251 619.877 340.466 619.877 337.677V332.412H619.765C618.628 334.531 616.443 335.625 613.945 335.625C605.517 335.625 605.896 327.904 605.896 321.702C605.896 315.655 606.007 308.002 613.99 308.002C616.71 308.002 619.052 309.207 620.122 311.75H620.234V308.537H627.548ZM616.733 330.894C619.498 330.894 619.877 328.016 619.877 322.192C619.877 316.146 619.609 312.732 616.777 312.732C613.901 312.732 613.41 314.74 613.41 323.13C613.41 325.673 613.031 330.894 616.733 330.894Z" fill="#00AEEF"/>
<path d="M638.63 336.227L631.183 308.537H638.786L642.711 327.86H642.822L646.948 308.537H654.351L643.759 346.402H635.709L638.63 336.227Z" fill="#00AEEF"/>
<path d="M663.916 327.213C663.872 328.462 663.917 329.667 664.296 330.537C664.742 331.407 665.544 331.854 667.061 331.854C668.577 331.854 669.893 330.872 669.893 329.02C669.893 323.196 656.402 324.513 656.402 315.744C656.402 309.809 662.266 308.024 667.217 308.024C672.435 308.024 677.162 310.523 676.738 316.458H669.246C669.246 314.561 669.023 313.401 668.488 312.933C667.997 312.442 667.351 312.33 666.525 312.33C664.831 312.33 663.916 313.424 663.916 315.275C663.916 319.626 677.407 319.403 677.407 328.217C677.407 333.014 673.483 336.584 667.128 336.584C660.438 336.584 655.978 334.888 656.424 327.235H663.916V327.213Z" fill="#00AEEF"/>
<path d="M678.923 308.537H682.023V304.186L689.694 300.75V308.537H693.663V313.268H689.694V327.949C689.694 330.024 689.649 331.385 692.146 331.385C692.637 331.385 693.128 331.385 693.507 331.274V336.004C692.481 336.116 691.388 336.272 689.537 336.272C682.915 336.272 682.045 331.876 682.045 330.18V313.268H678.946V308.537H678.923Z" fill="#00AEEF"/>
<path d="M717.946 330.894C717.946 332.59 718.169 334.33 718.325 336.004H711.212L710.877 332.367H710.766C709.138 335.201 706.908 336.562 703.586 336.562C698.256 336.562 696.294 332.59 696.294 327.793C696.294 318.712 703.318 318.332 710.431 318.444V316.324C710.431 313.981 710.097 312.308 707.332 312.308C704.678 312.308 704.455 314.316 704.455 316.503H696.963C696.963 313.178 697.989 311.058 699.795 309.809C701.534 308.492 704.032 308.024 706.975 308.024C716.697 308.024 717.946 312.219 717.946 317.217V330.894ZM703.831 327.48C703.831 329.444 704.165 331.831 706.663 331.831C711.167 331.831 710.476 325.74 710.476 322.75C706.64 322.906 703.831 322.572 703.831 327.48Z" fill="#00AEEF"/>
<path d="M731.592 308.537V312.063H731.704C733.109 308.917 735.718 307.979 738.817 307.979V314.829C732.083 314.383 731.972 318.31 731.972 321.032V335.982H724.301V308.515H731.592V308.537Z" fill="#00AEEF"/>
<path d="M744.86 328.842V336.026H738.327V328.842H744.86Z" fill="#00AEEF"/>
<path d="M771.663 308.537V337.142C771.663 339.038 771.775 346.558 761.228 346.558C755.519 346.558 750.636 345.085 750.457 338.391H757.95C757.95 339.529 758.106 340.511 758.596 341.158C759.087 341.872 759.957 342.251 761.161 342.251C763.056 342.251 763.993 340.466 763.993 337.677V332.412H763.881C762.744 334.531 760.559 335.625 758.061 335.625C749.632 335.625 750.011 327.904 750.011 321.702C750.011 315.655 750.123 308.002 758.106 308.002C760.826 308.002 763.168 309.207 764.238 311.75H764.349V308.537H771.663ZM760.848 330.894C763.613 330.894 763.993 328.016 763.993 322.192C763.993 316.146 763.725 312.732 760.893 312.732C758.017 312.732 757.526 314.74 757.526 323.13C757.526 325.673 757.147 330.894 760.848 330.894Z" fill="#00AEEF"/>
<path d="M777.215 321.925C777.215 314.428 778.308 308.002 788.409 308.002C798.51 308.002 799.603 314.428 799.603 321.925C799.603 330.515 798.287 336.562 788.409 336.562C778.531 336.562 777.215 330.515 777.215 321.925ZM791.955 321.501C791.955 315.789 791.687 312.91 788.432 312.91C785.176 312.91 784.908 315.789 784.908 321.501C784.908 329.868 785.622 331.675 788.432 331.675C791.241 331.675 791.955 329.868 791.955 321.501Z" fill="#00AEEF"/>
<path d="M802.435 308.537H810.217L814.075 329.154H814.186L818.2 308.537H825.692L818.133 336.004H809.704L802.435 308.537Z" fill="#00AEEF"/>
<path d="M372.363 93.8465V17.627H398.007L409.936 69.4589H410.137L422.78 17.627H447.576V93.8465H432.079V35.053H431.878L417.206 93.8465H402.02L388.084 35.053H387.883V93.8465H372.363Z" fill="#00AEEF"/>
<path d="M458.547 66.4911C458.547 51.9211 460.665 39.4707 480.288 39.4707C499.911 39.4707 502.029 51.9211 502.029 66.4911C502.029 83.1586 499.487 94.895 480.288 94.895C461.089 94.895 458.547 83.1809 458.547 66.4911ZM487.134 65.6656C487.134 54.5763 486.598 48.9981 480.266 48.9981C473.933 48.9981 473.398 54.5986 473.398 65.6656C473.398 81.9314 474.758 85.4121 480.266 85.4121C485.773 85.4121 487.134 81.9091 487.134 65.6656Z" fill="#00AEEF"/>
<path d="M524.261 76.7327C524.149 79.1648 524.261 81.4853 524.996 83.181C525.844 84.8768 527.427 85.7247 530.37 85.7247C533.314 85.7247 535.856 83.8281 535.856 80.2358C535.856 68.9457 509.7 71.467 509.7 54.4872C509.7 42.9739 521.094 39.4932 530.683 39.4932C540.806 39.4932 549.993 44.3573 549.146 55.8482H534.585C534.585 52.1444 534.161 49.9354 533.113 48.976C532.154 48.0165 530.906 47.8157 529.322 47.8157C526.045 47.8157 524.261 49.9354 524.261 53.5054C524.261 61.9395 550.417 61.5379 550.417 78.6293C550.417 87.9113 542.813 94.8951 530.482 94.8951C517.504 94.8951 508.852 91.6152 509.7 76.7327H524.261Z" fill="#00AEEF"/>
<path d="M553.383 40.5418H559.403V32.1077L574.277 25.4363V40.5418H581.97V49.7346H574.277V78.2277C574.277 82.2439 574.165 84.8768 579.026 84.8768C579.985 84.8768 580.922 84.8768 581.657 84.676V93.8687C579.65 94.0695 577.532 94.4042 573.964 94.4042C561.098 94.4042 559.403 85.8585 559.403 82.5786V49.7123H553.383V40.5418Z" fill="#00AEEF"/>
<path d="M612.875 93.8465V17.627H654.439V29.341H628.796V48.1281H652.433V59.8422H628.796V82.1101H655.265V93.8241H612.875V93.8465Z" fill="#00AEEF"/>
<path d="M687.04 26.8195C681.02 26.3956 679.771 28.7161 679.771 34.0934V40.5417H686.728V49.7345H679.749V93.8463H664.875V49.7122H658.23V40.5194H664.987C664.875 25.213 663.604 17.0913 681.755 17.0913C683.539 17.0913 685.234 17.2029 687.04 17.2921V26.8195Z" fill="#00AEEF"/>
<path d="M715.627 26.8195C709.606 26.3956 708.357 28.7161 708.357 34.0934V40.5417H715.315V49.7345H708.357V93.8463H693.484V49.7122H686.839V40.5194H693.596C693.484 25.213 692.213 17.0913 710.364 17.0913C712.148 17.0913 713.843 17.2029 715.649 17.2921V26.8195H715.627Z" fill="#00AEEF"/>
<path d="M737.457 17.627V29.341H722.584V17.627H737.457ZM737.457 93.8465H722.584V40.5419H737.457V93.8465Z" fill="#00AEEF"/>
<path d="M777.015 59.5296C777.015 51.6087 775.008 48.9758 770.37 48.9758C764.037 48.9758 763.502 54.5763 763.502 65.6433C763.502 81.9091 764.885 85.3898 770.37 85.3898C775.008 85.3898 777.238 81.1728 777.238 74.2113H792.111C792.111 88.6698 784.307 94.895 770.37 94.895C751.171 94.895 748.629 83.1809 748.629 66.4911C748.629 51.9211 750.747 39.4707 770.37 39.4707C784.084 39.4707 791.888 45.5843 791.888 59.5296H777.015Z" fill="#00AEEF"/>
<path d="M818.044 17.627V29.341H803.171V17.627H818.044ZM818.044 93.8465H803.171V40.5419H818.044V93.8465Z" fill="#00AEEF"/>
<path d="M844.223 69.5704C844.223 75.9072 844.423 85.4123 850.979 85.4123C856.264 85.4123 857.312 80.3474 857.312 75.9072H872.408C872.207 81.7084 870.29 86.461 866.722 89.7409C863.243 93.0209 857.958 94.9174 851.001 94.9174C831.802 94.9174 829.26 83.2034 829.26 66.5136C829.26 51.9435 831.379 39.4932 851.001 39.4932C871.048 39.4932 873.255 52.479 872.742 69.5704H844.223ZM857.825 61.2255C857.825 56.049 858.025 48.6636 850.957 48.6636C844.089 48.6636 844.2 56.6961 844.2 61.2255H857.825Z" fill="#00AEEF"/>
<path d="M897.382 45.9192H897.583C899.055 43.4871 900.861 41.9029 902.868 40.9658C904.986 39.9171 907.394 39.4932 910.137 39.4932C917.206 39.4932 923.427 43.7102 923.427 51.0957V93.8464H908.554V57.0977C908.554 52.3452 907.706 48.6636 902.957 48.6636C898.207 48.6636 897.36 52.3675 897.36 57.0977V93.8241H882.487V40.5419H897.36V45.9192H897.382Z" fill="#00AEEF"/>
<path d="M928.511 40.5417H934.531V32.1076L949.405 25.4585V40.5641H957.098V49.7568H949.405V78.2499C949.405 82.2661 949.293 84.899 954.154 84.899C955.113 84.899 956.049 84.899 956.785 84.6982V93.8909C954.778 94.0917 952.66 94.4264 949.092 94.4264C936.226 94.4264 934.531 85.8807 934.531 82.6008V49.7122H928.511V40.5417Z" fill="#00AEEF"/>
<path d="M384.601 273.605V259.097L439.056 199.45C445.447 192.465 450.709 186.393 454.843 181.234C458.98 176.022 462.039 171.132 464.026 166.564C466.066 161.943 467.087 157.107 467.087 152.056C467.087 146.252 465.691 141.228 462.9 136.983C460.159 132.738 456.402 129.46 451.621 127.149C446.842 124.839 441.471 123.683 435.51 123.683C429.173 123.683 423.643 125 418.918 127.633C414.244 130.212 410.621 133.839 408.043 138.515C405.519 143.189 404.257 148.671 404.257 154.958H385.245C385.245 145.285 387.475 136.795 391.932 129.487C396.39 122.179 402.457 116.483 410.137 112.399C417.87 108.315 426.542 106.273 436.155 106.273C445.821 106.273 454.386 108.315 461.852 112.399C469.317 116.483 475.171 121.991 479.412 128.923C483.655 135.854 485.776 143.566 485.776 152.056C485.776 158.128 484.674 164.066 482.473 169.869C480.326 175.619 476.566 182.04 471.195 189.133C465.879 196.172 458.496 204.77 449.043 214.926L411.99 254.583V255.873H488.675V273.605H384.601ZM575.753 275.863C563.615 275.863 553.278 272.558 544.74 265.947C536.202 259.285 529.677 249.639 525.166 237.012C520.655 224.33 518.398 209.015 518.398 191.068C518.398 173.227 520.655 157.994 525.166 145.366C529.731 132.684 536.282 123.012 544.82 116.349C553.414 109.632 563.725 106.273 575.753 106.273C587.783 106.273 598.067 109.632 606.605 116.349C615.196 123.012 621.748 132.684 626.259 145.366C630.823 157.994 633.107 173.227 633.107 191.068C633.107 209.015 630.85 224.33 626.339 237.012C621.83 249.639 615.303 259.285 606.765 265.947C598.227 272.558 587.89 275.863 575.753 275.863ZM575.753 258.129C587.783 258.129 597.126 252.325 603.786 240.718C610.445 229.112 613.774 212.562 613.774 191.068C613.774 176.774 612.244 164.603 609.182 154.555C606.174 144.506 601.826 136.849 596.133 131.582C590.494 126.317 583.702 123.683 575.753 123.683C563.832 123.683 554.513 129.567 547.801 141.335C541.089 153.05 537.731 169.627 537.731 191.068C537.731 205.361 539.236 217.505 542.242 227.501C545.25 237.494 549.574 245.098 555.211 250.311C560.904 255.523 567.752 258.129 575.753 258.129ZM663.716 273.605V259.097L718.171 199.45C724.56 192.465 729.824 186.393 733.958 181.234C738.093 176.022 741.154 171.132 743.141 166.564C745.181 161.943 746.203 157.107 746.203 152.056C746.203 146.252 744.807 141.228 742.013 136.983C739.274 132.738 735.515 129.46 730.736 127.149C725.958 124.839 720.586 123.683 714.626 123.683C708.288 123.683 702.758 125 698.031 127.633C693.359 130.212 689.736 133.839 687.158 138.515C684.634 143.189 683.372 148.671 683.372 154.958H664.36C664.36 145.285 666.59 136.795 671.048 129.487C675.505 122.179 681.572 116.483 689.252 112.399C696.985 108.315 705.657 106.273 715.27 106.273C724.936 106.273 733.501 108.315 740.967 112.399C748.43 116.483 754.284 121.991 758.527 128.923C762.77 135.854 764.891 143.566 764.891 152.056C764.891 158.128 763.789 164.066 761.589 169.869C759.439 175.619 755.682 182.04 750.31 189.133C744.994 196.172 737.611 204.77 728.159 214.926L691.105 254.583V255.873H767.79V273.605H663.716ZM856.801 275.863C846.169 275.863 836.69 274.036 828.366 270.381C820.095 266.728 813.517 261.65 808.632 255.148C803.797 248.59 801.166 240.988 800.736 232.336H821.036C821.465 237.657 823.291 242.251 826.513 246.12C829.735 249.936 833.952 252.89 839.161 254.985C844.37 257.082 850.143 258.129 856.48 258.129C863.569 258.129 869.85 256.893 875.329 254.423C880.805 251.951 885.102 248.51 888.217 244.106C891.333 239.699 892.889 234.594 892.889 228.79C892.889 222.718 891.386 217.371 888.378 212.75C885.37 208.075 880.968 204.421 875.168 201.788C869.369 199.155 862.28 197.838 853.902 197.838H840.69V180.106H853.902C860.454 180.106 866.2 178.923 871.139 176.559C876.134 174.195 880.027 170.863 882.819 166.564C885.667 162.266 887.089 157.214 887.089 151.411C887.089 145.823 885.854 140.959 883.383 136.822C880.912 132.684 877.423 129.46 872.912 127.149C868.454 124.839 863.192 123.683 857.124 123.683C851.432 123.683 846.06 124.731 841.014 126.827C836.019 128.869 831.938 131.851 828.77 135.774C825.601 139.643 823.882 144.318 823.614 149.799H804.281C804.602 141.147 807.207 133.571 812.095 127.069C816.98 120.513 823.371 115.408 831.267 111.754C839.214 108.1 847.94 106.273 857.445 106.273C867.649 106.273 876.401 108.342 883.706 112.48C891.009 116.563 896.622 121.964 900.542 128.681C904.462 135.398 906.422 142.652 906.422 150.444C906.422 159.74 903.978 167.666 899.092 174.222C894.258 180.777 887.68 185.318 879.356 187.843V189.133C889.774 190.853 897.911 195.286 903.764 202.433C909.617 209.526 912.543 218.312 912.543 228.79C912.543 237.764 910.101 245.824 905.213 252.97C900.381 260.063 893.774 265.653 885.397 269.736C877.019 273.821 867.489 275.863 856.801 275.863Z" fill="#00AEEF"/>
</svg>
