<?xml version="1.0" encoding="UTF-8"?><svg id="Layer_1" xmlns="http://www.w3.org/2000/svg" viewBox="0 0 150 98.42"><defs><style>.cls-1{fill:#00aeef;}.cls-2{fill:#fff;}</style></defs><rect class="cls-1" x="38.19" y="70.6" width="73.62" height="16.45"/><rect class="cls-2" x="36.38" y="9.82" width="77.25" height="60.78"/><path class="cls-1" d="m75,18.44c15.14,0,28.56,7.45,36.82,18.89V11.64H38.19v25.68c8.24-11.42,21.67-18.88,36.81-18.88Z"/><path class="cls-1" d="m75,20.26c-15.33,0-28.86,7.83-36.81,19.71v28.82h73.62v-28.81c-7.95-11.88-21.48-19.72-36.82-19.72Z"/><path class="cls-2" d="m75,20.26c15.33,0,28.87,7.84,36.82,19.72v-2.64c-8.25-11.43-21.68-18.89-36.82-18.89s-28.56,7.45-36.81,18.88v2.64c7.95-11.87,21.48-19.71,36.81-19.71Z"/><path class="cls-2" d="m45.44,50.5c-.16.3-.27.59-.36.86-2.96.88-4.93.1-5.06.04-.29-.12-.64.01-.76.31-.13.3,0,.63.3.76.14.06,2.19.9,5.25.16,0,.04,0,.08,0,.12,0,.86.36,1.45.84,1.76,1.33.87,4.26.13,8.5-4.21-.27.78-.52,1.64-.68,2.53,0,.04,0,.08,0,.11,0,.24.14.46.37.56.46.19.72-.2.96-.53l.59-.88c.51-.77,1.66-2.49,2.43-3.4-.09.5-.19,1.06-.19,1.59,0,.72.17,1.37.75,1.71.49.28,1.26.38,2.95-.62.14.39.43.58.59.65,1.08.5,3.11-.58,5.23-2.61-.29.64-.5,1.18-.56,1.4-.01.06-.02.12-.02.17,0,.27.16.46.35.55.47.21.76-.2,1-.54l.64-.92c.53-.78,1.78-2.62,2.51-3.38.22.53.6,1.19,1.29,1.58-.2.45-.3.85-.3,1.18,0,.41.15.71.46.92.55.37,1.37.17,2.24-.3-2.75,2.73-4.02,5.46-4.06,6.66,0,.02,0,.05,0,.07,0,.67.33.94.53,1.04.42.21.93.08,1.52-.39,2.07-1.65,3.58-5.56,4.36-7.95,1.03-.84,2.25-1.66,3.64-2.41-.45.79-.71,1.54-.71,2.15,0,.22.03.42.1.6.16.42.5.7.94.74.96.1,2.28-.9,3.84-2.82-.13.38-.27.75-.4,1.12-4.33,3.42-6.28,7.07-6.53,9.05-.02.16-.03.31-.03.45,0,.79.32,1.16.61,1.32.33.19.89.28,1.71-.35.92-.7,3.1-4.13,5.22-9.77,2.81-2.16,6.67-4.23,11.79-5.64.26-.07.43-.31.43-.56,0-.05,0-.1-.02-.15-.09-.31-.41-.49-.72-.41-4.48,1.24-8.02,2.97-10.79,4.85.33-.98.66-2.02.98-3.11.02-.05.02-.11.02-.16,0-.22-.13-.43-.34-.53-.26-.12-.57-.02-.73.22-2.89,4.54-4.52,5.36-4.89,5.35-.02-.04-.04-.1-.04-.18,0-.52.44-1.81,1.87-3.32.1-.11.16-.25.16-.4,0-.12-.04-.23-.11-.33-.16-.22-.45-.31-.7-.2-1.82.77-3.4,1.68-4.76,2.65.01-.06.03-.1.03-.12.01-.05.02-.09.02-.14,0-.21-.12-.41-.32-.51-.01,0-.02,0-.03,0,.4-.31.81-.66,1.24-1.06.46-.42.57-.81.57-1.1,0-.12-.02-.23-.05-.31-.13-.41-.51-.68-1.03-.74-1.28-.15-3.31.94-5.13,3.62-.62-.33-.86-1.14-.98-1.51l-.05-.15c-.08-.24-.3-.4-.55-.39-.39,0-.82.28-1.48,1.05,0-.02.02-.04.03-.05.04-.08.05-.17.05-.25,0-.2-.1-.39-.28-.5-.26-.15-.59-.09-.77.15-3.24,4.36-6.07,5.57-6.51,5.35,0-.01-.01-.04-.01-.12,0-.05,0-.12.02-.21.72-.52,1.58-1.19,2.59-2.07.94-.81,1.15-1.47,1.15-1.91,0-.2-.05-.35-.09-.45-.19-.45-.65-.7-1.21-.65-1.2.1-2.7,1.51-3.46,4.37-1.88,1.28-2.38,1.09-2.45,1.05-.26-.15-.23-.95.06-2.39.13-.64.19-.93.04-1.19-.14-.26-.38-.42-.67-.43-.61-.03-1.3.61-2.74,2.64.57-1.35,1.12-2.28,1.13-2.29.06-.1.08-.2.08-.3,0-.18-.08-.36-.25-.48-.25-.18-.59-.13-.78.11-5.1,6.23-8.57,7.52-9.56,6.88-.21-.14-.31-.41-.31-.77,0-.15.02-.32.06-.5,1.91-.68,4.12-1.99,6.46-4.38,1.38-1.41,2.12-2.73,2.12-3.74,0-.23-.04-.44-.11-.63-.2-.52-.68-.84-1.29-.87-1.83-.08-4.94,2.31-7.76,7.85Zm7.7-6.69c.22.01.25.09.27.14.02.05.03.12.03.2,0,.51-.44,1.55-1.79,2.93-1.81,1.85-3.52,3-5.05,3.7,2.68-5.16,5.42-7.02,6.54-6.97Zm11.44,3.05c.19-.1.32-.12.4-.12-.03.14-.18.47-.74.97-.42.36-.81.69-1.17.98.59-1.24,1.26-1.7,1.51-1.83Zm12.88-2c.21-.05.36-.05.45-.04-.03.04-.06.08-.13.14-1.33,1.24-2.51,2.02-3.44,2.33,1.45-1.89,2.72-2.34,3.11-2.43Zm-1.75,3.1c-1.12.99-2.15,1.45-2.51,1.45,0-.11.05-.36.28-.83.66.02,1.4-.18,2.23-.62Zm-.45,3.21c-.79,2.03-1.91,4.31-3.26,5.38-.07.05-.12.09-.17.13.06-.84,1.09-3.09,3.43-5.5Zm3.83,7.2c0-.27.06-.69.28-1.31.53-1.52,1.87-3.69,4.23-5.9-1.78,4.27-3.44,6.79-4.05,7.26-.2.15-.34.22-.41.24-.02-.05-.04-.14-.04-.29Z"/><path class="cls-2" d="m95.71,30.86c-.36,0-.68.22-.81.55,0,0-3.19,8.17-3.55,9.11-1,.05-9.72.51-9.72.51-.46.02-.82.41-.82.87,0,.01,0,.03,0,.05.02.48.43.85.92.82l10.28-.54c.34-.02.64-.23.76-.55,0,0,1.95-5,2.94-7.56.99,2.55,2.93,7.53,2.93,7.53.12.32.42.53.76.55,0,0,5.31.3,8.02.46-2.09,1.74-6.19,5.15-6.19,5.15-.2.17-.32.41-.32.67,0,.07,0,.15.03.22,0,0,1.32,5.15,2,7.79-2.28-1.47-6.73-4.34-6.73-4.34-.28-.18-.65-.18-.94,0,0,0-4.5,2.87-6.83,4.35.71-2.56,1.99-7.18,1.99-7.18.02-.08.03-.16.03-.23,0-.38-.25-.73-.64-.84-.46-.13-.94.14-1.07.61l-2.58,9.35c-.1.34.03.72.32.93.29.21.68.22.99.03,0,0,7.42-4.72,8.26-5.26.84.54,8.13,5.25,8.13,5.25.3.19.69.18.98-.02.23-.17.36-.43.36-.7,0-.07-.01-.15-.03-.22,0,0-2.17-8.45-2.41-9.4.75-.63,7.47-6.2,7.47-6.2.2-.17.31-.41.31-.67,0-.09-.02-.18-.05-.27-.11-.34-.42-.57-.77-.6,0,0-8.66-.5-9.66-.56-.37-.93-3.54-9.08-3.54-9.08-.13-.33-.45-.55-.81-.55h0Z"/><polygon class="cls-2" points="111.81 70.6 111.81 87.05 38.19 87.05 38.19 70.6 36.38 70.6 36.38 87.05 36.38 88.86 38.19 88.86 111.81 88.86 113.62 88.86 113.62 88.86 113.62 70.6 111.81 70.6"/><path class="cls-2" d="m41.36,83.43v-9.21h4.74v1.02h-3.57v2.96h3.32v1.02h-3.32v3.19h3.65v1.02h-4.82Z"/><path class="cls-2" d="m53.97,74.22v9.21h-1.61l-3.63-7.98h-.03v7.98h-1.05v-9.21h1.66l3.58,7.88h.02v-7.88h1.05Z"/><path class="cls-2" d="m55.59,83.43v-9.21h4.74v1.02h-3.57v2.96h3.32v1.02h-3.32v3.19h3.65v1.02h-4.82Z"/><path class="cls-2" d="m63,75.24h1.77c.9,0,1.24.74,1.24,1.4,0,.81-.41,1.53-1.25,1.53h-1.76v-2.93Zm1.38,3.95c.4,0,1.3.05,1.39,1.17.1,1.22.03,2.42.36,3.06h1.22c-.18-.57-.31-2.02-.32-2.41-.06-1.85-.44-2.2-1.5-2.37v-.03c1.08-.19,1.68-1.02,1.68-2.1,0-1.15-.57-2.3-2.21-2.3h-3.17v9.21h1.17v-4.23h1.38Z"/><path class="cls-2" d="m72.89,76.68c0-1.09-.45-1.67-1.63-1.67-.37,0-1.69.06-1.69,1.99v3.11c0,2.02.59,2.52,1.69,2.52.84,0,1.4-.23,1.65-.41v-2.75h-1.7v-1.02h2.87v4.48c-.75.41-1.63.69-2.82.69-1.95,0-2.89-1.01-2.89-3.56v-3.02c0-1.84.94-3.01,2.89-3.01s2.94.73,2.86,2.65h-1.22Z"/><path class="cls-2" d="m79.7,74.22h1.19l-2.51,5.7v3.51h-1.17v-3.51l-2.48-5.7h1.31l1.8,4.45,1.86-4.45Z"/><path class="cls-2" d="m84.85,80.69v.27c0,1.25.79,1.65,1.54,1.65.93,0,1.65-.4,1.65-1.49,0-2.04-4.13-1.81-4.13-4.58,0-1.63,1.16-2.5,2.71-2.5,1.68,0,2.63.82,2.55,2.69h-1.22c.01-1.01-.31-1.67-1.41-1.67-.7,0-1.42.36-1.42,1.35,0,2.03,4.13,1.74,4.13,4.65,0,1.94-1.34,2.56-2.86,2.56-2.72.02-2.72-2.05-2.69-2.93h1.16Z"/><path class="cls-2" d="m95.78,74.22v1.02h-2.42v8.19h-1.17v-8.19h-2.42v-1.02h6.02Z"/><path class="cls-2" d="m99.92,80.22h-2.95l1.44-4.91h.03l1.48,4.91Zm-5.11,3.21h1.18l.69-2.19h3.56l.66,2.19h1.31l-3-9.21h-1.49l-2.92,9.21Z"/><path class="cls-2" d="m104.3,75.24h1.77c.91,0,1.24.74,1.24,1.4,0,.81-.41,1.53-1.25,1.53h-1.76v-2.93Zm1.38,3.95c.4,0,1.3.05,1.39,1.17.1,1.22.03,2.42.36,3.06h1.22c-.18-.57-.3-2.02-.32-2.41-.06-1.85-.45-2.2-1.51-2.37v-.03c1.08-.19,1.68-1.02,1.68-2.1,0-1.15-.57-2.3-2.21-2.3h-3.18v9.21h1.17v-4.23h1.38Z"/></svg>