<svg width="975" height="357" viewBox="0 0 975 357" fill="none" xmlns="http://www.w3.org/2000/svg">
<path d="M336.853 339.261H19.9556V271.253H336.853V339.261Z" fill="#00AEEF"/>
<path d="M178.393 54.6655C112.389 54.6655 54.1743 88.3574 19.9556 139.431V263.488H336.875V139.498C302.634 88.3797 244.375 54.6655 178.393 54.6655Z" fill="#00AEEF"/>
<path d="M178.393 54.6656C244.375 54.6656 302.656 88.3798 336.853 139.498V128.141C301.317 78.9639 243.549 46.8562 178.393 46.8562C113.215 46.8562 55.4467 78.9193 19.9556 128.074V139.431C54.1743 88.3575 112.389 54.6656 178.393 54.6656Z" fill="white"/>
<path d="M196.027 218.618C196.027 217.502 196.295 215.673 197.188 212.995C199.509 206.458 205.246 197.153 215.424 187.604C207.79 205.989 200.603 216.811 197.969 218.863C197.121 219.488 196.518 219.801 196.206 219.867C196.116 219.667 196.027 219.31 196.027 218.618ZM179.531 187.671C176.139 196.417 171.295 206.19 165.536 210.831C165.246 211.032 165.023 211.21 164.799 211.366C165.045 207.752 169.464 198.046 179.531 187.671ZM181.473 173.837C176.607 178.121 172.21 180.107 170.648 180.107C170.692 179.616 170.893 178.545 171.875 176.537C174.71 176.648 177.947 175.756 181.473 173.837ZM188.996 160.516C189.911 160.293 190.536 160.271 190.938 160.338C190.804 160.516 190.67 160.695 190.38 160.962C184.665 166.295 179.598 169.642 175.625 170.981C181.875 162.837 187.255 160.918 188.996 160.516ZM133.572 169.107C134.398 168.683 134.956 168.549 135.29 168.549C135.156 169.151 134.554 170.579 132.076 172.721C130.268 174.305 128.594 175.711 127.054 176.961C129.621 171.628 132.523 169.642 133.572 169.107ZM84.3083 155.987C85.2681 156.031 85.3797 156.411 85.469 156.589C85.5359 156.812 85.6029 157.102 85.6029 157.437C85.6029 159.601 83.6832 164.109 77.8574 170.044C70.0672 178.032 62.7011 182.985 56.1609 185.997C67.7011 163.729 79.5315 155.786 84.3083 155.987ZM51.1609 184.77C50.469 186.086 50.0002 187.314 49.5761 188.451C36.8752 192.267 28.3707 188.898 27.835 188.63C26.5404 188.094 25.0672 188.719 24.5315 189.969C23.9958 191.241 24.5984 192.691 25.8484 193.249C26.4511 193.516 35.2681 197.109 48.4377 193.94C48.4377 194.097 48.4154 194.297 48.4154 194.476C48.4154 198.157 49.9556 200.679 52.0315 201.995C57.7458 205.699 70.335 202.531 88.6609 183.9C87.4333 187.291 86.3841 190.995 85.7145 194.788C85.6699 194.989 85.6699 195.123 85.6699 195.279C85.6699 196.305 86.2949 197.31 87.2547 197.667C89.2413 198.47 90.402 196.819 91.3841 195.413L93.9288 191.62C96.1386 188.318 101.094 180.888 104.42 177.005C104.018 179.147 103.594 181.557 103.594 183.833C103.594 186.934 104.353 189.768 106.853 191.241C108.906 192.423 112.277 192.869 119.531 188.518C120.179 190.192 121.384 190.995 122.076 191.33C126.719 193.472 135.469 188.831 144.598 180.107C143.371 182.851 142.411 185.149 142.165 186.131C142.121 186.376 142.076 186.666 142.076 186.89C142.076 188.05 142.768 188.898 143.572 189.255C145.603 190.147 146.831 188.385 147.857 186.957L150.625 182.963C152.924 179.616 158.281 171.717 161.384 168.415C162.322 170.691 163.973 173.547 166.964 175.22C166.094 177.184 165.67 178.857 165.67 180.285C165.67 182.003 166.295 183.32 167.612 184.212C169.956 185.819 173.549 184.948 177.255 182.94C165.402 194.699 159.956 206.368 159.777 211.59C159.777 211.679 159.777 211.79 159.777 211.88C159.777 214.78 161.183 215.918 162.076 216.364C163.884 217.279 166.072 216.744 168.639 214.691C177.523 207.618 184.04 190.794 187.366 180.508C191.808 176.871 197.031 173.346 203.014 170.111C201.094 173.524 199.978 176.737 199.978 179.348C199.978 180.307 200.134 181.155 200.402 181.936C201.094 183.788 202.567 184.926 204.442 185.127C208.572 185.551 214.286 181.222 220.96 172.944C220.38 174.618 219.844 176.202 219.264 177.764C200.625 192.468 192.232 208.176 191.161 216.699C191.072 217.391 191.005 218.016 191.005 218.573C191.005 222.009 192.366 223.594 193.639 224.308C195.045 225.111 197.456 225.513 201.005 222.768C204.978 219.756 214.398 205.03 223.527 180.709C235.603 171.427 252.188 162.524 274.264 156.433C275.357 156.121 276.116 155.117 276.116 154.023C276.116 153.778 276.072 153.577 276.005 153.332C275.625 152.015 274.264 151.234 272.88 151.591C253.639 156.946 238.371 164.399 226.451 172.476C227.88 168.259 229.286 163.774 230.648 159.111C230.692 158.887 230.759 158.664 230.759 158.419C230.759 157.459 230.201 156.567 229.286 156.165C228.148 155.652 226.808 156.031 226.139 157.08C213.75 176.626 206.674 180.151 205.134 180.129C205.023 179.995 205 179.727 205 179.37C205 177.139 206.875 171.583 213.036 165.068C213.505 164.599 213.75 163.997 213.75 163.35C213.75 162.881 213.572 162.39 213.281 161.944C212.589 160.962 211.317 160.605 210.246 161.074C202.389 164.376 195.625 168.348 189.732 172.52C189.799 172.253 189.844 172.074 189.889 172.007C189.889 171.784 189.978 171.606 189.978 171.405C189.978 170.49 189.42 169.597 188.616 169.173C188.572 169.151 188.505 169.151 188.482 169.129C190.201 167.812 191.965 166.295 193.795 164.577C195.781 162.747 196.295 161.096 196.295 159.847C196.295 159.311 196.183 158.865 196.072 158.508C195.491 156.768 193.862 155.607 191.63 155.317C186.116 154.693 177.366 159.334 169.531 170.869C166.831 169.464 165.781 165.938 165.335 164.332L165.134 163.707C164.799 162.658 163.862 162.011 162.746 162.011C161.049 162.033 159.241 163.194 156.406 166.541C156.429 166.429 156.473 166.34 156.54 166.317C156.652 165.96 156.764 165.581 156.764 165.224C156.764 164.376 156.317 163.551 155.558 163.082C154.442 162.413 153.014 162.703 152.277 163.729C138.326 182.472 126.139 187.671 124.241 186.733C124.241 186.666 124.197 186.533 124.197 186.22C124.197 185.997 124.241 185.662 124.308 185.305C127.411 183.074 131.072 180.174 135.447 176.358C139.487 172.9 140.402 170.066 140.402 168.214C140.402 167.344 140.223 166.674 140.045 166.295C139.219 164.376 137.232 163.283 134.822 163.528C129.688 163.975 123.192 169.999 119.956 182.316C111.898 187.849 109.688 187.001 109.42 186.845C108.304 186.176 108.415 182.695 109.643 176.537C110.223 173.792 110.469 172.543 109.822 171.427C109.241 170.289 108.215 169.62 106.965 169.553C104.353 169.441 101.339 172.186 95.1565 180.888C97.5895 175.109 100 171.092 100.067 171.048C100.313 170.624 100.424 170.2 100.424 169.776C100.424 168.95 100.067 168.192 99.3306 167.701C98.2815 166.92 96.8306 167.165 95.9824 168.147C74.0181 194.967 59.085 200.5 54.8216 197.778C53.9288 197.153 53.46 196.015 53.46 194.476C53.46 193.829 53.5493 193.092 53.7279 192.334C61.9422 189.411 71.4288 183.81 81.4958 173.48C87.4333 167.411 90.6475 161.721 90.6475 157.37C90.6475 156.411 90.4466 155.496 90.1565 154.693C89.2636 152.439 87.21 151.078 84.5984 150.944C76.6743 150.632 63.3038 160.918 51.1609 184.77Z" fill="white"/>
<path d="M267.567 100.295C265.96 100.295 264.62 101.209 264.04 102.66C264.04 102.66 250.335 137.824 248.727 141.885C244.442 142.108 206.897 144.072 206.897 144.072C204.933 144.183 203.326 145.834 203.326 147.798C203.326 147.887 203.326 147.932 203.326 147.999C203.46 150.074 205.223 151.68 207.277 151.569L251.518 149.226C252.991 149.137 254.285 148.2 254.821 146.839C254.821 146.839 263.214 125.329 267.5 114.352C271.763 125.329 280.134 146.705 280.134 146.705C280.647 148.066 281.897 149.003 283.348 149.07C283.348 149.07 306.205 150.386 317.902 151.033C308.884 158.53 291.227 173.19 291.227 173.19C290.335 173.904 289.844 174.952 289.844 176.046C289.844 176.38 289.91 176.67 289.955 176.983C289.955 176.983 295.625 199.139 298.549 210.474C288.727 204.115 269.531 191.798 269.531 191.798C268.303 190.995 266.741 190.995 265.513 191.798C265.513 191.798 246.138 204.115 236.116 210.496C239.174 199.451 244.687 179.616 244.687 179.616C244.754 179.281 244.777 178.924 244.777 178.589C244.777 176.96 243.727 175.465 242.053 174.997C240.067 174.461 237.969 175.622 237.455 177.63L226.339 217.859C225.915 219.354 226.473 220.938 227.678 221.853C228.928 222.768 230.625 222.79 231.942 221.965C231.942 221.965 263.884 201.66 267.5 199.34C271.094 201.66 302.5 221.92 302.5 221.92C303.839 222.768 305.446 222.723 306.741 221.831C307.701 221.095 308.281 219.957 308.281 218.796C308.281 218.462 308.236 218.149 308.169 217.837C308.169 217.837 298.839 181.512 297.812 177.407C301.049 174.685 329.933 150.721 329.933 150.721C330.826 149.985 331.317 148.914 331.317 147.843C331.317 147.419 331.272 147.062 331.094 146.66C330.647 145.21 329.33 144.183 327.768 144.116C327.768 144.116 290.491 141.974 286.183 141.729C284.62 137.713 270.96 102.637 270.96 102.637C270.491 101.232 269.085 100.295 267.567 100.295Z" fill="white"/>
<path d="M33.5938 326.477V286.872H54.0179V291.223H38.6384V304.008H52.9241V308.359H38.6384V322.059H54.3527V326.477H33.5938Z" fill="white"/>
<path d="M87.8569 286.872V326.477H80.9373L65.29 292.138H65.1784V326.477H60.6694V286.872H67.8123L83.2587 320.809H83.348V286.872H87.8569Z" fill="white"/>
<path d="M94.8662 326.477V286.872H115.29V291.223H99.8885V304.008H114.174V308.359H99.8885V322.059H115.625V326.477H94.8662Z" fill="white"/>
<path d="M132.678 308.269C134.42 308.269 138.281 308.47 138.638 313.312C139.085 318.578 138.772 323.754 140.178 326.476H145.491C144.71 324 144.152 317.797 144.107 316.101C143.817 308.136 142.165 306.618 137.634 305.927V305.815C142.277 304.989 144.821 301.442 144.821 296.756C144.821 291.803 142.411 286.894 135.335 286.894H121.696V326.499H126.719V308.292H132.678V308.269ZM126.719 291.223H134.397C138.259 291.223 139.687 294.458 139.687 297.292C139.687 300.728 137.946 303.852 134.308 303.852H126.719V291.223Z" fill="white"/>
<path d="M169.286 297.492C169.286 292.785 167.389 290.263 162.277 290.263C160.715 290.263 154.978 290.553 154.978 298.854V312.241C154.978 320.876 157.523 323.063 162.277 323.063C165.893 323.063 168.326 322.059 169.353 321.3V309.474H162.054V305.079H174.398V324.357C171.139 326.119 167.366 327.302 162.255 327.302C153.84 327.302 149.799 322.951 149.799 311.973V298.987C149.799 291.066 153.84 286.046 162.255 286.046C170.826 286.046 174.889 289.17 174.576 297.492H169.286Z" fill="white"/>
<path d="M198.616 286.872H203.705L192.88 311.371V326.477H187.857V311.371L177.21 286.872H182.857L190.58 306.016L198.616 286.872Z" fill="white"/>
<path d="M220.781 314.673V315.811C220.781 321.211 224.197 322.951 227.389 322.951C231.406 322.951 234.487 321.188 234.487 316.525C234.487 307.712 216.741 308.716 216.741 296.801C216.741 289.772 221.697 286.046 228.348 286.046C235.58 286.046 239.643 289.549 239.33 297.626H234.063C234.107 293.32 232.746 290.419 227.991 290.419C224.955 290.419 221.875 292.004 221.875 296.265C221.875 304.989 239.665 303.718 239.665 316.28C239.665 324.624 233.906 327.302 227.366 327.302C215.692 327.436 215.692 318.466 215.781 314.673H220.781Z" fill="white"/>
<path d="M267.857 286.872V291.223H257.411V326.477H252.366V291.223H241.942V286.872H267.857Z" fill="white"/>
<path d="M263.683 326.477H268.772L271.741 317.038H287.054L289.911 326.477H295.558L282.701 286.872H276.228L263.683 326.477ZM285.67 312.687H272.991L279.196 291.557H279.263L285.67 312.687Z" fill="white"/>
<path d="M310.424 308.269C312.121 308.269 316.027 308.47 316.406 313.312C316.83 318.578 316.54 323.754 317.947 326.476H323.214C322.478 324 321.92 317.797 321.853 316.101C321.585 308.136 319.933 306.618 315.357 305.927V305.815C320.022 304.989 322.612 301.442 322.612 296.756C322.612 291.803 320.134 286.894 313.125 286.894H299.464V326.499H304.487V308.292H310.424V308.269ZM304.487 291.223H312.121C316.049 291.223 317.433 294.458 317.433 297.292C317.433 300.728 315.714 303.852 312.098 303.852H304.487V291.223Z" fill="white"/>
<path d="M367.812 308.537H375.424L379.174 329.199H379.286L384.554 308.537H392.5L397.344 329.199H397.455L401.585 308.537H408.929L401.473 336.004H393.415L388.46 317.239H388.348L382.79 336.004H374.621L367.812 308.537Z" fill="#00AEEF"/>
<path d="M410.156 308.537H417.768L421.518 329.199H421.629L426.897 308.537H434.844L439.688 329.199H439.799L443.929 308.537H451.272L443.817 336.004H435.759L430.804 317.239H430.692L425.134 336.004H416.964L410.156 308.537Z" fill="#00AEEF"/>
<path d="M452.5 308.537H460.112L463.862 329.199H463.973L469.241 308.537H477.188L482.031 329.199H482.143L486.272 308.537H493.616L486.161 336.004H478.125L473.17 317.239H473.058L467.5 336.004H459.33L452.5 308.537Z" fill="#00AEEF"/>
<path d="M501.518 328.842V336.026H494.978V328.842H501.518Z" fill="#00AEEF"/>
<path d="M514.42 323.509C514.42 326.767 514.531 331.675 517.902 331.675C520.625 331.675 521.161 329.065 521.161 326.789H528.951C528.839 329.779 527.857 332.233 526.004 333.907C524.219 335.602 521.495 336.562 517.902 336.562C507.991 336.562 506.696 330.515 506.696 321.925C506.696 314.428 507.79 308.002 517.902 308.002C528.236 308.002 529.375 314.695 529.107 323.509H514.42ZM521.451 319.203C521.451 316.547 521.562 312.732 517.924 312.732C514.397 312.732 514.442 316.86 514.442 319.203H521.451Z" fill="#00AEEF"/>
<path d="M542.232 311.326H542.344C543.103 310.077 544.04 309.251 545.067 308.76C546.161 308.225 547.411 308.002 548.817 308.002C552.455 308.002 555.67 310.188 555.67 313.981V336.004H547.991V317.083C547.991 314.629 547.545 312.732 545.112 312.732C542.656 312.732 542.232 314.629 542.232 317.083V336.004H534.554V308.537H542.232V311.326Z" fill="#00AEEF"/>
<path d="M568.839 323.509C568.839 326.767 568.951 331.675 572.322 331.675C575.045 331.675 575.581 329.065 575.581 326.789H583.371C583.259 329.779 582.277 332.233 580.424 333.907C578.639 335.602 575.915 336.562 572.322 336.562C562.411 336.562 561.116 330.515 561.116 321.925C561.116 314.428 562.21 308.002 572.322 308.002C582.656 308.002 583.795 314.695 583.527 323.509H568.839ZM575.871 319.203C575.871 316.547 575.982 312.732 572.344 312.732C568.817 312.732 568.862 316.86 568.862 319.203H575.871Z" fill="#00AEEF"/>
<path d="M596.272 308.537V312.063H596.384C597.79 308.917 600.402 307.979 603.504 307.979V314.829C596.763 314.383 596.652 318.31 596.652 321.032V335.982H588.973V308.515H596.272V308.537Z" fill="#00AEEF"/>
<path d="M628.102 308.537V337.142C628.102 339.038 628.214 346.558 617.656 346.558C611.942 346.558 607.053 345.085 606.875 338.391H614.375C614.375 339.529 614.531 340.511 615.022 341.158C615.513 341.872 616.384 342.251 617.589 342.251C619.486 342.251 620.424 340.466 620.424 337.677V332.412H620.312C619.174 334.531 616.986 335.625 614.486 335.625C606.049 335.625 606.428 327.904 606.428 321.702C606.428 315.655 606.54 308.002 614.531 308.002C617.254 308.002 619.598 309.207 620.669 311.75H620.781V308.537H628.102ZM617.277 330.894C620.044 330.894 620.424 328.016 620.424 322.192C620.424 316.146 620.156 312.732 617.321 312.732C614.442 312.732 613.951 314.74 613.951 323.13C613.951 325.673 613.571 330.894 617.277 330.894Z" fill="#00AEEF"/>
<path d="M639.197 336.227L631.741 308.537H639.353L643.281 327.86H643.393L647.522 308.537H654.933L644.331 346.402H636.272L639.197 336.227Z" fill="#00AEEF"/>
<path d="M664.509 327.213C664.465 328.462 664.509 329.667 664.889 330.537C665.335 331.408 666.139 331.854 667.657 331.854C669.174 331.854 670.491 330.872 670.491 329.02C670.491 323.197 656.987 324.513 656.987 315.744C656.987 309.809 662.857 308.024 667.813 308.024C673.036 308.024 677.768 310.523 677.344 316.458H669.844C669.844 314.562 669.621 313.401 669.085 312.933C668.594 312.442 667.947 312.33 667.121 312.33C665.424 312.33 664.509 313.424 664.509 315.276C664.509 319.627 678.014 319.404 678.014 328.217C678.014 333.014 674.085 336.584 667.723 336.584C661.027 336.584 656.563 334.888 657.009 327.235H664.509V327.213Z" fill="#00AEEF"/>
<path d="M679.531 308.537H682.634V304.186L690.313 300.75V308.537H694.286V313.268H690.313V327.949C690.313 330.024 690.268 331.385 692.768 331.385C693.259 331.385 693.75 331.385 694.129 331.274V336.004C693.103 336.116 692.009 336.272 690.156 336.272C683.527 336.272 682.656 331.876 682.656 330.18V313.268H679.554V308.537H679.531Z" fill="#00AEEF"/>
<path d="M718.594 330.894C718.594 332.59 718.817 334.331 718.973 336.004H711.853L711.518 332.367H711.406C709.777 335.201 707.544 336.562 704.219 336.562C698.884 336.562 696.919 332.59 696.919 327.793C696.919 318.712 703.951 318.333 711.071 318.444V316.324C711.071 313.982 710.736 312.308 707.969 312.308C705.312 312.308 705.089 314.316 705.089 316.503H697.589C697.589 313.178 698.616 311.059 700.424 309.809C702.165 308.493 704.665 308.024 707.611 308.024C717.344 308.024 718.594 312.219 718.594 317.217V330.894ZM704.464 327.481C704.464 329.444 704.799 331.832 707.299 331.832C711.808 331.832 711.116 325.74 711.116 322.75C707.277 322.907 704.464 322.572 704.464 327.481Z" fill="#00AEEF"/>
<path d="M732.255 308.537V312.063H732.366C733.773 308.917 736.384 307.979 739.487 307.979V314.829C732.746 314.383 732.634 318.31 732.634 321.032V335.982H724.956V308.515H732.255V308.537Z" fill="#00AEEF"/>
<path d="M745.536 328.842V336.026H738.996V328.842H745.536Z" fill="#00AEEF"/>
<path d="M772.366 308.537V337.142C772.366 339.038 772.478 346.558 761.92 346.558C756.205 346.558 751.317 345.085 751.138 338.391H758.638C758.638 339.529 758.795 340.511 759.286 341.158C759.777 341.872 760.647 342.251 761.853 342.251C763.75 342.251 764.688 340.466 764.688 337.677V332.412H764.576C763.438 334.531 761.25 335.625 758.75 335.625C750.313 335.625 750.692 327.904 750.692 321.702C750.692 315.655 750.804 308.002 758.795 308.002C761.518 308.002 763.862 309.207 764.933 311.75H765.045V308.537H772.366ZM761.54 330.894C764.308 330.894 764.688 328.016 764.688 322.192C764.688 316.146 764.42 312.732 761.585 312.732C758.705 312.732 758.214 314.74 758.214 323.13C758.214 325.673 757.835 330.894 761.54 330.894Z" fill="#00AEEF"/>
<path d="M777.924 321.925C777.924 314.428 779.018 308.002 789.129 308.002C799.241 308.002 800.335 314.428 800.335 321.925C800.335 330.515 799.018 336.562 789.129 336.562C779.241 336.562 777.924 330.515 777.924 321.925ZM792.679 321.501C792.679 315.789 792.411 312.91 789.152 312.91C785.893 312.91 785.625 315.789 785.625 321.501C785.625 329.868 786.339 331.675 789.152 331.675C791.964 331.675 792.679 329.868 792.679 321.501Z" fill="#00AEEF"/>
<path d="M803.17 308.537H810.96L814.821 329.154H814.933L818.951 308.537H826.451L818.884 336.004H810.446L803.17 308.537Z" fill="#00AEEF"/>
<path d="M372.656 93.8465V17.627H398.326L410.268 69.4589H410.469L423.125 17.627H447.946V93.8465H432.433V35.053H432.232L417.545 93.8465H402.344L388.393 35.053H388.192V93.8465H372.656Z" fill="#00AEEF"/>
<path d="M458.929 66.4911C458.929 51.9211 461.049 39.4707 480.692 39.4707C500.335 39.4707 502.455 51.9211 502.455 66.4911C502.455 83.1586 499.911 94.895 480.692 94.895C461.473 94.895 458.929 83.1809 458.929 66.4911ZM487.545 65.6656C487.545 54.5763 487.009 48.9981 480.67 48.9981C474.33 48.9981 473.795 54.5986 473.795 65.6656C473.795 81.9314 475.156 85.4121 480.67 85.4121C486.183 85.4121 487.545 81.9091 487.545 65.6656Z" fill="#00AEEF"/>
<path d="M524.71 76.7327C524.598 79.1648 524.71 81.4853 525.446 83.181C526.295 84.8768 527.879 85.7247 530.826 85.7247C533.772 85.7247 536.317 83.8281 536.317 80.2358C536.317 68.9457 510.134 71.467 510.134 54.4872C510.134 42.9739 521.54 39.4932 531.138 39.4932C541.272 39.4932 550.469 44.3573 549.621 55.8482H535.045C535.045 52.1444 534.62 49.9354 533.571 48.976C532.612 48.0165 531.362 47.8157 529.777 47.8157C526.495 47.8157 524.71 49.9354 524.71 53.5054C524.71 61.9395 550.893 61.5379 550.893 78.6293C550.893 87.9113 543.281 94.8951 530.937 94.8951C517.946 94.8951 509.286 91.6152 510.134 76.7327H524.71Z" fill="#00AEEF"/>
<path d="M553.862 40.5418H559.889V32.1077L574.777 25.4363V40.5418H582.478V49.7346H574.777V78.2277C574.777 82.2439 574.665 84.8768 579.531 84.8768C580.491 84.8768 581.429 84.8768 582.165 84.676V93.8687C580.156 94.0695 578.036 94.4042 574.465 94.4042C561.585 94.4042 559.889 85.8585 559.889 82.5786V49.7123H553.862V40.5418Z" fill="#00AEEF"/>
<path d="M613.415 93.8465V17.627H655.022V29.341H629.353V48.1281H653.013V59.8422H629.353V82.1101H655.848V93.8241H613.415V93.8465Z" fill="#00AEEF"/>
<path d="M687.656 26.8195C681.629 26.3956 680.379 28.7161 680.379 34.0934V40.5417H687.344V49.7345H680.357V93.8463H665.469V49.7122H658.817V40.5194H665.58C665.469 25.213 664.196 17.0913 682.366 17.0913C684.152 17.0913 685.848 17.2029 687.656 17.2921V26.8195Z" fill="#00AEEF"/>
<path d="M716.272 26.8195C710.245 26.3956 708.995 28.7161 708.995 34.0934V40.5417H715.96V49.7345H708.995V93.8463H694.107V49.7122H687.455V40.5194H694.218C694.107 25.213 692.835 17.0913 711.004 17.0913C712.79 17.0913 714.486 17.2029 716.294 17.2921V26.8195H716.272Z" fill="#00AEEF"/>
<path d="M738.125 17.627V29.341H723.237V17.627H738.125ZM738.125 93.8465H723.237V40.5419H738.125V93.8465Z" fill="#00AEEF"/>
<path d="M777.723 59.5296C777.723 51.6087 775.714 48.9758 771.071 48.9758C764.732 48.9758 764.197 54.5763 764.197 65.6433C764.197 81.9091 765.58 85.3898 771.071 85.3898C775.714 85.3898 777.947 81.1728 777.947 74.2113H792.835C792.835 88.6698 785.022 94.895 771.071 94.895C751.853 94.895 749.308 83.1809 749.308 66.4911C749.308 51.9211 751.429 39.4707 771.071 39.4707C784.799 39.4707 792.612 45.5843 792.612 59.5296H777.723Z" fill="#00AEEF"/>
<path d="M818.795 17.627V29.341H803.906V17.627H818.795ZM818.795 93.8465H803.906V40.5419H818.795V93.8465Z" fill="#00AEEF"/>
<path d="M845 69.5704C845 75.9072 845.201 85.4123 851.764 85.4123C857.054 85.4123 858.103 80.3474 858.103 75.9072H873.214C873.014 81.7084 871.094 86.461 867.522 89.7409C864.04 93.0209 858.75 94.9174 851.786 94.9174C832.567 94.9174 830.022 83.2034 830.022 66.5136C830.022 51.9435 832.143 39.4932 851.786 39.4932C871.853 39.4932 874.063 52.479 873.549 69.5704H845ZM858.616 61.2255C858.616 56.049 858.817 48.6636 851.741 48.6636C844.866 48.6636 844.978 56.6961 844.978 61.2255H858.616Z" fill="#00AEEF"/>
<path d="M898.214 45.9192H898.415C899.889 43.4871 901.697 41.9029 903.706 40.9658C905.826 39.9171 908.237 39.4932 910.982 39.4932C918.058 39.4932 924.286 43.7102 924.286 51.0957V93.8464H909.397V57.0977C909.397 52.3452 908.549 48.6636 903.795 48.6636C899.04 48.6636 898.192 52.3675 898.192 57.0977V93.8241H883.304V40.5419H898.192V45.9192H898.214Z" fill="#00AEEF"/>
<path d="M929.375 40.5417H935.402V32.1076L950.29 25.4585V40.5641H957.991V49.7568H950.29V78.2499C950.29 82.2661 950.179 84.899 955.045 84.899C956.004 84.899 956.942 84.899 957.679 84.6982V93.8909C955.67 94.0917 953.549 94.4264 949.978 94.4264C937.098 94.4264 935.402 85.8808 935.402 82.6008V49.7122H929.375V40.5417Z" fill="#00AEEF"/>
<path d="M370.536 280.803V252.89C420.491 186.376 430.937 178.679 430.937 158.91C430.937 150.966 427.991 143.469 418.906 143.469C405.737 143.469 405.045 155.964 405.045 166.161H373.036C370.759 136.664 387.344 120.309 416.629 120.309C444.107 120.309 462.946 131.421 462.946 161.163C462.946 196.796 421.384 237.204 404.129 256.259H464.531V280.781H370.536V280.803Z" fill="#00AEEF"/>
<path d="M564.911 201.125C564.911 250.837 561.741 282.833 519.04 282.833C476.361 282.833 473.169 250.837 473.169 201.125C473.169 140.524 479.977 120.331 519.04 120.331C558.102 120.331 564.911 140.524 564.911 201.125ZM505.178 201.593C505.178 249.476 506.317 259.695 519.04 259.695C531.763 259.695 532.902 249.476 532.902 201.593C532.902 152.796 532.678 143.492 519.04 143.492C505.402 143.492 505.178 152.796 505.178 201.593Z" fill="#00AEEF"/>
<path d="M572.165 280.803V252.89C622.12 186.376 632.567 178.679 632.567 158.91C632.567 150.966 629.62 143.469 620.536 143.469C607.366 143.469 606.674 155.964 606.674 166.161H574.665C572.388 136.664 588.973 120.309 618.259 120.309C645.736 120.309 664.576 131.421 664.576 161.163C664.576 196.796 623.013 237.204 605.759 256.259H666.161V280.781H572.165V280.803Z" fill="#00AEEF"/>
<path d="M675.246 212.705C713.393 123.053 713.393 122.607 713.638 122.384H755.647V220.202H768.147V244.723H755.647V280.803H724.308V244.723H675.268V212.705H675.246ZM727.031 220.202L729.085 144.607H728.638L699.777 220.202H727.031Z" fill="#00AEEF"/>
</svg>
