<svg width="842" height="857" viewBox="0 0 842 857" fill="none" xmlns="http://www.w3.org/2000/svg">
<path d="M429.228 856.093C657.06 856.093 841.753 671.363 841.753 443.487C841.753 215.612 657.06 30.8821 429.228 30.8821C201.397 30.8821 16.7034 215.612 16.7034 443.487C16.7034 671.363 201.397 856.093 429.228 856.093Z" fill="#C00C3F"/>
<path d="M429.228 825.464C640.147 825.464 811.13 654.447 811.13 443.487C811.13 232.528 640.147 61.5111 429.228 61.5111C218.31 61.5111 47.3264 232.528 47.3264 443.487C47.3264 654.447 218.31 825.464 429.228 825.464Z" fill="white"/>
<mask id="mask0_2_562" style="mask-type:luminance" maskUnits="userSpaceOnUse" x="47" y="61" width="765" height="765">
<path d="M429.228 825.464C640.147 825.464 811.13 654.447 811.13 443.487C811.13 232.528 640.147 61.5111 429.228 61.5111C218.31 61.5111 47.3264 232.528 47.3264 443.487C47.3264 654.447 218.31 825.464 429.228 825.464Z" fill="white"/>
</mask>
<g mask="url(#mask0_2_562)">
<mask id="mask1_2_562" style="mask-type:luminance" maskUnits="userSpaceOnUse" x="-20" y="259" width="1392" height="833">
<path d="M1371.46 259.714H-19.9937V1091.51H1371.46V259.714Z" fill="white"/>
</mask>
<g mask="url(#mask1_2_562)">
<mask id="mask2_2_562" style="mask-type:luminance" maskUnits="userSpaceOnUse" x="-7" y="491" width="1027" height="542">
<path d="M-6.07422 493.101V1032.27H1003.22L1019.92 491.836L-6.07422 493.101Z" fill="white"/>
</mask>
<g mask="url(#mask2_2_562)">
<g opacity="0.050003">
<mask id="mask3_2_562" style="mask-type:luminance" maskUnits="userSpaceOnUse" x="-20" y="259" width="1392" height="833">
<path d="M1371.46 259.714H-19.9937V1091.51H1371.46V259.714Z" fill="white"/>
</mask>
<g mask="url(#mask3_2_562)">
<mask id="mask4_2_562" style="mask-type:luminance" maskUnits="userSpaceOnUse" x="-50" y="338" width="882" height="642">
<path d="M831.63 338.944H-49.6042V979.874H831.63V338.944Z" fill="white"/>
</mask>
<g mask="url(#mask4_2_562)">
<path d="M535.776 946.461C468.709 946.461 415.815 915.073 364.439 884.697C313.57 854.574 260.928 823.439 194.874 823.439C128.819 823.439 76.178 854.574 25.3084 884.697C-2.02457 900.897 -30.1168 917.604 -60.2336 929.248L-61.499 926.21C-31.6353 914.566 -3.54307 897.86 23.5368 881.659C74.9126 851.536 127.807 820.148 194.874 820.148C261.941 820.148 314.835 851.536 366.211 881.912C417.081 912.035 469.722 943.17 535.776 943.17C601.831 943.17 654.472 912.035 705.342 881.912C756.718 851.536 809.612 820.148 876.679 820.148V823.439C810.624 823.439 757.983 854.574 707.113 884.697C655.738 915.073 602.843 946.461 535.776 946.461Z" fill="black"/>
</g>
<mask id="mask5_2_562" style="mask-type:luminance" maskUnits="userSpaceOnUse" x="-50" y="338" width="882" height="642">
<path d="M831.63 338.944H-49.6042V979.874H831.63V338.944Z" fill="white"/>
</mask>
<g mask="url(#mask5_2_562)">
<path d="M535.776 924.185C468.709 924.185 415.815 892.797 364.439 862.421C313.57 832.298 260.928 801.163 194.874 801.163C128.819 801.163 76.178 832.298 25.3084 862.421C-2.02457 878.622 -30.1168 895.328 -60.2336 906.972L-61.499 903.935C-31.6353 892.291 -3.54307 875.584 23.5368 859.384C74.9126 829.008 127.807 797.619 194.874 797.619C261.941 797.619 314.835 829.008 366.211 859.384C417.081 889.506 469.722 920.642 535.776 920.642C601.831 920.642 654.472 889.506 705.342 859.384C756.718 829.008 809.612 797.619 876.679 797.619V800.91C810.624 800.91 757.983 832.045 707.113 862.168C655.738 892.797 602.843 924.185 535.776 924.185Z" fill="black"/>
</g>
<mask id="mask6_2_562" style="mask-type:luminance" maskUnits="userSpaceOnUse" x="-50" y="338" width="882" height="642">
<path d="M831.63 338.944H-49.6042V979.874H831.63V338.944Z" fill="white"/>
</mask>
<g mask="url(#mask6_2_562)">
<path d="M535.776 901.657C468.709 901.657 415.815 870.268 364.439 839.892C313.57 809.77 260.928 778.634 194.874 778.634C128.819 778.634 76.178 809.77 25.3084 839.892C-2.02457 856.093 -30.1168 872.8 -60.2336 884.444L-61.499 881.406C-31.6353 869.762 -3.54307 853.055 23.5368 836.855C74.9126 806.479 127.807 775.091 194.874 775.091C261.941 775.091 314.835 806.479 366.211 836.855C417.081 866.978 469.722 898.113 535.776 898.113C601.831 898.113 654.472 866.978 705.342 836.855C756.718 806.479 809.612 775.091 876.679 775.091V778.381C810.624 778.381 757.983 809.517 707.113 839.639C655.738 870.268 602.843 901.657 535.776 901.657Z" fill="black"/>
</g>
<mask id="mask7_2_562" style="mask-type:luminance" maskUnits="userSpaceOnUse" x="-50" y="338" width="882" height="642">
<path d="M831.63 338.944H-49.6042V979.874H831.63V338.944Z" fill="white"/>
</mask>
<g mask="url(#mask7_2_562)">
<path d="M535.776 879.381C468.709 879.381 415.815 847.993 364.439 817.617C313.57 787.494 260.928 756.359 194.874 756.359C128.819 756.359 76.178 787.494 25.3084 817.617C-2.02457 833.817 -30.1168 850.524 -60.2336 862.168L-61.499 859.13C-31.6353 847.486 -3.54307 830.78 23.5368 814.579C74.9126 784.203 127.807 752.815 194.874 752.815C261.941 752.815 314.835 784.203 366.211 814.579C417.081 844.702 469.722 875.837 535.776 875.837C601.831 875.837 654.472 844.702 705.342 814.579C756.718 784.203 809.612 752.815 876.679 752.815V756.106C810.624 756.106 757.983 787.241 707.113 817.364C655.738 847.993 602.843 879.381 535.776 879.381Z" fill="black"/>
</g>
<mask id="mask8_2_562" style="mask-type:luminance" maskUnits="userSpaceOnUse" x="-50" y="338" width="882" height="642">
<path d="M831.63 338.944H-49.6042V979.874H831.63V338.944Z" fill="white"/>
</mask>
<g mask="url(#mask8_2_562)">
<path d="M535.776 857.105C468.709 857.105 415.815 825.717 364.439 795.341C313.57 765.218 260.928 734.083 194.874 734.083C128.819 734.083 76.178 765.218 25.3084 795.341C-2.02457 811.542 -30.1168 828.248 -60.2336 839.892L-61.499 836.855C-31.6353 825.211 -3.54307 808.504 23.5368 792.304C74.9126 761.928 127.807 730.539 194.874 730.539C261.941 730.539 314.835 761.928 366.211 792.304C417.081 822.426 469.722 853.562 535.776 853.562C601.831 853.562 654.472 822.426 705.342 792.304C756.718 761.928 809.612 730.539 876.679 730.539V733.83C810.624 733.83 757.983 764.965 707.113 795.088C655.738 825.464 602.843 857.105 535.776 857.105Z" fill="black"/>
</g>
<mask id="mask9_2_562" style="mask-type:luminance" maskUnits="userSpaceOnUse" x="-50" y="338" width="882" height="642">
<path d="M831.63 338.944H-49.6042V979.874H831.63V338.944Z" fill="white"/>
</mask>
<g mask="url(#mask9_2_562)">
<path d="M535.776 834.577C468.709 834.577 415.815 803.188 364.439 772.812C313.57 742.69 260.928 711.554 194.874 711.554C128.819 711.554 76.178 742.69 25.3084 772.812C-2.02457 789.013 -30.1168 805.72 -60.2336 817.364L-61.499 814.326C-31.6353 802.682 -3.54307 785.975 23.5368 769.775C74.9126 739.399 127.807 708.011 194.874 708.011C261.941 708.011 314.835 739.399 366.211 769.775C417.081 799.897 469.722 831.033 535.776 831.033C601.831 831.033 654.472 799.897 705.342 769.775C756.718 739.399 809.612 708.011 876.679 708.011V711.301C810.624 711.301 757.983 742.437 707.113 772.559C655.738 803.188 602.843 834.577 535.776 834.577Z" fill="black"/>
</g>
<mask id="mask10_2_562" style="mask-type:luminance" maskUnits="userSpaceOnUse" x="-50" y="338" width="882" height="642">
<path d="M831.63 338.944H-49.6042V979.874H831.63V338.944Z" fill="white"/>
</mask>
<g mask="url(#mask10_2_562)">
<path d="M535.776 812.301C468.709 812.301 415.815 780.913 364.439 750.537C313.57 720.414 260.928 689.279 194.874 689.279C128.819 689.279 76.178 720.414 25.3084 750.537C-2.02457 766.737 -30.1168 783.444 -60.2336 795.088L-61.499 792.05C-31.6353 780.406 -3.54307 763.7 23.5368 747.499C74.9126 717.123 127.807 685.735 194.874 685.735C261.941 685.735 314.835 717.123 366.211 747.499C417.081 777.622 469.722 808.757 535.776 808.757C601.831 808.757 654.472 777.622 705.342 747.499C756.718 717.123 809.612 685.735 876.679 685.735V689.026C810.624 689.026 757.983 720.161 707.113 750.284C655.738 780.913 602.843 812.301 535.776 812.301Z" fill="black"/>
</g>
<mask id="mask11_2_562" style="mask-type:luminance" maskUnits="userSpaceOnUse" x="-50" y="338" width="882" height="642">
<path d="M831.63 338.944H-49.6042V979.874H831.63V338.944Z" fill="white"/>
</mask>
<g mask="url(#mask11_2_562)">
<path d="M535.776 789.772C468.709 789.772 415.815 758.384 364.439 728.008C313.57 697.885 260.928 666.75 194.874 666.75C128.819 666.75 76.178 697.885 25.3084 728.008C-2.02457 744.208 -30.1168 760.915 -60.2336 772.559L-61.499 769.522C-31.6353 757.878 -3.54307 741.171 23.5368 724.97C74.9126 694.848 127.807 663.206 194.874 663.206C261.941 663.206 314.835 694.595 366.211 724.97C417.081 755.093 469.722 786.228 535.776 786.228C601.831 786.228 654.472 755.093 705.342 724.97C756.718 694.595 809.612 663.206 876.679 663.206V666.497C810.624 666.497 757.983 697.632 707.113 727.755C655.738 758.384 602.843 789.772 535.776 789.772Z" fill="black"/>
</g>
<mask id="mask12_2_562" style="mask-type:luminance" maskUnits="userSpaceOnUse" x="-50" y="338" width="882" height="642">
<path d="M831.63 338.944H-49.6042V979.874H831.63V338.944Z" fill="white"/>
</mask>
<g mask="url(#mask12_2_562)">
<path d="M535.776 767.497C468.709 767.497 415.815 736.108 364.439 705.732C313.57 675.61 260.928 644.474 194.874 644.474C128.819 644.474 76.178 675.61 25.3084 705.732C-2.02457 721.933 -30.1168 738.64 -60.2336 750.284L-61.499 747.246C-31.6353 735.602 -3.54307 718.895 23.5368 702.695C74.9126 672.319 127.807 640.931 194.874 640.931C261.941 640.931 314.835 672.319 366.211 702.695C417.081 732.818 469.722 763.953 535.776 763.953C601.831 763.953 654.472 732.818 705.342 702.695C756.718 672.319 809.612 640.931 876.679 640.931V644.221C810.624 644.221 757.983 675.357 707.113 705.479C655.738 736.108 602.843 767.497 535.776 767.497Z" fill="black"/>
</g>
<mask id="mask13_2_562" style="mask-type:luminance" maskUnits="userSpaceOnUse" x="-50" y="338" width="882" height="642">
<path d="M831.63 338.944H-49.6042V979.874H831.63V338.944Z" fill="white"/>
</mask>
<g mask="url(#mask13_2_562)">
<path d="M535.776 744.968C468.709 744.968 415.815 713.579 364.439 683.204C313.57 653.081 260.928 621.946 194.874 621.946C128.819 621.946 76.178 653.081 25.3084 683.204C-2.02457 699.404 -30.1168 716.111 -60.2336 727.755L-61.499 724.717C-31.6353 713.073 -3.54307 696.367 23.5368 680.166C74.9126 649.79 127.807 618.402 194.874 618.402C261.941 618.402 314.835 649.79 366.211 680.166C417.081 710.289 469.722 741.424 535.776 741.424C601.831 741.424 654.472 710.289 705.342 680.166C756.718 649.79 809.612 618.402 876.679 618.402V621.693C810.624 621.693 757.983 652.828 707.113 682.95C655.738 713.579 602.843 744.968 535.776 744.968Z" fill="black"/>
</g>
<mask id="mask14_2_562" style="mask-type:luminance" maskUnits="userSpaceOnUse" x="-50" y="338" width="882" height="642">
<path d="M831.63 338.944H-49.6042V979.874H831.63V338.944Z" fill="white"/>
</mask>
<g mask="url(#mask14_2_562)">
<path d="M535.776 722.692C468.709 722.692 415.815 691.304 364.439 660.928C313.57 630.805 260.928 599.67 194.874 599.67C128.819 599.67 76.178 630.805 25.3084 660.928C-2.02457 677.128 -30.1168 693.835 -60.2336 705.479L-61.499 702.442C-31.6353 690.798 -3.54307 674.091 23.5368 657.89C74.9126 627.515 127.807 596.126 194.874 596.126C261.941 596.126 314.835 627.515 366.211 657.89C417.081 688.013 469.722 719.148 535.776 719.148C601.831 719.148 654.472 688.013 705.342 657.89C756.718 627.515 809.612 596.126 876.679 596.126V599.417C810.624 599.417 757.983 630.552 707.113 660.675C655.738 691.304 602.843 722.692 535.776 722.692Z" fill="black"/>
</g>
<mask id="mask15_2_562" style="mask-type:luminance" maskUnits="userSpaceOnUse" x="-50" y="338" width="882" height="642">
<path d="M831.63 338.944H-49.6042V979.874H831.63V338.944Z" fill="white"/>
</mask>
<g mask="url(#mask15_2_562)">
<path d="M535.776 700.163C468.709 700.163 415.815 668.775 364.439 638.399C313.57 608.276 260.928 577.141 194.874 577.141C128.819 577.141 76.178 608.276 25.3084 638.399C-2.02457 654.6 -30.1168 671.306 -60.2336 682.95L-61.499 679.913C-31.6353 668.269 -3.54307 651.562 23.5368 635.362C74.9126 604.986 127.807 573.597 194.874 573.597C261.941 573.597 314.835 604.986 366.211 635.362C417.081 665.484 469.722 696.62 535.776 696.62C601.831 696.62 654.472 665.484 705.342 635.362C756.718 604.986 809.612 573.597 876.679 573.597V576.888C810.624 576.888 757.983 608.023 707.113 638.146C655.738 668.775 602.843 700.163 535.776 700.163Z" fill="black"/>
</g>
<mask id="mask16_2_562" style="mask-type:luminance" maskUnits="userSpaceOnUse" x="-50" y="338" width="882" height="642">
<path d="M831.63 338.944H-49.6042V979.874H831.63V338.944Z" fill="white"/>
</mask>
<g mask="url(#mask16_2_562)">
<path d="M535.776 677.888C468.709 677.888 415.815 646.499 364.439 616.124C313.57 586.001 260.928 554.866 194.874 554.866C128.819 554.866 76.178 586.001 25.3084 616.124C-2.02457 632.324 -30.1168 649.031 -60.2336 660.675L-61.499 657.637C-31.6353 645.993 -3.54307 629.286 23.5368 613.086C74.9126 582.71 127.807 551.322 194.874 551.322C261.941 551.322 314.835 582.71 366.211 613.086C417.081 643.209 469.722 674.344 535.776 674.344C601.831 674.344 654.472 643.209 705.342 613.086C756.718 582.71 809.612 551.322 876.679 551.322V554.613C810.624 554.613 757.983 585.748 707.113 615.87C655.738 646.499 602.843 677.888 535.776 677.888Z" fill="black"/>
</g>
<mask id="mask17_2_562" style="mask-type:luminance" maskUnits="userSpaceOnUse" x="-50" y="338" width="882" height="642">
<path d="M831.63 338.944H-49.6042V979.874H831.63V338.944Z" fill="white"/>
</mask>
<g mask="url(#mask17_2_562)">
<path d="M535.776 655.359C468.709 655.359 415.815 623.971 364.439 593.595C313.57 563.472 260.928 532.337 194.874 532.337C128.819 532.337 76.178 563.472 25.3084 593.595C-2.02457 609.795 -30.1168 626.502 -60.2336 638.146L-61.499 635.108C-31.6353 623.464 -3.54307 606.758 23.5368 590.557C74.9126 560.435 127.807 529.046 194.874 529.046C261.941 529.046 314.835 560.435 366.211 590.81C417.081 620.933 469.722 652.068 535.776 652.068C601.831 652.068 654.472 620.933 705.342 590.81C756.718 560.435 809.612 529.046 876.679 529.046V532.337C810.624 532.337 757.983 563.472 707.113 593.595C655.738 623.971 602.843 655.359 535.776 655.359Z" fill="black"/>
</g>
<mask id="mask18_2_562" style="mask-type:luminance" maskUnits="userSpaceOnUse" x="-50" y="338" width="882" height="642">
<path d="M831.63 338.944H-49.6042V979.874H831.63V338.944Z" fill="white"/>
</mask>
<g mask="url(#mask18_2_562)">
<path d="M535.776 633.083C468.709 633.083 415.815 601.695 364.439 571.319C313.57 541.196 260.928 510.061 194.874 510.061C128.819 510.061 76.178 541.196 25.3084 571.319C-2.02457 587.52 -30.1168 604.226 -60.2336 615.87L-61.499 612.833C-31.6353 601.189 -3.54307 584.482 23.5368 568.282C74.9126 537.906 127.807 506.517 194.874 506.517C261.941 506.517 314.835 537.906 366.211 568.282C417.081 598.404 469.722 629.54 535.776 629.54C601.831 629.54 654.472 598.404 705.342 568.282C756.718 537.906 809.612 506.517 876.679 506.517V509.808C810.624 509.808 757.983 540.943 707.113 571.066C655.738 601.695 602.843 633.083 535.776 633.083Z" fill="black"/>
</g>
<mask id="mask19_2_562" style="mask-type:luminance" maskUnits="userSpaceOnUse" x="-50" y="338" width="882" height="642">
<path d="M831.63 338.944H-49.6042V979.874H831.63V338.944Z" fill="white"/>
</mask>
<g mask="url(#mask19_2_562)">
<path d="M535.776 610.555C468.709 610.555 415.815 579.166 364.439 548.79C313.57 518.668 260.928 487.533 194.874 487.533C128.819 487.533 76.178 518.668 25.3084 548.79C-2.02457 564.991 -30.1168 581.698 -60.2336 593.342L-61.499 590.304C-31.6353 578.66 -3.54307 561.953 23.5368 545.753C74.9126 515.377 127.807 483.989 194.874 483.989C261.941 483.989 314.835 515.377 366.211 545.753C417.081 575.876 469.722 607.011 535.776 607.011C601.831 607.011 654.472 575.876 705.342 545.753C756.718 515.377 809.612 483.989 876.679 483.989V487.279C810.624 487.279 757.983 518.415 707.113 548.537C655.738 579.166 602.843 610.555 535.776 610.555Z" fill="black"/>
</g>
<mask id="mask20_2_562" style="mask-type:luminance" maskUnits="userSpaceOnUse" x="-50" y="338" width="882" height="642">
<path d="M831.63 338.944H-49.6042V979.874H831.63V338.944Z" fill="white"/>
</mask>
<g mask="url(#mask20_2_562)">
<path d="M535.776 588.279C468.709 588.279 415.815 556.891 364.439 526.515C313.57 496.392 260.928 465.257 194.874 465.257C128.819 465.257 76.178 496.392 25.3084 526.515C-2.02457 542.715 -30.1168 559.422 -60.2336 571.066L-61.499 568.028C-31.6353 556.384 -3.54307 539.678 23.5368 523.477C74.9126 493.101 127.807 461.713 194.874 461.713C261.941 461.713 314.835 493.101 366.211 523.477C417.081 553.6 469.722 584.735 535.776 584.735C601.831 584.735 654.472 553.6 705.342 523.477C756.718 493.101 809.612 461.713 876.679 461.713V465.004C810.624 465.004 757.983 496.139 707.113 526.262C655.738 556.891 602.843 588.279 535.776 588.279Z" fill="black"/>
</g>
<mask id="mask21_2_562" style="mask-type:luminance" maskUnits="userSpaceOnUse" x="-50" y="338" width="882" height="642">
<path d="M831.63 338.944H-49.6042V979.874H831.63V338.944Z" fill="white"/>
</mask>
<g mask="url(#mask21_2_562)">
<path d="M535.776 566.003C468.709 566.003 415.815 534.615 364.439 504.239C313.57 474.116 260.928 442.981 194.874 442.981C128.819 442.981 76.178 474.116 25.3084 504.239C-2.02457 520.44 -30.1168 537.146 -60.2336 548.79L-61.499 545.753C-31.6353 534.109 -3.54307 517.402 23.5368 501.202C74.9126 470.826 127.807 439.437 194.874 439.437C261.941 439.437 314.835 470.826 366.211 501.202C417.081 531.324 469.722 562.46 535.776 562.46C601.831 562.46 654.472 531.324 705.342 501.202C756.718 470.826 809.612 439.437 876.679 439.437V442.728C810.624 442.728 757.983 473.863 707.113 503.986C655.738 534.362 602.843 566.003 535.776 566.003Z" fill="black"/>
</g>
<mask id="mask22_2_562" style="mask-type:luminance" maskUnits="userSpaceOnUse" x="-50" y="338" width="882" height="642">
<path d="M831.63 338.944H-49.6042V979.874H831.63V338.944Z" fill="white"/>
</mask>
<g mask="url(#mask22_2_562)">
<path d="M535.776 543.475C468.709 543.475 415.815 512.086 364.439 481.71C313.57 451.588 260.928 420.453 194.874 420.453C128.819 420.453 76.178 451.588 25.3084 481.71C-2.02457 497.911 -30.1168 514.618 -60.2336 526.262L-61.499 523.224C-31.6353 511.58 -3.54307 494.873 23.5368 478.673C74.9126 448.297 127.807 416.909 194.874 416.909C261.941 416.909 314.835 448.297 366.211 478.673C417.081 508.796 469.722 539.931 535.776 539.931C601.831 539.931 654.472 508.796 705.342 478.673C756.718 448.297 809.612 416.909 876.679 416.909V420.199C810.624 420.199 757.983 451.335 707.113 481.457C655.738 512.086 602.843 543.475 535.776 543.475Z" fill="black"/>
</g>
<mask id="mask23_2_562" style="mask-type:luminance" maskUnits="userSpaceOnUse" x="-50" y="338" width="882" height="642">
<path d="M831.63 338.944H-49.6042V979.874H831.63V338.944Z" fill="white"/>
</mask>
<g mask="url(#mask23_2_562)">
<path d="M535.776 521.199C468.709 521.199 415.815 489.811 364.439 459.435C313.57 429.312 260.928 398.177 194.874 398.177C128.819 398.177 76.178 429.312 25.3084 459.435C-2.02457 475.635 -30.1168 492.342 -60.2336 503.986L-61.499 500.948C-31.6353 489.304 -3.54307 472.598 23.5368 456.397C74.9126 426.021 127.807 394.633 194.874 394.633C261.941 394.633 314.835 426.021 366.211 456.397C417.081 486.52 469.722 517.655 535.776 517.655C601.831 517.655 654.472 486.52 705.342 456.397C756.718 426.021 809.612 394.633 876.679 394.633V397.924C810.624 397.924 757.983 429.059 707.113 459.182C655.738 489.558 602.843 521.199 535.776 521.199Z" fill="black"/>
</g>
<mask id="mask24_2_562" style="mask-type:luminance" maskUnits="userSpaceOnUse" x="-50" y="338" width="882" height="642">
<path d="M831.63 338.944H-49.6042V979.874H831.63V338.944Z" fill="white"/>
</mask>
<g mask="url(#mask24_2_562)">
<path d="M535.776 498.67C468.709 498.67 415.815 467.282 364.439 436.906C313.57 406.783 260.928 375.648 194.874 375.648C128.819 375.648 76.178 406.783 25.3084 436.906C-2.02457 453.107 -30.1168 469.813 -60.2336 481.457L-61.499 478.42C-31.6353 466.776 -3.54307 450.069 23.5368 433.868C74.9126 403.746 127.807 372.104 194.874 372.104C261.941 372.104 314.835 403.493 366.211 433.868C417.081 463.991 469.722 495.126 535.776 495.126C601.831 495.126 654.472 463.991 705.342 433.868C756.718 403.493 809.612 372.104 876.679 372.104V375.395C810.624 375.395 757.983 406.53 707.113 436.653C655.738 467.282 602.843 498.67 535.776 498.67Z" fill="black"/>
</g>
</g>
</g>
</g>
</g>
</g>
<mask id="mask25_2_562" style="mask-type:luminance" maskUnits="userSpaceOnUse" x="47" y="61" width="765" height="765">
<path d="M429.228 825.464C640.147 825.464 811.13 654.447 811.13 443.487C811.13 232.528 640.147 61.5111 429.228 61.5111C218.31 61.5111 47.3264 232.528 47.3264 443.487C47.3264 654.447 218.31 825.464 429.228 825.464Z" fill="white"/>
</mask>
<g mask="url(#mask25_2_562)">
<path d="M820.241 616.124H23.5366V841.917H820.241V616.124Z" fill="#C00C3F"/>
</g>
<path d="M429.228 825.464C640.147 825.464 811.13 654.447 811.13 443.487C811.13 232.528 640.147 61.5111 429.228 61.5111C218.31 61.5111 47.3264 232.528 47.3264 443.487C47.3264 654.447 218.31 825.464 429.228 825.464Z" stroke="#C00C3F" stroke-width="0.9255" stroke-miterlimit="10"/>
<path d="M120.72 370.079V298.19C120.72 283.002 125.023 271.611 133.375 263.764C141.726 255.917 153.115 252.12 166.782 252.12C179.942 252.12 190.824 255.917 198.923 263.511C207.022 271.104 211.071 282.242 211.071 296.924V301.733H182.979V296.924C182.979 290.849 181.46 286.039 178.423 282.749C175.386 279.458 171.337 277.686 166.528 277.686C160.454 277.686 156.152 279.711 153.368 284.014C150.584 288.064 149.319 294.393 149.319 302.746V366.788C149.319 382.229 155.14 390.077 166.528 390.077C172.096 390.077 176.146 388.305 178.929 384.508C181.713 380.711 182.979 375.395 182.979 368.307V351.347H166.022V328.819H211.324V369.826C211.324 384.508 207.022 395.899 198.417 403.746C189.812 411.593 178.93 415.643 165.263 415.643C151.597 415.643 140.714 411.846 132.615 403.999C124.77 396.405 120.72 385.014 120.72 370.079Z" fill="#C00C3F"/>
<path d="M255.614 382.989L249.033 413.871H219.676L260.675 254.398H288.514L329.261 413.871H299.65L293.07 382.989H255.614ZM274.342 292.874L260.928 357.676H287.755L274.342 292.874Z" fill="#C00C3F"/>
<path d="M366.464 349.829V413.871H338.119V254.398H381.649C397.34 254.398 408.476 258.195 415.056 265.789C421.636 273.383 424.926 285.533 424.926 301.987C424.926 312.618 423.408 321.478 420.624 328.565C417.587 335.653 413.031 340.969 406.198 344.513L429.988 413.871H400.377L380.383 349.829H366.464ZM381.396 324.515C387.217 324.515 391.013 322.743 393.291 318.946C395.568 315.149 396.581 309.581 396.581 302.24C396.581 294.899 395.568 289.33 393.544 285.533C391.519 281.736 387.47 279.964 381.649 279.964H366.97V324.515H381.396Z" fill="#C00C3F"/>
<path d="M470.228 382.989L463.648 413.871H434.037L475.036 254.398H502.875L543.622 413.871H514.011L507.431 382.989H470.228ZM488.956 292.874L475.542 357.676H502.369L488.956 292.874Z" fill="#C00C3F"/>
<path d="M551.974 370.079V298.19C551.974 283.002 556.276 271.611 564.628 263.764C572.98 255.917 584.368 252.12 598.035 252.12C611.195 252.12 622.078 255.917 630.176 263.511C638.275 271.104 642.324 282.242 642.324 296.924V301.733H613.979V296.924C613.979 290.849 612.46 286.039 609.423 282.749C606.386 279.458 602.337 277.686 597.529 277.686C591.455 277.686 587.152 279.711 584.368 284.014C581.584 288.064 580.319 294.393 580.319 302.746V366.788C580.319 382.229 586.14 390.077 597.529 390.077C603.096 390.077 607.146 388.305 609.93 384.508C612.713 380.711 613.979 375.395 613.979 368.307V351.347H597.022V328.819H642.324V369.826C642.324 384.508 638.022 395.899 629.417 403.746C620.812 411.593 609.93 415.643 596.263 415.643C582.597 415.643 571.714 411.846 563.615 403.999C555.77 396.405 551.974 385.014 551.974 370.079Z" fill="#C00C3F"/>
<path d="M687.12 320.212H724.07V345.525H687.12V388.558H730.144V413.871H659.028V254.398H730.144V279.964H687.12V320.212Z" fill="#C00C3F"/>
<path d="M198.923 520.946V567.016H178.423V452.6H209.553C220.941 452.6 228.787 455.385 233.595 460.7C238.404 466.016 240.682 474.876 240.682 486.773C240.682 494.367 239.669 500.695 237.645 505.758C235.62 510.821 232.077 514.618 227.268 517.149L244.478 567.016H223.219L208.793 520.946H198.923ZM209.299 502.72C213.349 502.72 216.133 501.455 217.651 498.67C219.17 495.886 219.929 491.836 219.929 486.52C219.929 481.204 219.17 477.154 217.651 474.623C216.133 472.091 213.349 470.573 209.046 470.573H198.417V502.467H209.299V502.72Z" fill="#C00C3F"/>
<path d="M313.063 499.683H339.637V517.908H313.063V548.79H343.939V567.016H292.817V452.6H343.939V471.079H313.063V499.683Z" fill="#C00C3F"/>
<path d="M413.031 544.74L408.475 567.016H387.217L416.574 452.6H436.568L465.672 567.016H444.413L439.858 544.74H413.031ZM426.444 479.938L416.827 526.262H436.062L426.444 479.938Z" fill="#C00C3F"/>
<path d="M543.369 452.347C552.986 452.347 560.578 455.132 566.399 460.7C572.22 466.269 575.004 474.37 575.004 485.254V534.109C575.004 544.74 571.967 553.094 565.893 558.663C559.819 564.231 551.973 567.016 542.103 567.016H511.48V452.6H543.369V452.347ZM551.973 544.234C553.998 541.196 555.01 537.146 555.01 531.831V488.798C555.01 482.976 553.998 478.42 551.973 475.382C549.949 472.344 546.912 470.826 543.116 470.826H532.233V548.537H543.116C546.912 548.537 549.949 547.272 551.973 544.234Z" fill="#C00C3F"/>
<path d="M664.342 567.016H643.843V521.958L620.559 452.347H642.83L653.713 496.139L664.595 452.347H687.12L663.836 522.212V567.016H664.342Z" fill="#C00C3F"/>
<path d="M438.086 128.591H427.963V172.383H458.839V164.03H438.086V128.591Z" fill="#6D6E71"/>
<path d="M481.11 155.676H489.462V163.27C487.944 163.776 484.907 164.536 482.123 164.536C473.012 164.536 469.975 159.979 469.975 150.614C469.975 141.754 472.759 136.438 481.87 136.438C486.931 136.438 489.715 137.957 492.246 140.995L498.573 135.173C494.777 129.604 487.944 128.085 481.87 128.085C467.697 128.085 460.358 135.932 460.358 150.614C460.358 165.295 467.191 173.142 481.87 173.142C488.703 173.142 495.283 171.37 498.826 168.839V147.576H481.364V155.676H481.11Z" fill="#6D6E71"/>
<path d="M378.865 116.947C360.137 116.947 344.952 132.135 344.952 150.867C344.952 169.599 360.137 184.786 378.865 184.786C397.593 184.786 412.525 169.852 412.778 151.12V150.614C412.525 131.882 397.593 116.947 378.865 116.947Z" fill="url(#paint0_radial_2_562)"/>
<path d="M356.088 127.832C344.699 139.223 343.686 156.436 353.557 166.308C363.427 176.18 380.637 175.167 392.025 163.776C403.414 152.386 404.426 135.173 394.556 125.3C390.001 120.744 383.927 118.466 377.6 118.466C370.007 118.466 362.162 121.757 356.088 127.832Z" fill="url(#paint1_linear_2_562)"/>
<path d="M377.093 166.055L377.853 165.548V136.944L377.6 136.691H377.853H378.106L380.637 135.932L381.143 136.691C381.143 136.691 381.143 136.691 381.143 136.944V163.017H387.217L387.723 163.776C387.723 163.776 387.723 163.776 387.723 164.03V166.561C387.723 166.814 387.723 166.814 387.47 166.814H378.106C377.853 166.814 377.6 166.814 377.6 166.561L377.093 166.055ZM407.716 149.348H386.711V152.639L387.217 153.398C387.217 153.398 387.217 153.398 387.47 153.398H403.414H404.933C403.92 166.561 392.785 176.939 379.624 176.939C372.791 176.939 366.464 174.408 361.655 169.599C356.847 164.789 354.316 158.461 354.316 151.626C354.316 144.792 356.847 138.463 361.655 133.654C366.464 128.844 372.538 126.313 379.877 126.313H381.143H381.396C381.396 126.313 381.649 126.313 381.649 126.06V123.275C381.649 123.022 381.649 123.022 381.649 123.022L381.143 122.263L379.624 122.516L378.865 122.769C362.921 122.769 351.026 136.185 351.026 151.879C351.026 159.473 354.063 166.814 359.378 172.13C364.692 177.446 372.032 180.23 379.624 180.23C387.47 180.23 394.556 177.192 400.124 171.877C405.692 166.561 408.476 159.22 408.476 151.626V149.854L407.716 149.348ZM368.489 135.932C365.958 135.932 363.933 137.957 363.933 140.488C363.933 143.02 365.958 145.045 368.489 145.045C371.019 145.045 373.044 143.02 373.044 140.488C373.044 137.957 371.019 135.932 368.489 135.932Z" fill="url(#paint2_linear_2_562)"/>
<path d="M377.853 165.295L377.093 166.055H387.217L386.71 165.295H377.853Z" fill="#636E78"/>
<path d="M386.71 163.27L387.217 162.511H380.636L379.877 163.27H386.71Z" fill="#8699A3"/>
<path d="M380.636 135.679H377.093L377.853 136.185H379.877L380.636 135.679Z" fill="#8E9AA2"/>
<path d="M379.877 163.27L380.636 162.511V135.679L379.877 136.185V163.27Z" fill="url(#paint3_linear_2_562)"/>
<path d="M386.71 163.27V165.295L387.217 166.055V162.511L386.71 163.27Z" fill="url(#paint4_linear_2_562)"/>
<path d="M377.093 135.679V166.055L377.853 165.295V136.185L377.093 135.679Z" fill="#B4BDC3"/>
<path d="M363.68 139.982C363.68 142.513 365.705 144.285 367.982 144.285C370.513 144.285 372.285 142.26 372.285 139.982C372.285 137.451 370.26 135.679 367.982 135.679C365.705 135.679 363.68 137.451 363.68 139.982ZM371.779 139.982C371.779 142.007 370.007 143.779 367.982 143.779C365.958 143.779 364.186 142.007 364.186 139.982C364.186 137.957 365.958 136.185 367.982 136.185C370.26 136.185 371.779 137.957 371.779 139.982Z" fill="url(#paint5_linear_2_562)"/>
<path d="M404.932 151.879H387.217L386.71 152.386H404.173L404.426 152.132L404.932 151.879Z" fill="#515D62"/>
<path d="M387.217 149.854H406.957L407.463 149.095H386.71L387.217 149.854Z" fill="#8F9CA4"/>
<path d="M407.463 150.867V149.095L406.704 149.854V150.867C406.704 158.461 403.667 165.295 398.605 170.611C393.291 175.927 386.204 178.711 378.865 178.711C371.272 178.711 364.439 175.674 359.124 170.611C353.81 165.295 351.026 158.208 351.026 150.867C351.026 135.426 363.68 122.769 379.118 122.769H380.13L380.889 122.01H379.118C363.427 122.01 350.52 134.919 350.52 150.614C350.52 158.208 353.557 165.548 358.871 170.864C364.186 176.18 371.525 179.218 379.118 179.218C386.71 179.218 394.05 176.18 399.365 170.864C404.679 165.548 407.463 158.461 407.463 150.867Z" fill="url(#paint6_linear_2_562)"/>
<path d="M379.877 124.794H379.118H378.359C371.526 124.794 365.198 127.579 360.39 132.388C355.581 137.198 352.797 143.779 352.797 150.867C352.797 157.701 355.581 164.283 360.39 169.345C365.198 174.155 371.526 176.939 378.359 176.939H379.118C392.531 176.686 403.667 166.308 404.679 152.639V151.879L404.426 152.132L404.173 152.386C403.161 165.548 392.278 175.927 378.865 175.927C372.032 175.927 365.705 173.395 360.896 168.586C356.087 163.776 353.557 157.448 353.557 150.614C353.557 143.779 356.087 137.451 360.896 132.641C365.705 127.832 372.032 125.3 378.865 125.3H380.636L379.877 124.794Z" fill="url(#paint7_linear_2_562)"/>
<path d="M387.217 149.854L386.71 149.095V152.386L387.217 151.879V149.854Z" fill="#B4BDC3"/>
<path d="M379.877 124.794L380.636 125.554V122.01L379.877 122.769V124.794Z" fill="url(#paint8_linear_2_562)"/>
<path d="M377.599 135.932V165.548H386.964V163.017H380.13V135.932H377.599ZM378.612 122.516C363.174 122.769 350.773 135.426 350.773 150.867C350.773 158.461 353.81 165.548 359.124 170.864C364.439 176.18 371.525 179.218 379.118 179.218C386.71 179.218 393.797 176.18 399.111 170.864C404.426 165.548 407.463 158.461 407.463 150.867V149.601H406.451H387.47V152.132H404.932C404.932 152.132 404.932 152.386 404.932 152.639C403.92 166.055 392.784 176.686 379.371 176.686C372.538 176.686 365.958 173.902 361.149 169.092C356.341 164.283 353.557 157.701 353.557 150.867C353.557 144.032 356.341 137.451 361.149 132.641C365.958 127.832 372.538 125.047 379.371 125.047C379.624 125.047 380.383 125.047 380.636 125.047V122.516C380.383 122.516 379.877 122.516 379.624 122.516H378.612Z" fill="url(#paint9_radial_2_562)"/>
<path d="M363.933 139.982C363.933 142.26 365.705 144.032 367.982 144.032C370.26 144.032 372.032 142.26 372.032 139.982C372.032 137.704 370.26 135.932 367.982 135.932C365.705 135.932 363.933 137.704 363.933 139.982Z" fill="url(#paint10_radial_2_562)"/>
<path d="M368.741 136.691C369.754 136.691 370.513 136.944 371.272 137.451C370.513 136.438 369.248 135.932 367.982 135.932C365.704 135.932 363.933 137.704 363.933 139.982C363.933 141.248 364.439 142.513 365.451 143.273C364.945 142.513 364.692 141.754 364.692 140.741C364.692 138.463 366.464 136.691 368.741 136.691Z" fill="white"/>
<path d="M380.13 122.516C379.877 122.516 379.118 122.516 378.865 122.516C363.174 122.516 350.52 135.173 350.52 150.867C350.52 158.461 353.557 165.548 358.871 170.864C359.124 171.117 359.124 171.117 359.377 171.37C354.316 166.055 351.532 159.22 351.532 151.879C351.532 136.185 362.667 123.275 380.13 122.516Z" fill="white"/>
<path d="M380.13 163.017C380.13 163.017 382.155 163.523 386.963 163.523V163.017H380.13Z" fill="white"/>
<path d="M380.13 136.691V135.932H377.346V165.548C377.346 165.548 378.106 160.992 378.106 136.691H380.13Z" fill="white"/>
<path d="M407.21 149.601H386.963V152.132H387.723V150.36C405.185 150.107 407.21 149.601 407.21 149.601Z" fill="white"/>
<path d="M404.426 152.132C404.426 152.132 404.426 152.386 404.426 152.639C403.414 166.055 392.278 176.686 378.865 176.686C372.032 176.686 365.451 173.902 360.643 169.092C357.353 165.802 355.328 162.005 354.063 157.954C357.1 169.092 367.223 176.939 379.118 176.939C392.025 176.939 403.92 166.814 404.679 152.386H404.426V152.132Z" fill="white"/>
<path d="M196.898 639.412V672.572H193.355V639.412H196.898Z" fill="white"/>
<path d="M202.719 664.472V655.865C202.719 653.081 203.225 650.803 204.491 649.537C205.756 648.018 207.275 647.512 209.299 647.512C211.324 647.512 213.096 648.524 214.108 650.296V639.665H217.398V672.825H214.108V670.547C213.096 672.319 211.324 673.078 209.299 673.078C207.275 673.078 205.756 672.319 204.491 671.053C203.225 669.534 202.719 667.256 202.719 664.472ZM214.108 664.219V656.372C214.108 652.321 212.843 650.296 210.059 650.296C207.528 650.296 206.262 652.321 206.262 656.118V663.966C206.262 665.991 206.515 667.509 207.275 668.522C208.034 669.534 208.793 669.788 210.059 669.788C211.324 669.788 212.336 669.281 213.096 668.269C213.602 667.509 214.108 665.991 214.108 664.219Z" fill="white"/>
<path d="M226.003 663.965C226.003 666.244 226.256 667.763 227.015 668.522C227.775 669.534 228.787 670.041 230.305 670.041C232.836 670.041 234.355 668.269 234.355 664.978V664.725H237.645V664.978C237.645 667.509 237.139 669.534 235.62 670.8C234.355 672.066 232.583 672.825 230.305 672.825C225.244 672.825 222.713 669.788 222.713 663.965V655.865C222.713 653.081 223.472 650.803 224.738 649.284C226.003 647.765 227.775 647.006 230.052 647.006C232.33 647.006 234.102 647.765 235.62 649.284C236.886 650.803 237.645 652.828 237.645 655.865V660.928H226.003V663.965ZM226.003 656.118V658.65H234.355V656.118C234.355 654.093 234.102 652.575 233.342 651.562C232.583 650.549 231.571 650.296 230.305 650.296C229.04 650.296 228.028 650.803 227.268 651.562C226.509 652.575 226.003 654.093 226.003 656.118Z" fill="white"/>
<path d="M256.626 654.6V672.572H253.589V670.294C252.577 672.066 250.805 673.078 248.527 673.078C246.503 673.078 244.984 672.319 243.719 671.053C242.706 669.788 242.2 668.016 242.2 665.484C242.2 663.206 242.706 661.434 244.225 660.168C245.49 658.903 247.262 658.143 249.793 658.143H253.589V654.093C253.589 651.309 252.324 649.79 249.793 649.79C248.527 649.79 247.768 650.043 247.009 650.803C246.25 651.562 245.996 652.321 245.996 653.587V654.093H242.959V653.587C242.959 651.562 243.466 650.043 244.731 648.778C245.996 647.512 247.515 647.006 249.54 647.006C251.817 647.006 253.589 647.512 254.854 649.031C256.12 650.549 256.626 652.321 256.626 654.6ZM253.336 665.484V660.928H249.793C246.756 660.928 245.237 662.447 245.237 665.484C245.237 668.522 246.503 670.041 249.033 670.041C250.299 670.041 251.311 669.534 252.07 668.775C253.083 668.016 253.336 667.003 253.336 665.484Z" fill="white"/>
<path d="M262.7 665.991V639.412H265.99V665.737C265.99 668.269 267.002 669.534 269.28 669.534H270.039V672.572H269.28C267.255 672.572 265.484 672.066 264.472 670.8C263.206 669.788 262.7 668.269 262.7 665.991Z" fill="white"/>
<path d="M274.089 665.991V639.412H277.379V665.737C277.379 668.269 278.391 669.534 280.669 669.534H281.428V672.572H280.669C278.644 672.572 276.873 672.066 275.86 670.8C274.595 669.788 274.089 668.269 274.089 665.991Z" fill="white"/>
<path d="M292.564 674.85C292.058 676.622 291.298 678.141 290.033 678.647C288.768 679.407 287.249 679.66 285.224 679.66H284.718V676.622H285.477C286.743 676.622 287.755 676.369 288.261 675.863C289.021 675.356 289.527 674.597 289.78 673.585L290.033 672.825L283.2 647.512H286.743L291.551 666.497L296.107 647.512H299.65L292.564 674.85Z" fill="white"/>
<path d="M311.798 664.472V655.865C311.798 653.081 312.304 650.803 313.569 649.537C314.835 648.018 316.353 647.512 318.378 647.512C320.403 647.512 322.174 648.524 323.187 650.296V639.665H326.477V672.825H323.187V670.547C322.174 672.319 320.403 673.078 318.378 673.078C316.353 673.078 314.835 672.319 313.569 671.053C312.557 669.534 311.798 667.256 311.798 664.472ZM323.187 664.219V656.372C323.187 652.321 321.921 650.296 319.137 650.296C316.606 650.296 315.341 652.321 315.341 656.118V663.966C315.341 665.991 315.594 667.509 316.353 668.522C317.113 669.534 317.872 669.788 319.137 669.788C320.403 669.788 321.415 669.281 322.174 668.269C322.934 667.509 323.187 665.991 323.187 664.219Z" fill="white"/>
<path d="M335.335 663.965C335.335 666.244 335.588 667.763 336.347 668.522C337.106 669.534 338.119 670.041 339.637 670.041C342.168 670.041 343.687 668.269 343.687 664.978V664.725H346.977V664.978C346.977 667.509 346.47 669.534 344.952 670.8C343.687 672.066 341.915 672.825 339.637 672.825C334.576 672.825 332.045 669.788 332.045 663.965V655.865C332.045 653.081 332.804 650.803 334.069 649.284C335.335 647.765 337.106 647.006 339.384 647.006C341.662 647.006 343.433 647.765 344.952 649.284C346.217 650.803 346.977 652.828 346.977 655.865V660.928H335.335V663.965ZM335.335 656.118V658.65H343.687V656.118C343.687 654.093 343.433 652.575 342.674 651.562C341.915 650.549 340.903 650.296 339.637 650.296C338.372 650.296 337.359 650.803 336.6 651.562C335.588 652.575 335.335 654.093 335.335 656.118Z" fill="white"/>
<path d="M351.279 665.991V665.737H354.316V665.991C354.316 667.256 354.822 668.269 355.581 669.028C356.34 669.788 357.353 670.041 358.871 670.041C360.137 670.041 361.149 669.788 361.908 669.028C362.668 668.269 362.921 667.256 362.921 665.991C362.921 664.978 362.668 664.219 362.161 663.459C361.655 662.953 360.896 662.194 359.631 661.687L356.594 660.422C353.303 659.156 351.785 656.878 351.785 653.84C351.785 651.815 352.544 650.043 353.81 649.031C355.075 647.765 356.847 647.259 359.124 647.259C361.402 647.259 362.921 647.765 364.186 649.031C365.451 650.296 366.211 652.068 366.211 654.093V654.6H363.174V654.346C363.174 652.828 362.921 651.815 362.161 651.056C361.402 650.296 360.39 649.79 359.124 649.79C357.859 649.79 357.1 650.043 356.34 650.803C355.581 651.562 355.328 652.321 355.328 653.587C355.328 654.347 355.581 655.106 356.087 655.865C356.594 656.625 357.353 657.131 358.365 657.637L361.402 658.903C363.174 659.662 364.439 660.422 365.198 661.434C365.958 662.447 366.464 663.712 366.464 665.737C366.464 668.016 365.705 669.788 364.439 671.053C363.174 672.319 361.149 672.825 358.871 672.825C356.594 672.825 354.822 672.066 353.557 670.8C352.038 669.788 351.279 668.016 351.279 665.991Z" fill="white"/>
<path d="M374.562 639.412V643.715H371.272V639.412H374.562ZM374.309 647.765V672.572H371.019V647.765H374.309Z" fill="white"/>
<path d="M380.637 674.091H383.674C383.674 675.103 384.18 676.116 384.686 676.622C385.445 677.128 386.204 677.635 387.47 677.635C388.988 677.635 390.001 677.128 390.507 676.369C391.266 675.357 391.519 674.091 391.519 672.319V668.775C390.507 670.547 388.988 671.306 386.711 671.306C384.686 671.306 383.167 670.547 381.902 669.281C380.637 667.763 380.13 665.737 380.13 662.953V656.118C380.13 653.334 380.637 651.309 381.902 649.79C383.167 648.271 384.686 647.765 386.711 647.765C388.735 647.765 390.507 648.778 391.519 650.55V648.271H394.809V672.319C394.809 674.85 394.303 677.128 393.038 678.647C391.772 680.166 390.001 680.925 387.47 680.925C385.192 680.925 383.674 680.419 382.408 679.153C381.143 677.635 380.637 676.116 380.637 674.091ZM391.519 662.194V656.118C391.519 652.068 390.254 650.296 387.47 650.296C386.204 650.296 385.192 650.803 384.686 651.562C383.927 652.575 383.674 654.093 383.674 656.118V662.194C383.674 664.219 383.927 665.737 384.686 666.75C385.445 667.763 386.204 668.016 387.47 668.016C388.735 668.016 389.748 667.509 390.507 666.497C391.266 665.737 391.519 664.219 391.519 662.194Z" fill="white"/>
<path d="M403.92 647.765V650.043C404.426 649.284 405.186 648.524 405.945 648.018C406.704 647.512 407.716 647.259 408.729 647.259C410.753 647.259 412.272 648.018 413.284 649.284C414.297 650.55 414.803 652.321 414.803 654.6V672.572H411.513V654.853C411.513 653.334 411.26 652.321 410.5 651.562C409.741 650.803 408.729 650.296 407.716 650.296C406.451 650.296 405.692 650.803 404.933 651.562C404.173 652.321 403.92 653.334 403.92 654.853V672.572H400.63V647.765H403.92Z" fill="white"/>
<path d="M423.914 663.965C423.914 666.244 424.167 667.763 424.926 668.522C425.685 669.534 426.698 670.041 428.216 670.041C430.747 670.041 432.265 668.269 432.265 664.978V664.725H435.555V664.978C435.555 667.509 435.049 669.534 433.531 670.8C432.265 672.066 430.494 672.825 428.216 672.825C423.154 672.825 420.624 669.788 420.624 663.965V655.865C420.624 653.081 421.383 650.803 422.648 649.284C423.914 647.765 425.685 647.006 427.963 647.006C430.241 647.006 432.012 647.765 433.531 649.284C434.796 650.803 435.555 652.828 435.555 655.865V660.928H423.914V663.965ZM423.914 656.118V658.65H432.265V656.118C432.265 654.093 432.012 652.575 431.253 651.562C430.494 650.549 429.481 650.296 428.216 650.296C426.951 650.296 425.938 650.803 425.179 651.562C424.167 652.575 423.914 654.093 423.914 656.118Z" fill="white"/>
<path d="M440.364 664.472V655.865C440.364 653.081 440.87 650.803 442.136 649.537C443.401 648.018 444.92 647.512 446.944 647.512C448.969 647.512 450.74 648.524 451.753 650.296V639.665H455.043V672.825H451.753V670.547C450.74 672.319 448.969 673.078 446.944 673.078C444.92 673.078 443.401 672.319 442.136 671.053C440.87 669.534 440.364 667.256 440.364 664.472ZM451.753 664.219V656.372C451.753 652.321 450.487 650.296 447.703 650.296C445.173 650.296 443.907 652.321 443.907 656.118V663.966C443.907 665.991 444.16 667.509 444.92 668.522C445.679 669.534 446.438 669.788 447.703 669.788C448.969 669.788 449.981 669.281 450.74 668.269C451.5 667.256 451.753 665.991 451.753 664.219Z" fill="white"/>
<path d="M474.53 665.991C474.53 667.256 474.783 668.269 475.543 668.775C476.049 669.281 477.061 669.788 478.326 669.788H479.086V672.572H478.326C473.771 672.572 471.493 670.294 471.493 665.991V650.296H468.203V647.765H471.493V642.449L474.783 640.93V647.512H479.592V650.043H474.783V665.991H474.53Z" fill="white"/>
<path d="M483.641 664.472V655.865C483.641 652.828 484.4 650.803 485.666 649.537C486.931 648.271 488.703 647.512 491.234 647.512C493.511 647.512 495.283 648.271 496.548 649.537C497.814 650.803 498.573 653.081 498.573 655.865V664.472C498.573 667.256 497.814 669.534 496.548 670.8C495.283 672.066 493.511 672.825 491.234 672.825C488.956 672.825 486.931 672.066 485.666 670.8C484.147 669.534 483.641 667.509 483.641 664.472ZM495.03 664.219V656.372C495.03 654.346 494.777 652.828 494.017 651.815C493.258 650.803 492.246 650.55 490.98 650.55C489.715 650.55 488.703 651.056 487.944 651.815C487.184 652.828 486.931 654.346 486.931 656.372V664.219C486.931 666.244 487.184 668.016 487.944 668.775C488.703 669.788 489.715 670.041 490.98 670.041C492.246 670.041 493.258 669.534 494.017 668.775C494.777 667.763 495.03 666.244 495.03 664.219Z" fill="white"/>
<path d="M514.011 647.765L517.807 667.256L522.11 647.765H524.894L529.449 667.256L533.245 647.765H536.789L530.968 672.572H527.931L523.628 653.84L519.326 672.572H516.036L510.468 647.765H514.011Z" fill="white"/>
<path d="M544.128 639.412V643.715H540.838V639.412H544.128ZM544.128 647.765V672.572H540.838V647.765H544.128Z" fill="white"/>
<path d="M555.264 665.991C555.264 667.256 555.517 668.269 556.276 668.775C556.782 669.281 557.794 669.788 559.06 669.788H559.819V672.572H559.06C554.504 672.572 552.227 670.294 552.227 665.991V650.296H548.937V647.765H552.227V642.449L555.517 640.93V647.512H560.325V650.043H555.517V665.991H555.264Z" fill="white"/>
<path d="M567.918 639.412V649.79C568.424 649.031 569.183 648.271 569.942 648.018C570.702 647.512 571.714 647.259 572.726 647.259C574.751 647.259 576.269 647.765 577.282 649.284C578.294 650.55 578.8 652.321 578.8 654.6V672.572H575.51V654.853C575.51 653.334 575.257 652.321 574.498 651.562C573.739 650.803 572.726 650.296 571.714 650.296C570.449 650.296 569.689 650.803 568.93 651.562C568.171 652.321 567.918 653.334 567.918 654.853V672.572H564.628V639.412H567.918Z" fill="white"/>
<path d="M584.115 665.991V665.737H587.152V665.991C587.152 667.256 587.658 668.269 588.417 669.028C589.177 669.788 590.189 670.041 591.707 670.041C592.973 670.041 593.985 669.788 594.744 669.028C595.504 668.269 595.757 667.256 595.757 665.991C595.757 664.978 595.504 664.219 594.998 663.459C594.491 662.953 593.732 662.194 592.467 661.687L589.43 660.422C586.14 659.156 584.621 656.878 584.621 653.84C584.621 651.815 585.38 650.043 586.646 649.031C587.911 647.765 589.683 647.259 591.961 647.259C594.238 647.259 595.757 647.765 597.022 649.031C598.288 650.296 599.047 652.068 599.047 654.093V654.6H596.01V654.346C596.01 652.828 595.757 651.815 594.998 651.056C594.238 650.296 593.226 649.79 591.961 649.79C590.695 649.79 589.936 650.043 589.177 650.803C588.417 651.562 588.164 652.321 588.164 653.587C588.164 654.347 588.417 655.106 588.924 655.865C589.43 656.625 590.189 657.131 591.201 657.637L594.238 658.903C596.01 659.662 597.275 660.422 598.035 661.434C598.794 662.447 599.3 663.712 599.3 665.737C599.3 668.016 598.541 669.788 597.275 671.053C596.01 672.319 593.985 672.825 591.707 672.825C589.43 672.825 587.658 672.066 586.393 670.8C584.621 669.788 584.115 668.016 584.115 665.991Z" fill="white"/>
<path d="M608.411 665.991C608.411 667.256 608.664 668.269 609.423 668.775C609.93 669.281 610.942 669.788 612.207 669.788H612.967V672.572H612.207C607.652 672.572 605.374 670.294 605.374 665.991V650.296H602.084V647.765H605.374V642.449L608.664 640.93V647.512H613.473V650.043H608.664V665.991H608.411Z" fill="white"/>
<path d="M631.695 654.6V672.572H628.658V670.294C627.645 672.066 625.874 673.078 623.596 673.078C621.571 673.078 620.053 672.319 618.787 671.053C617.775 669.788 617.269 668.016 617.269 665.484C617.269 663.206 617.775 661.434 619.294 660.168C620.559 658.903 622.331 658.143 624.861 658.143H628.658V654.093C628.658 651.309 627.392 649.79 624.861 649.79C623.596 649.79 622.837 650.043 622.078 650.803C621.318 651.562 621.065 652.321 621.065 653.587V654.093H618.028V653.587C618.028 651.562 618.534 650.043 619.8 648.778C621.065 647.512 622.584 647.006 624.608 647.006C626.886 647.006 628.658 647.512 629.923 649.031C630.935 650.549 631.695 652.321 631.695 654.6ZM628.405 665.484V660.928H624.861C621.824 660.928 620.306 662.447 620.306 665.484C620.306 668.522 621.571 670.041 624.102 670.041C625.368 670.041 626.38 669.534 627.139 668.775C627.898 668.016 628.405 667.003 628.405 665.484Z" fill="white"/>
<path d="M640.806 647.765V650.043C641.312 649.284 642.071 648.524 642.83 648.018C643.59 647.512 644.602 647.259 645.614 647.259C647.639 647.259 649.157 648.018 650.17 649.284C651.182 650.55 651.688 652.321 651.688 654.6V672.572H648.398V654.853C648.398 653.334 648.145 652.321 647.386 651.562C646.627 650.803 645.614 650.296 644.602 650.296C643.336 650.296 642.577 650.803 641.818 651.562C641.059 652.321 640.806 653.334 640.806 654.853V672.572H637.516V647.765H640.806Z" fill="white"/>
<path d="M657.256 664.472V655.865C657.256 653.081 657.762 650.803 659.028 649.537C660.293 648.018 661.811 647.512 663.836 647.512C665.861 647.512 667.632 648.524 668.645 650.296V639.665H671.935V672.825H668.645V670.547C667.632 672.319 665.861 673.078 663.836 673.078C661.811 673.078 660.293 672.319 659.028 671.053C658.015 669.534 657.256 667.256 657.256 664.472ZM668.645 664.219V656.372C668.645 652.321 667.379 650.296 664.595 650.296C662.065 650.296 660.799 652.321 660.799 656.118V663.966C660.799 665.991 661.052 667.509 661.811 668.522C662.571 669.534 663.33 669.788 664.595 669.788C665.861 669.788 666.873 669.281 667.632 668.269C668.392 667.509 668.645 665.991 668.645 664.219Z" fill="white"/>
<path d="M227.521 712.567V703.96C227.521 700.923 228.281 698.898 229.546 697.632C230.812 696.366 232.583 695.607 235.114 695.607C237.392 695.607 239.163 696.366 240.429 697.632C241.694 698.898 242.453 701.176 242.453 703.96V712.567C242.453 715.351 241.694 717.63 240.429 718.895C239.163 720.161 237.392 720.92 235.114 720.92C232.836 720.92 230.812 720.161 229.546 718.895C228.281 717.63 227.521 715.604 227.521 712.567ZM239.163 712.314V704.467C239.163 702.442 238.91 700.923 238.151 699.91C237.392 698.898 236.379 698.645 235.114 698.645C233.849 698.645 232.836 699.151 232.077 699.91C231.318 700.923 231.065 702.442 231.065 704.467V712.314C231.065 714.339 231.318 716.111 232.077 716.87C232.836 717.883 233.849 718.136 235.114 718.136C236.379 718.136 237.392 717.63 238.151 716.87C238.657 715.858 239.163 714.339 239.163 712.314Z" fill="white"/>
<path d="M247.768 713.073V695.86H251.058V710.795C251.058 713.326 251.311 715.351 251.817 716.364C252.324 717.376 253.336 718.136 254.854 718.136C255.867 718.136 256.626 717.883 257.132 717.376C257.638 716.87 258.144 716.111 258.144 715.098C258.398 714.086 258.398 712.567 258.398 710.795V695.86H261.688V713.073C261.688 715.858 261.181 717.883 259.916 719.148C258.651 720.414 256.879 721.173 254.601 721.173C252.07 721.173 250.299 720.414 249.287 719.148C248.527 717.63 247.768 715.858 247.768 713.073Z" fill="white"/>
<path d="M273.076 714.086C273.076 715.351 273.329 716.364 274.089 716.87C274.595 717.376 275.607 717.883 276.873 717.883H277.632V720.667H276.873C272.317 720.667 270.039 718.389 270.039 714.086V698.391H266.749V695.86H270.039V690.544L273.329 689.026V695.607H278.138V698.138H273.329V714.086H273.076Z" fill="white"/>
<path d="M281.681 714.086V713.833H284.718V714.086C284.718 715.351 285.224 716.364 285.984 717.123C286.743 717.883 287.755 718.136 289.274 718.136C290.539 718.136 291.551 717.883 292.311 717.123C293.07 716.364 293.323 715.351 293.323 714.086C293.323 713.073 293.07 712.314 292.564 711.554C292.058 711.048 291.298 710.289 290.033 709.782L286.996 708.517C283.706 707.251 282.187 704.973 282.187 701.935C282.187 699.91 282.947 698.138 284.212 697.126C285.477 695.86 287.249 695.354 289.527 695.354C291.804 695.354 293.323 695.86 294.588 697.126C295.854 698.391 296.613 700.163 296.613 702.188V702.695H293.576V702.442C293.576 700.923 293.323 699.91 292.564 699.151C291.804 698.392 290.792 697.885 289.527 697.885C288.261 697.885 287.502 698.138 286.743 698.898C285.984 699.657 285.73 700.417 285.73 701.682C285.73 702.442 285.984 703.201 286.49 703.96C286.996 704.72 287.755 705.226 288.767 705.732L291.804 706.998C293.576 707.757 294.841 708.517 295.601 709.529C296.36 710.542 296.866 711.807 296.866 713.833C296.866 716.111 296.107 717.883 294.841 719.148C293.576 720.414 291.551 720.92 289.274 720.92C286.996 720.92 285.224 720.161 283.959 718.895C282.693 717.63 281.681 716.111 281.681 714.086Z" fill="white"/>
<path d="M304.712 687.507V691.81H301.422V687.507H304.712ZM304.712 695.86V720.667H301.422V695.86H304.712Z" fill="white"/>
<path d="M310.532 712.567V703.96C310.532 701.176 311.039 698.898 312.304 697.632C313.569 696.113 315.088 695.607 317.113 695.607C319.137 695.607 320.909 696.62 321.921 698.391V687.76H325.211V720.92H321.921V718.642C320.909 720.414 319.137 721.173 317.113 721.173C315.088 721.173 313.569 720.414 312.304 719.148C311.039 717.63 310.532 715.351 310.532 712.567ZM321.921 712.314V704.467C321.921 700.416 320.656 698.391 317.872 698.391C315.341 698.391 314.076 700.417 314.076 704.214V712.061C314.076 714.086 314.329 715.604 315.088 716.617C315.847 717.63 316.606 717.883 317.872 717.883C319.137 717.883 320.15 717.376 320.909 716.364C321.415 715.604 321.921 714.086 321.921 712.314Z" fill="white"/>
<path d="M333.816 712.061C333.816 714.339 334.069 715.858 334.829 716.617C335.588 717.63 336.6 718.136 338.119 718.136C340.649 718.136 342.168 716.364 342.168 713.073V712.82H345.458V713.073C345.458 715.604 344.952 717.63 343.433 718.895C342.168 720.161 340.396 720.92 338.119 720.92C333.057 720.92 330.526 717.883 330.526 712.061V703.96C330.526 701.176 331.285 698.898 332.551 697.379C333.816 695.86 335.588 695.101 337.866 695.101C340.143 695.101 341.915 695.86 343.433 697.379C344.699 698.898 345.458 700.923 345.458 703.96V709.023H333.816V712.061ZM333.816 704.214V706.745H342.168V704.214C342.168 702.188 341.915 700.67 341.156 699.657C340.396 698.645 339.384 698.391 338.119 698.391C336.853 698.391 335.841 698.898 335.082 699.657C334.322 700.67 333.816 702.188 333.816 704.214Z" fill="white"/>
<path d="M364.439 714.086C364.439 715.351 364.692 716.364 365.451 716.87C365.958 717.376 366.97 717.883 368.235 717.883H368.995V720.667H368.235C363.68 720.667 361.402 718.389 361.402 714.086V698.391H358.112V695.86H361.402V690.544L364.692 689.026V695.607H369.501V698.138H364.439V714.086Z" fill="white"/>
<path d="M376.84 712.061C376.84 714.339 377.093 715.858 377.853 716.617C378.612 717.63 379.624 718.136 381.143 718.136C383.674 718.136 385.192 716.364 385.192 713.073V712.82H388.482V713.073C388.482 715.604 387.976 717.63 386.457 718.895C385.192 720.161 383.421 720.92 381.143 720.92C376.081 720.92 373.55 717.883 373.55 712.061V703.96C373.55 701.176 374.31 698.898 375.575 697.379C376.84 695.86 378.612 695.101 380.89 695.101C383.167 695.101 384.939 695.86 386.457 697.379C387.723 698.898 388.482 700.923 388.482 703.96V709.023H376.84V712.061ZM376.84 704.214V706.745H385.192V704.214C385.192 702.188 384.939 700.67 384.18 699.657C383.421 698.645 382.408 698.391 381.143 698.391C379.877 698.391 378.865 698.898 378.106 699.657C377.093 700.67 376.84 702.188 376.84 704.214Z" fill="white"/>
<path d="M397.087 695.86V698.138C397.593 697.379 398.352 696.62 399.111 696.113C399.871 695.607 400.883 695.354 401.895 695.354C403.161 695.354 404.173 695.607 405.185 696.113C406.198 696.62 406.957 697.379 407.463 698.391C407.969 697.379 408.729 696.62 409.741 696.113C410.753 695.607 411.766 695.354 412.778 695.354C414.803 695.354 416.574 695.86 417.587 697.379C418.599 698.645 419.105 700.417 419.105 702.695V720.667H415.815V702.948C415.815 701.429 415.562 700.417 414.803 699.657C414.043 698.898 413.284 698.391 412.019 698.391C410.753 698.391 409.994 698.898 409.235 699.657C408.476 700.417 408.222 701.429 408.222 702.948V720.92H404.932V703.201C404.932 701.682 404.679 700.67 403.92 699.91C403.161 699.151 402.148 698.645 401.136 698.645C399.871 698.645 399.111 699.151 398.352 699.91C397.593 700.67 397.34 701.682 397.34 703.201V720.92H394.05V696.113H397.087V695.86Z" fill="white"/>
<path d="M428.469 695.86V698.138C429.481 696.366 431.253 695.354 433.278 695.354C435.302 695.354 436.821 696.113 438.086 697.379C439.352 698.898 439.858 700.923 439.858 703.707V712.314C439.858 715.098 439.352 717.376 438.086 718.642C436.821 720.161 435.302 720.667 433.278 720.667C431.253 720.667 429.481 719.908 428.469 718.136V727.755H425.179V695.607H428.469V695.86ZM436.315 712.314V704.467C436.315 700.417 435.049 698.645 432.518 698.645C431.253 698.645 430.241 699.151 429.481 700.163C428.722 701.176 428.469 702.695 428.469 704.72V712.567C428.469 714.592 428.722 715.858 429.481 716.87C430.241 717.883 431.253 718.389 432.518 718.389C433.784 718.389 434.796 717.883 435.302 717.123C436.062 715.858 436.315 714.339 436.315 712.314Z" fill="white"/>
<path d="M447.957 712.061C447.957 714.339 448.21 715.858 448.969 716.617C449.728 717.63 450.74 718.136 452.259 718.136C454.79 718.136 456.308 716.364 456.308 713.073V712.82H459.598V713.073C459.598 715.604 459.092 717.63 457.574 718.895C456.308 720.161 454.537 720.92 452.259 720.92C447.197 720.92 444.667 717.883 444.667 712.061V703.96C444.667 701.176 445.426 698.898 446.691 697.379C447.957 695.86 449.728 695.101 452.006 695.101C454.284 695.101 456.055 695.86 457.574 697.379C458.839 698.898 459.598 700.923 459.598 703.96V709.023H447.957V712.061ZM447.957 704.214V706.745H456.308V704.214C456.308 702.188 456.055 700.67 455.296 699.657C454.537 698.645 453.524 698.391 452.259 698.391C450.994 698.391 449.981 698.898 449.222 699.657C448.463 700.67 447.957 702.188 447.957 704.214Z" fill="white"/>
<path d="M468.203 695.86V698.391C468.709 697.379 469.468 696.62 470.481 696.366C471.493 695.86 472.505 695.607 473.518 695.607C474.277 695.607 474.783 695.607 475.289 695.86V699.151C474.53 698.898 473.518 698.645 473.012 698.645C471.746 698.645 470.734 699.151 469.722 699.91C468.962 700.67 468.456 701.935 468.456 703.201V720.92H465.166V696.113H468.203V695.86Z" fill="white"/>
<path d="M492.752 702.695V720.667H489.715V718.389C488.703 720.161 486.931 721.173 484.653 721.173C482.629 721.173 481.11 720.414 479.845 719.148C478.833 717.883 478.326 716.111 478.326 713.579C478.326 711.301 478.833 709.529 480.351 708.264C481.617 706.998 483.388 706.239 485.919 706.239H489.715V702.188C489.715 699.404 488.45 697.885 485.919 697.885C484.653 697.885 483.894 698.138 483.135 698.898C482.376 699.657 482.123 700.417 482.123 701.682V702.188H479.086V701.682C479.086 699.657 479.592 698.138 480.857 696.873C482.123 695.607 483.641 695.101 485.666 695.101C487.944 695.101 489.715 695.607 490.981 697.126C492.246 698.645 492.752 700.417 492.752 702.695ZM489.462 713.579V709.023H485.919C482.882 709.023 481.363 710.542 481.363 713.579C481.363 716.617 482.629 718.136 485.16 718.136C486.425 718.136 487.437 717.63 488.197 716.87C489.209 716.111 489.462 715.098 489.462 713.579Z" fill="white"/>
<path d="M503.635 714.086C503.635 715.351 503.888 716.364 504.647 716.87C505.153 717.376 506.166 717.883 507.431 717.883H508.19V720.667H507.431C502.875 720.667 500.598 718.389 500.598 714.086V698.391H497.308V695.86H500.598V690.544L503.888 689.026V695.607H508.696V698.138H503.635V714.086Z" fill="white"/>
<path d="M513.252 713.073V695.86H516.542V710.795C516.542 713.326 516.795 715.351 517.301 716.364C517.807 717.376 518.82 718.136 520.338 718.136C521.351 718.136 522.11 717.883 522.616 717.376C523.122 716.87 523.628 716.111 523.628 715.098C523.881 714.086 523.881 712.567 523.881 710.795V695.86H527.172V713.073C527.172 715.858 526.665 717.883 525.4 719.148C524.135 720.414 522.363 721.173 520.085 721.173C517.554 721.173 515.783 720.414 514.77 719.148C513.758 717.63 513.252 715.858 513.252 713.073Z" fill="white"/>
<path d="M536.536 695.86V698.391C537.042 697.379 537.801 696.62 538.813 696.366C539.826 695.86 540.838 695.607 541.85 695.607C542.61 695.607 543.116 695.607 543.622 695.86V699.151C542.863 698.898 541.85 698.645 541.344 698.645C540.079 698.645 539.066 699.151 538.054 699.91C537.295 700.67 536.789 701.935 536.789 703.201V720.92H533.499V696.113H536.536V695.86Z" fill="white"/>
<path d="M550.455 712.061C550.455 714.339 550.708 715.858 551.467 716.617C552.227 717.63 553.239 718.136 554.757 718.136C557.288 718.136 558.807 716.364 558.807 713.073V712.82H562.097V713.073C562.097 715.604 561.591 717.63 560.072 718.895C558.807 720.161 557.035 720.92 554.757 720.92C549.696 720.92 547.165 717.883 547.165 712.061V703.96C547.165 701.176 547.924 698.898 549.19 697.379C550.455 695.86 552.227 695.101 554.504 695.101C556.782 695.101 558.554 695.86 560.072 697.379C561.338 698.898 562.097 700.923 562.097 703.96V709.023H550.455V712.061ZM550.455 704.214V706.745H558.807V704.214C558.807 702.188 558.554 700.67 557.794 699.657C557.035 698.645 556.023 698.391 554.757 698.391C553.492 698.391 552.48 698.898 551.72 699.657C550.708 700.67 550.455 702.188 550.455 704.214Z" fill="white"/>
<path d="M579.813 687.507V691.81H576.523V687.507H579.813ZM579.56 695.86V720.667H576.27V695.86H579.56Z" fill="white"/>
<path d="M589.177 695.86V698.138C589.683 697.379 590.442 696.62 591.201 696.113C591.961 695.607 592.973 695.354 593.985 695.354C596.01 695.354 597.529 696.113 598.541 697.379C599.553 698.645 600.059 700.417 600.059 702.695V720.667H596.769V702.948C596.769 701.429 596.516 700.417 595.757 699.657C594.998 698.898 593.985 698.391 592.973 698.391C591.708 698.391 590.948 698.898 590.189 699.657C589.43 700.417 589.177 701.429 589.177 702.948V720.667H585.887V695.86H589.177Z" fill="white"/>
<path d="M628.405 702.695V720.667H625.368V718.389C624.355 720.161 622.584 721.173 620.306 721.173C618.281 721.173 616.763 720.414 615.497 719.148C614.485 717.883 613.979 716.111 613.979 713.579C613.979 711.301 614.485 709.529 616.004 708.264C617.269 706.998 619.041 706.239 621.571 706.239H625.368V702.188C625.368 699.404 624.102 697.885 621.571 697.885C620.306 697.885 619.547 698.138 618.787 698.898C618.028 699.657 617.775 700.417 617.775 701.682V702.188H614.738V701.682C614.738 699.657 615.244 698.138 616.51 696.873C617.775 695.607 619.294 695.101 621.318 695.101C623.596 695.101 625.368 695.607 626.633 697.126C627.898 698.645 628.405 700.417 628.405 702.695ZM625.115 713.579V709.023H621.571C618.534 709.023 617.016 710.542 617.016 713.579C617.016 716.617 618.281 718.136 620.812 718.136C622.078 718.136 623.09 717.63 623.849 716.87C624.861 716.111 625.115 715.098 625.115 713.579Z" fill="white"/>
<path d="M266.243 770.281H269.28C269.28 771.294 269.786 772.306 270.292 772.812C271.052 773.319 271.811 773.825 273.076 773.825C274.595 773.825 275.607 773.319 276.113 772.559C276.872 771.547 277.126 770.281 277.126 768.509V764.965C276.113 766.737 274.595 767.497 272.317 767.497C270.292 767.497 268.774 766.737 267.508 765.471C266.243 763.953 265.737 761.928 265.737 759.143V752.309C265.737 749.524 266.243 747.499 267.508 745.98C268.774 744.462 270.292 743.955 272.317 743.955C274.342 743.955 276.113 744.968 277.126 746.74V744.462H280.416V768.509C280.416 771.04 279.909 773.319 278.644 774.837C277.379 776.356 275.607 777.116 273.076 777.116C270.798 777.116 269.28 776.609 268.015 775.344C267.002 773.825 266.496 772.306 266.243 770.281ZM277.379 758.384V752.309C277.379 748.259 276.113 746.487 273.329 746.487C272.064 746.487 271.052 746.993 270.545 747.752C269.786 748.765 269.533 750.284 269.533 752.309V758.384C269.533 760.409 269.786 761.928 270.545 762.94C271.305 763.953 272.064 764.206 273.329 764.206C274.595 764.206 275.607 763.7 276.366 762.687C277.126 761.928 277.379 760.409 277.379 758.384Z" fill="white"/>
<path d="M300.156 750.79V768.762H297.119V766.484C296.107 768.256 294.335 769.268 292.058 769.268C290.033 769.268 288.514 768.509 287.249 767.243C286.237 765.978 285.73 764.206 285.73 761.675C285.73 759.396 286.237 757.624 287.755 756.359C289.021 755.093 290.792 754.334 293.323 754.334H297.119V750.284C297.119 747.499 295.854 745.98 293.323 745.98C292.058 745.98 291.298 746.234 290.539 746.993C289.78 747.752 289.527 748.512 289.527 749.777V750.284H286.49V749.777C286.49 747.752 286.996 746.233 288.261 744.968C289.527 743.702 291.045 743.196 293.07 743.196C295.348 743.196 297.119 743.702 298.385 745.221C299.65 746.74 300.156 748.512 300.156 750.79ZM296.866 761.675V757.118H293.323C290.286 757.118 288.767 758.637 288.767 761.675C288.767 764.712 290.033 766.231 292.564 766.231C293.829 766.231 294.841 765.725 295.601 764.965C296.613 764.206 296.866 763.193 296.866 761.675Z" fill="white"/>
<path d="M309.267 743.955V746.487C309.773 745.474 310.533 744.715 311.545 744.462C312.557 744.208 313.57 743.702 314.582 743.702C315.341 743.702 315.847 743.702 316.354 743.955V747.246C315.594 746.993 314.582 746.74 314.076 746.74C312.81 746.74 311.798 747.246 310.786 748.005C310.026 748.765 309.52 750.03 309.52 751.296V769.015H306.23V744.208H309.267V743.955Z" fill="white"/>
<path d="M333.816 750.79V768.762H330.779V766.484C329.767 768.256 327.995 769.268 325.717 769.268C323.693 769.268 322.174 768.509 320.909 767.243C319.897 765.978 319.39 764.206 319.39 761.675C319.39 759.396 319.897 757.624 321.415 756.359C322.68 755.093 324.452 754.334 326.983 754.334H330.779V750.284C330.779 747.499 329.514 745.98 326.983 745.98C325.717 745.98 324.958 746.234 324.199 746.993C323.44 747.752 323.187 748.512 323.187 749.777V750.284H320.15V749.777C320.15 747.752 320.656 746.233 321.921 744.968C323.187 743.702 324.705 743.196 326.73 743.196C329.008 743.196 330.779 743.702 332.045 745.221C333.31 746.74 333.816 748.512 333.816 750.79ZM330.526 761.675V757.118H326.983C323.946 757.118 322.427 758.637 322.427 761.675C322.427 764.712 323.693 766.231 326.224 766.231C327.489 766.231 328.501 765.725 329.261 764.965C330.273 764.206 330.526 763.193 330.526 761.675Z" fill="white"/>
<path d="M339.637 770.281H342.674C342.674 771.294 343.18 772.306 343.686 772.812C344.446 773.319 345.205 773.825 346.47 773.825C347.989 773.825 349.001 773.319 349.507 772.559C350.267 771.547 350.52 770.281 350.52 768.509V764.965C349.507 766.737 347.989 767.497 345.711 767.497C343.686 767.497 342.168 766.737 340.902 765.471C339.637 763.953 339.131 761.928 339.131 759.143V752.309C339.131 749.524 339.637 747.499 340.902 745.98C342.168 744.462 343.686 743.955 345.711 743.955C347.736 743.955 349.507 744.968 350.52 746.74V744.462H353.81V768.509C353.81 771.04 353.304 773.319 352.038 774.837C350.773 776.356 349.001 777.116 346.47 777.116C344.192 777.116 342.674 776.609 341.409 775.344C340.396 773.825 339.637 772.306 339.637 770.281ZM350.773 758.384V752.309C350.773 748.259 349.507 746.487 346.723 746.487C345.458 746.487 344.446 746.993 343.939 747.752C343.18 748.765 342.927 750.284 342.927 752.309V758.384C342.927 760.409 343.18 761.928 343.939 762.94C344.699 763.953 345.458 764.206 346.723 764.206C347.989 764.206 349.001 763.7 349.76 762.687C350.266 761.928 350.773 760.409 350.773 758.384Z" fill="white"/>
<path d="M362.668 760.156C362.668 762.434 362.921 763.953 363.68 764.712C364.439 765.725 365.451 766.231 366.97 766.231C369.501 766.231 371.019 764.459 371.019 761.168V760.915H374.309V761.168C374.309 763.7 373.803 765.725 372.285 766.99C371.019 768.256 369.248 769.015 366.97 769.015C361.908 769.015 359.377 765.978 359.377 760.156V752.056C359.377 749.271 360.137 746.993 361.402 745.474C362.668 743.955 364.439 743.196 366.717 743.196C368.995 743.196 370.766 743.955 372.285 745.474C373.55 746.993 374.309 749.018 374.309 752.056V757.118H362.668V760.156ZM362.668 752.309V754.84H371.019V752.309C371.019 750.284 370.766 748.765 370.007 747.752C369.248 746.74 368.235 746.487 366.97 746.487C365.705 746.487 364.692 746.993 363.933 747.752C362.921 748.765 362.668 750.284 362.668 752.309Z" fill="white"/>
<path d="M391.266 760.156C391.266 762.434 391.519 763.953 392.278 764.712C393.037 765.725 394.05 766.231 395.568 766.231C398.099 766.231 399.618 764.459 399.618 761.168V760.915H402.908V761.168C402.908 763.7 402.402 765.725 400.883 766.99C399.618 768.256 397.846 769.015 395.568 769.015C390.507 769.015 387.976 765.978 387.976 760.156V752.056C387.976 749.271 388.735 746.993 390.001 745.474C391.266 743.955 393.037 743.196 395.315 743.196C397.593 743.196 399.365 743.955 400.883 745.474C402.148 746.993 402.908 749.018 402.908 752.056V757.118H391.266V760.156ZM391.266 752.309V754.84H399.618V752.309C399.618 750.284 399.365 748.765 398.605 747.752C397.846 746.74 396.834 746.487 395.568 746.487C394.303 746.487 393.291 746.993 392.531 747.752C391.519 748.765 391.266 750.284 391.266 752.309Z" fill="white"/>
<path d="M411.512 743.955V746.233C412.019 745.474 412.778 744.715 413.537 744.208C414.296 743.702 415.309 743.449 416.321 743.449C418.346 743.449 419.864 744.208 420.877 745.474C421.889 746.74 422.395 748.512 422.395 750.79V768.762H419.105V751.043C419.105 749.524 418.852 748.512 418.093 747.752C417.333 746.993 416.321 746.487 415.309 746.487C414.043 746.487 413.284 746.993 412.525 747.752C411.766 748.512 411.512 749.524 411.512 751.043V768.762H408.222V743.955H411.512Z" fill="white"/>
<path d="M429.988 743.955L434.543 763.7L439.099 743.955H442.642L436.062 768.762H432.772L426.191 743.955H429.988Z" fill="white"/>
<path d="M450.234 735.602V739.905H446.944V735.602H450.234ZM449.981 743.955V768.762H446.691V743.955H449.981Z" fill="white"/>
<path d="M459.598 743.955V746.487C460.104 745.474 460.864 744.715 461.876 744.462C462.888 743.955 463.901 743.702 464.913 743.702C465.672 743.702 466.178 743.702 466.685 743.955V747.246C465.925 746.993 464.913 746.74 464.407 746.74C463.141 746.74 462.129 747.246 461.117 748.005C460.358 748.765 459.851 750.03 459.851 751.296V769.015H456.561V744.208H459.598V743.955Z" fill="white"/>
<path d="M470.228 760.662V752.055C470.228 749.018 470.987 746.993 472.252 745.727C473.518 744.462 475.289 743.702 477.82 743.702C480.098 743.702 481.87 744.462 483.135 745.727C484.4 746.993 485.16 749.271 485.16 752.055V760.662C485.16 763.446 484.4 765.725 483.135 766.99C481.87 768.256 480.098 769.015 477.82 769.015C475.543 769.015 473.518 768.256 472.252 766.99C470.734 765.725 470.228 763.7 470.228 760.662ZM481.617 760.409V752.562C481.617 750.537 481.363 749.018 480.604 748.005C479.845 746.993 478.833 746.74 477.567 746.74C476.302 746.74 475.289 747.246 474.53 748.005C473.771 749.018 473.518 750.537 473.518 752.562V760.409C473.518 762.434 473.771 764.206 474.53 764.965C475.289 765.978 476.302 766.231 477.567 766.231C478.833 766.231 479.845 765.725 480.604 764.965C481.363 763.953 481.617 762.434 481.617 760.409Z" fill="white"/>
<path d="M493.511 743.955V746.233C494.017 745.474 494.777 744.715 495.536 744.208C496.295 743.702 497.308 743.449 498.32 743.449C500.344 743.449 501.863 744.208 502.875 745.474C503.888 746.74 504.394 748.512 504.394 750.79V768.762H501.104V751.043C501.104 749.524 500.851 748.512 500.091 747.752C499.332 746.993 498.32 746.487 497.308 746.487C496.042 746.487 495.283 746.993 494.524 747.752C493.764 748.512 493.511 749.524 493.511 751.043V768.762H490.221V743.955H493.511Z" fill="white"/>
<path d="M514.011 743.955V746.233C514.517 745.474 515.277 744.715 516.036 744.208C516.795 743.702 517.807 743.449 518.82 743.449C520.085 743.449 521.097 743.702 522.11 744.208C523.122 744.715 523.881 745.474 524.388 746.487C524.894 745.474 525.653 744.715 526.665 744.208C527.678 743.702 528.69 743.449 529.702 743.449C531.727 743.449 533.498 743.955 534.511 745.474C535.523 746.74 536.029 748.512 536.029 750.79V768.762H532.739V751.043C532.739 749.524 532.486 748.512 531.727 747.752C530.968 746.993 530.208 746.487 528.943 746.487C527.678 746.487 526.918 746.993 526.159 747.752C525.4 748.512 525.147 749.524 525.147 751.043V769.015H521.857V751.296C521.857 749.777 521.604 748.765 520.844 748.005C520.085 747.246 519.073 746.74 518.06 746.74C516.795 746.74 516.036 747.246 515.277 748.005C514.517 748.765 514.264 749.777 514.264 751.296V769.015H510.974V744.208H514.011V743.955Z" fill="white"/>
<path d="M544.887 760.156C544.887 762.434 545.14 763.953 545.9 764.712C546.659 765.725 547.671 766.231 549.19 766.231C551.72 766.231 553.239 764.459 553.239 761.168V760.915H556.529V761.168C556.529 763.7 556.023 765.725 554.504 766.99C553.239 768.256 551.467 769.015 549.19 769.015C544.128 769.015 541.597 765.978 541.597 760.156V752.056C541.597 749.271 542.356 746.993 543.622 745.474C544.887 743.955 546.659 743.196 548.937 743.196C551.214 743.196 552.986 743.955 554.504 745.474C555.77 746.993 556.529 749.018 556.529 752.056V757.118H544.887V760.156ZM544.887 752.309V754.84H553.239V752.309C553.239 750.284 552.986 748.765 552.227 747.752C551.467 746.74 550.455 746.487 549.19 746.487C547.924 746.487 546.912 746.993 546.153 747.752C545.14 748.765 544.887 750.284 544.887 752.309Z" fill="white"/>
<path d="M565.134 743.955V746.233C565.64 745.474 566.399 744.715 567.159 744.208C567.918 743.702 568.93 743.449 569.942 743.449C571.967 743.449 573.486 744.208 574.498 745.474C575.51 746.74 576.016 748.512 576.016 750.79V768.762H572.726V751.043C572.726 749.524 572.473 748.512 571.714 747.752C570.955 746.993 569.942 746.487 568.93 746.487C567.665 746.487 566.905 746.993 566.146 747.752C565.387 748.512 565.134 749.524 565.134 751.043V768.762H561.844V743.955H565.134Z" fill="white"/>
<path d="M586.899 762.181C586.899 763.446 587.152 764.459 587.911 764.965C588.417 765.472 589.43 765.978 590.695 765.978H591.454V768.762H590.695C586.14 768.762 583.862 766.484 583.862 762.181V746.487H580.572V743.955H583.862V738.639L587.152 737.121V743.702H591.961V746.233H587.152V762.181H586.899Z" fill="white"/>
<path d="M599.3 764.459V768.762H595.504V764.459H599.3Z" fill="white"/>
<path d="M429.228 838.121C647.136 838.121 823.784 661.437 823.784 443.487C823.784 225.538 647.136 48.8545 429.228 48.8545C211.321 48.8545 34.6724 225.538 34.6724 443.487C34.6724 661.437 211.321 838.121 429.228 838.121Z" stroke="#EC008C" stroke-width="0.3" stroke-miterlimit="10"/>
<defs>
<radialGradient id="paint0_radial_2_562" cx="0" cy="0" r="1" gradientUnits="userSpaceOnUse" gradientTransform="translate(377.634 149.749) scale(35.2851 35.292)">
<stop stop-color="#C01F42"/>
<stop offset="0.5" stop-color="#C01F42"/>
<stop offset="0.7448" stop-color="#BE1F41"/>
<stop offset="0.8478" stop-color="#B71E3E"/>
<stop offset="0.9239" stop-color="#AC1D39"/>
<stop offset="0.9867" stop-color="#9D1B32"/>
<stop offset="1" stop-color="#991A30"/>
</radialGradient>
<linearGradient id="paint1_linear_2_562" x1="365.025" y1="121.307" x2="382.888" y2="170.375" gradientUnits="userSpaceOnUse">
<stop stop-color="#F48996"/>
<stop offset="0.0724654" stop-color="#E97C88"/>
<stop offset="0.3046" stop-color="#D65865"/>
<stop offset="0.5118" stop-color="#C93C51"/>
<stop offset="0.6843" stop-color="#C22746"/>
<stop offset="0.8011" stop-color="#C01F42"/>
<stop offset="1" stop-color="#C01F42"/>
</linearGradient>
<linearGradient id="paint2_linear_2_562" x1="356.301" y1="133.434" x2="397.268" y2="174.393" gradientUnits="userSpaceOnUse">
<stop stop-color="#CD435D"/>
<stop offset="0.1069" stop-color="#BA3750"/>
<stop offset="0.2639" stop-color="#A72944"/>
<stop offset="0.4414" stop-color="#9A203B"/>
<stop offset="0.6548" stop-color="#931A36"/>
<stop offset="1" stop-color="#911834"/>
</linearGradient>
<linearGradient id="paint3_linear_2_562" x1="379.89" y1="149.389" x2="380.641" y2="149.389" gradientUnits="userSpaceOnUse">
<stop stop-color="#B4BDC3"/>
<stop offset="0.4731" stop-color="#686C72"/>
<stop offset="0.8219" stop-color="#41464D"/>
<stop offset="1" stop-color="#343A41"/>
</linearGradient>
<linearGradient id="paint4_linear_2_562" x1="386.624" y1="164.284" x2="387.285" y2="164.284" gradientUnits="userSpaceOnUse">
<stop stop-color="#B3BBC1"/>
<stop offset="0.1153" stop-color="#9BA2A7"/>
<stop offset="0.5377" stop-color="#595E62"/>
<stop offset="0.8438" stop-color="#373E42"/>
<stop offset="1" stop-color="#2B3337"/>
</linearGradient>
<linearGradient id="paint5_linear_2_562" x1="364.943" y1="136.836" x2="371.187" y2="143.079" gradientUnits="userSpaceOnUse">
<stop stop-color="#ACBBC3"/>
<stop offset="1" stop-color="#262B31"/>
</linearGradient>
<linearGradient id="paint6_linear_2_562" x1="355.994" y1="132.966" x2="396.913" y2="173.877" gradientUnits="userSpaceOnUse">
<stop stop-color="#B4BDC3"/>
<stop offset="1" stop-color="#3F464E"/>
</linearGradient>
<linearGradient id="paint7_linear_2_562" x1="404.811" y1="150.782" x2="352.901" y2="150.782" gradientUnits="userSpaceOnUse">
<stop stop-color="#B4BDC3"/>
<stop offset="1" stop-color="#49525A"/>
</linearGradient>
<linearGradient id="paint8_linear_2_562" x1="379.923" y1="123.78" x2="380.58" y2="123.78" gradientUnits="userSpaceOnUse">
<stop stop-color="#B3BBC1"/>
<stop offset="0.1153" stop-color="#9BA2A7"/>
<stop offset="0.5377" stop-color="#595E62"/>
<stop offset="0.8438" stop-color="#373E42"/>
<stop offset="1" stop-color="#2B3337"/>
</linearGradient>
<radialGradient id="paint9_radial_2_562" cx="0" cy="0" r="1" gradientUnits="userSpaceOnUse" gradientTransform="translate(367.439 138.774) scale(43.3188 43.3272)">
<stop stop-color="white"/>
<stop offset="0.35" stop-color="white"/>
<stop offset="0.5127" stop-color="#F8F9FA"/>
<stop offset="0.6806" stop-color="#EBEDEF"/>
<stop offset="0.8503" stop-color="#D7DEE1"/>
<stop offset="1" stop-color="#C0CCD2"/>
</radialGradient>
<radialGradient id="paint10_radial_2_562" cx="0" cy="0" r="1" gradientUnits="userSpaceOnUse" gradientTransform="translate(366.375 138.476) scale(6.32638 6.32762)">
<stop stop-color="white"/>
<stop offset="0.35" stop-color="white"/>
<stop offset="0.5437" stop-color="#F8F9FA"/>
<stop offset="0.7444" stop-color="#EBEEF0"/>
<stop offset="0.9476" stop-color="#D7DFE3"/>
<stop offset="1" stop-color="#D0DBDF"/>
</radialGradient>
</defs>
</svg>
