<svg width="530" height="256" viewBox="0 0 530 256" fill="none" xmlns="http://www.w3.org/2000/svg">
<path fill-rule="evenodd" clip-rule="evenodd" d="M274.094 141.708V158.833C275.55 157.176 276.246 156.527 276.773 155.763C286.107 142.198 304.028 135.864 320.724 140.254C336.67 144.444 347.49 157.316 348.827 174.229C349.377 181.181 349.291 188.187 349.313 195.171C349.373 213.34 349.334 231.508 349.334 249.677V255.841C339.67 255.841 330.518 255.943 321.381 255.649C320.662 255.624 319.465 252.845 319.456 251.341C319.323 231.931 319.387 212.52 319.347 193.11C319.34 189.854 319.246 186.584 318.929 183.347C317.916 173.047 312.424 166.529 303.452 164.768C292.595 162.635 283.269 166.264 279.252 175.882C276.573 182.292 275.122 189.593 274.888 196.554C274.291 214.237 274.689 231.953 274.689 249.654V255.839C264.935 255.839 255.618 255.883 246.304 255.746C245.651 255.736 244.665 254.469 244.458 253.634C244.13 252.312 244.31 250.86 244.31 249.464C244.306 221.046 244.271 192.627 244.333 164.21C244.349 156.945 244.68 149.678 244.865 142.41C252.308 142.177 259.751 141.929 267.196 141.717C269.197 141.659 271.201 141.708 274.094 141.708Z" fill="#165416"/>
<path fill-rule="evenodd" clip-rule="evenodd" d="M115.6 142.053C116.48 141.93 117.225 141.738 117.97 141.737C126.707 141.714 135.448 141.724 144.874 141.724V157.457C145.448 157.796 146.022 158.135 146.596 158.476C146.821 157.749 146.88 156.907 147.298 156.312C157.367 141.956 174.934 135.681 191.823 140.359C208.849 145.077 219.707 159.013 219.964 177.745C220.303 202.426 220.056 227.113 220.056 251.797C220.056 253.828 220.337 255.946 217.148 255.92C208.423 255.845 199.695 255.894 190.457 255.894C190.333 253.776 190.14 251.989 190.138 250.201C190.118 230.021 190.138 209.839 190.105 189.657C190.101 187.336 189.988 184.995 189.658 182.701C188.067 171.639 182.469 165.825 172.232 164.455C161.654 163.039 152.51 167.615 149.095 177.657C146.793 184.423 145.786 191.871 145.585 199.051C145.101 216.426 145.345 233.823 145.493 251.21C145.523 254.785 144.547 256.114 140.756 255.992C132.506 255.722 124.242 255.909 115.6 255.909V142.053Z" fill="#165416"/>
<path fill-rule="evenodd" clip-rule="evenodd" d="M499.331 141.716H529.066V167.456H499.687C499.547 169.417 499.35 170.91 499.348 172.401C499.325 188.697 499.307 204.989 499.348 221.283C499.365 228.166 501.303 230.017 508.34 230.043C515.177 230.071 522.018 230.049 529.408 230.049C529.408 238.239 529.488 245.957 529.284 253.672C529.263 254.436 527.511 255.793 526.552 255.8C512.652 255.918 498.74 256.177 484.853 255.709C476.626 255.431 471.457 249.176 471.429 240.684C471.357 218.495 471.402 196.305 471.4 174.112V167.631H448.423C448.423 159.378 448.316 151.665 448.588 143.969C448.618 143.175 450.909 141.861 452.19 141.815C458.384 141.587 464.586 141.712 471.4 141.712C471.4 132.139 471.397 123.178 471.402 114.216C471.406 107.732 471.412 107.728 478.023 107.724C483.646 107.721 489.278 107.907 494.89 107.661C498.468 107.504 499.466 108.88 499.387 112.255C499.2 120.164 499.329 128.082 499.331 135.996V141.716Z" fill="#165416"/>
<path fill-rule="evenodd" clip-rule="evenodd" d="M371.625 167.596V142.011H420.984V147.716C420.986 173.499 421.051 199.282 420.912 225.063C420.892 228.804 421.783 230.312 425.832 230.135C432.841 229.826 439.873 230.049 447.344 230.049V255.54C446.014 255.663 444.68 255.892 443.346 255.892C419.894 255.914 396.443 255.844 372.993 255.978C369.417 256 367.944 255.122 368.087 251.333C368.344 244.52 368.158 237.695 368.158 230.286H394.455C394.654 228.422 394.916 227.101 394.92 225.779C394.948 207.918 394.837 190.056 395.021 172.196C395.057 168.446 393.851 167.365 390.203 167.524C384.151 167.788 378.076 167.596 371.625 167.596Z" fill="#165416"/>
<path fill-rule="evenodd" clip-rule="evenodd" d="M43.2284 230.138V167.603H19.9283C19.9283 159.451 19.8476 151.738 20.0503 144.029C20.069 143.239 21.7782 141.833 22.7144 141.824C38.0014 141.684 53.2884 141.725 69.2658 141.725V229.885H96.1044V255.638H17.0615V230.138H43.2284Z" fill="#165416"/>
<path fill-rule="evenodd" clip-rule="evenodd" d="M56.3168 112.31C24.7597 112.282 0.2645 87.5237 0.00183629 56.026C-0.253322 25.2943 26.1181 -0.656475 57.1424 0.0126585C88.1967 0.683656 113.039 25.3223 113.093 56.3708C113.148 87.6057 86.5212 113.066 56.3168 112.31Z" fill="#4DB935"/>
</svg>
