<svg width="327" height="281" viewBox="0 0 327 281" fill="none" xmlns="http://www.w3.org/2000/svg">
<path d="M20.6 262L30.4 280.2H18.4L11 265.7V280.2H0V246.1H11V258.4L18.4 246.1H30.4L20.6 262Z" fill="#006243"/>
<path d="M31.7002 252.6L37.2002 246.1H56.6002L62.1002 251.9V273.7L56.6002 280.2H37.2002L31.7002 274.4V252.6ZM51.0002 254H42.7002V272.3H51.0002V254Z" fill="#006243"/>
<path d="M261.6 252.6L267.1 246.1H286.4L291.9 251.9V273.7L286.4 280.2H267.1L261.6 274.4V252.6ZM280.9 254H272.6V272.3H280.9V254Z" fill="#006243"/>
<path d="M82.4998 273.9L75.4998 260.8V280.2H65.7998V246.1H77.1998L84.1998 258.4L90.2998 246.1H101.7V280.2H91.9998V260.8L85.8998 273.9H82.4998Z" fill="#006243"/>
<path d="M127.6 269.3H115.6V280.2H105.6V246.1H127.6L133.2 251.9V262.8L127.6 269.3ZM122.1 253.3H115.7V261.3H122.1V253.3Z" fill="#006243"/>
<path d="M168.2 280.2H156.2L148.8 269.3H146.9V280.2H136.9V246.1H158.9L164.5 251.9V262.8L158.9 267.1L168.2 280.2ZM153.4 253.3H147V261.3H153.4V253.3Z" fill="#006243"/>
<path d="M326.6 280.2H314.6L307.2 269.3H305.3V280.2H295.3V246.1H317.3L322.9 251.9V262.8L317.3 267.1L326.6 280.2ZM311.9 253.3H305.5V261.3H311.9V253.3Z" fill="#006243"/>
<path d="M170.3 246.1H194.2L192.7 253.3H180.3V258.4H194.2L192.7 265.7H180.3V272.9H194.2L192.7 280.2H170.3V246.1Z" fill="#006243"/>
<path d="M227.9 268.6L221.5 280.2H200.6L197.6 271.5H214.4L216.1 268.6L203.9 265.6L197.6 257.7L203.9 246.1H224.9L227.9 254.7H211.1L209.4 257.7L221.5 260.6L227.9 268.6Z" fill="#006243"/>
<path d="M259.4 268.6L253 280.2H232.1L229.1 271.5H245.9L247.6 268.6L235.5 265.6L229.1 257.7L235.5 246.1H256.4L259.4 254.7H242.6L240.9 257.7L253 260.6L259.4 268.6Z" fill="#006243"/>
<path d="M214.499 8.69995H112.199C78.7994 8.69995 63.8994 25.2 63.8994 62.3V154.1C63.8994 192.3 77.8994 208.6 110.799 208.6H215.999C248.899 208.6 262.899 192.3 262.899 154.1V62.3C262.799 25.2 247.899 8.69995 214.499 8.69995Z" fill="black"/>
<path d="M214.4 0H112.2C73.7996 0 55.0996 20.4 55.0996 62.3V154.1C55.0996 197.2 72.7996 217.3 110.7 217.3H215.9C253.9 217.3 271.5 197.2 271.5 154.1V62.3C271.5 20.3 252.9 0 214.4 0ZM255.8 154.1C255.8 193.5 239.9 201.6 215.9 201.6H110.7C77.5996 201.6 70.7996 182.6 70.7996 154.1V62.3C70.7996 29.2 82.7996 15.7 112.2 15.7H214.5C243.9 15.7 255.8 29.2 255.8 62.3V154.1Z" fill="url(#paint0_linear_2_561)"/>
<path d="M214.499 8.69995H112.199C78.7994 8.69995 63.8994 25.2 63.8994 62.3V154.1C63.8994 192.3 77.8994 208.6 110.799 208.6H215.999C248.899 208.6 262.899 192.3 262.899 154.1V62.3C262.799 25.2 247.899 8.69995 214.499 8.69995Z" fill="#006243"/>
<path d="M214.499 8.69995H112.199C78.7994 8.69995 63.8994 25.2 63.8994 62.3V83.3H262.899V62.3C262.799 25.2 247.899 8.69995 214.499 8.69995Z" fill="url(#paint1_linear_2_561)"/>
<path d="M196.3 35.8001L191.4 31.1001L122 100.5V37.6001H107.2V179.5H122V116.6L191.4 186L196.3 181.3C215.4 163 227.4 137.1 227.4 108.5C227.3 79.9001 215.4 54.1001 196.3 35.8001ZM191.3 166.2L133.6 108.5L191.3 50.8001C205 66.2001 213.3 86.4001 213.3 108.5C213.3 130.7 205 150.9 191.3 166.2Z" fill="url(#paint2_linear_2_561)"/>
<defs>
<linearGradient id="paint0_linear_2_561" x1="163.316" y1="218.726" x2="163.316" y2="-2.9749" gradientUnits="userSpaceOnUse">
<stop offset="0.0659341" stop-color="#DDE4E8"/>
<stop offset="0.1402" stop-color="#CFDAE1"/>
<stop offset="0.2595" stop-color="#ADC2CD"/>
<stop offset="0.3846" stop-color="#83A3B3"/>
<stop offset="0.6044" stop-color="#E7EEF1"/>
<stop offset="0.8352" stop-color="#83A3B3"/>
</linearGradient>
<linearGradient id="paint1_linear_2_561" x1="163.318" y1="11.9017" x2="163.318" y2="83.324" gradientUnits="userSpaceOnUse">
<stop offset="0.5055" stop-color="#006243"/>
<stop offset="1" stop-color="#38A446"/>
</linearGradient>
<linearGradient id="paint2_linear_2_561" x1="167.183" y1="216.421" x2="167.183" y2="-0.522104" gradientUnits="userSpaceOnUse">
<stop offset="0.0659341" stop-color="#DCD9E1"/>
<stop offset="0.1402" stop-color="#D0D1DB"/>
<stop offset="0.2595" stop-color="#B2BECA"/>
<stop offset="0.3846" stop-color="#8CA6B4"/>
<stop offset="0.6044" stop-color="#F1F2F2"/>
<stop offset="0.8352" stop-color="#7B9AA9"/>
</linearGradient>
</defs>
</svg>
