<svg width="112" height="30" viewBox="0 0 112 30" fill="none" xmlns="http://www.w3.org/2000/svg">
<path d="M0 0.73999V4.73999H8.96V29.76H13.91V4.73999H22.83V0.73999H0Z" fill="#C00C3F"/>
<mask id="mask0_20_37" style="mask-type:luminance" maskUnits="userSpaceOnUse" x="0" y="0" width="112" height="30">
<path d="M111.2 0H0V29.75H111.2V0Z" fill="white"/>
</mask>
<g mask="url(#mask0_20_37)">
<path d="M66.8101 9.48999C65.5801 9.48999 64.4001 9.66999 63.2601 10.03C62.9601 10.12 62.7201 10.21 62.4801 10.31C62.4201 10.33 62.3801 10.35 62.3401 10.37L62.2401 10.42C62.0701 10.49 61.9001 10.56 61.7501 10.64C61.6501 10.69 61.5501 10.74 61.4501 10.79L61.2501 10.9C61.1901 10.94 61.1301 10.96 61.0701 10.99C60.9001 11.1 60.7401 11.2 60.5801 11.32L60.5001 11.36C60.2601 11.53 60.0801 11.67 59.9101 11.82C59.2801 12.34 58.7901 12.92 58.4401 13.54C58.2601 13.89 57.8201 14.97 57.8201 17.06V29.77H62.7001V17.41C62.7001 17.13 62.7501 16.91 62.7901 16.7C62.8001 16.6 62.8301 16.49 62.8701 16.37C63.5201 14.38 65.7501 13.74 66.4801 13.68H66.6001C66.6601 13.66 66.7201 13.66 66.7901 13.66L67.2101 13.69C68.5201 13.86 70.9101 14.93 70.9101 17.4V29.76H75.7901V17.05C75.7901 14.72 75.1901 13.57 75.0801 13.36C73.6401 11.06 70.3101 9.49999 66.8101 9.48999Z" fill="#C00C3F"/>
</g>
<mask id="mask1_20_37" style="mask-type:luminance" maskUnits="userSpaceOnUse" x="0" y="0" width="112" height="30">
<path d="M111.2 0H0V29.75H111.2V0Z" fill="white"/>
</mask>
<g mask="url(#mask1_20_37)">
<path d="M34.47 9.48999C33.31 9.48999 32.16 9.65999 31.07 9.98999L30.36 10.2V0.73999H25.48V29.76H30.38V17.25C30.4 17.03 30.42 16.85 30.45 16.69C30.47 16.59 30.49 16.48 30.53 16.36C31.18 14.37 33.41 13.73 34.14 13.67H34.26C34.32 13.65 34.39 13.65 34.45 13.65L34.87 13.68C36.17 13.85 38.57 14.92 38.57 17.39V29.75H43.45V17.04C43.45 14.71 42.86 13.56 42.74 13.35C41.3 11.05 37.98 9.48999 34.47 9.47999" fill="#C00C3F"/>
</g>
<mask id="mask2_20_37" style="mask-type:luminance" maskUnits="userSpaceOnUse" x="0" y="0" width="112" height="30">
<path d="M111.2 0H0V29.75H111.2V0Z" fill="white"/>
</mask>
<g mask="url(#mask2_20_37)">
<path d="M53.62 5.82C53.62 7.45 52.3 8.76 50.67 8.76C49.04 8.76 47.73 7.44 47.73 5.82C47.73 4.2 49.05 2.88 50.67 2.88C52.29 2.88 53.62 4.2 53.62 5.82Z" fill="#C00C3F"/>
</g>
<mask id="mask3_20_37" style="mask-type:luminance" maskUnits="userSpaceOnUse" x="0" y="0" width="112" height="30">
<path d="M111.2 0H0V29.75H111.2V0Z" fill="white"/>
</mask>
<g mask="url(#mask3_20_37)">
<path d="M48.23 11.61V29.76H53.11V11.61C52.36 11.93 51.54 12.1 50.67 12.1C49.8 12.1 48.98 11.93 48.23 11.61Z" fill="#C00C3F"/>
</g>
<mask id="mask4_20_37" style="mask-type:luminance" maskUnits="userSpaceOnUse" x="0" y="0" width="112" height="30">
<path d="M111.2 0H0V29.75H111.2V0Z" fill="white"/>
</mask>
<g mask="url(#mask4_20_37)">
<path d="M96.3601 19.32C96.1501 20.7 95.7801 21.89 95.2701 22.84C94.7401 23.8 94.0501 24.52 93.2001 24.98C92.5501 25.34 91.7601 25.55 90.8701 25.64L90.3601 25.67C90.2701 25.67 90.2301 25.68 90.1001 25.68C88.9601 25.68 88.0301 25.41 87.3201 24.88C86.5801 24.34 85.9901 23.58 85.5601 22.63C85.1301 21.68 84.8301 20.56 84.6701 19.3C84.5201 18.04 84.4401 16.68 84.4401 15.25C84.4401 13.47 84.5501 11.88 84.7601 10.51C84.9801 9.13003 85.3501 7.94003 85.8801 6.98003C86.4101 6.02003 87.1301 5.28003 88.0001 4.77003C88.8701 4.27003 89.8501 4.04003 91.0701 4.04003C92.1801 4.04003 93.1201 4.33003 93.8401 4.89003C94.5801 5.46003 95.1701 6.23003 95.5901 7.18003C96.0101 8.12003 96.3101 9.24003 96.4701 10.5C96.6301 11.75 96.7101 13.09 96.7101 14.48C96.7101 16.28 96.6001 17.91 96.3801 19.32M105.65 27.42C105.09 25.62 103.09 25.65 103.09 25.65H98.6601L98.9101 25.3C99.5301 24.39 100.03 23.43 100.44 22.35C101.17 20.47 101.53 18.02 101.53 15.06C101.53 12.74 101.36 10.61 101 8.74003C100.64 6.89003 100.05 5.30003 99.2301 4.03003C98.4101 2.75003 97.3201 1.75003 95.9801 1.07003C94.6301 0.380029 92.9601 0.0300293 90.9901 0.0300293C87.0901 0.0300293 84.1801 1.25003 82.3601 3.67003C80.5401 6.08003 79.6201 9.83003 79.6201 14.82C79.6201 17.16 79.8001 19.28 80.1601 21.12C80.5101 22.95 81.1101 24.53 81.9201 25.79C82.7401 27.06 83.8201 28.06 85.1301 28.74C86.4601 29.43 88.1301 29.78 90.0901 29.78H90.1501C90.1501 29.78 90.2101 29.78 90.2401 29.78C90.2701 29.78 90.3101 29.78 90.3501 29.78H106.36L105.64 27.45L105.65 27.42Z" fill="#C00C3F"/>
</g>
<mask id="mask5_20_37" style="mask-type:luminance" maskUnits="userSpaceOnUse" x="0" y="0" width="112" height="30">
<path d="M111.2 0H0V29.75H111.2V0Z" fill="white"/>
</mask>
<g mask="url(#mask5_20_37)">
<path d="M108.04 2.89001C108.12 2.89001 108.21 2.85001 108.28 2.80001C108.34 2.75001 108.38 2.64001 108.38 2.49001C108.38 2.36001 108.33 2.27001 108.27 2.23001C108.19 2.17001 108.12 2.16001 108.04 2.16001H107.58V2.89001H108.04ZM108.49 4.84001L107.86 3.57001H107.58V4.84001H106.6V1.45001H108.07C108.49 1.45001 108.82 1.52001 109.06 1.70001C109.28 1.85001 109.39 2.12001 109.39 2.49001C109.39 2.72001 109.35 2.91001 109.24 3.07001C109.14 3.22001 109 3.33001 108.82 3.43001L109.55 4.84001H108.5H108.49ZM110.41 3.16001C110.41 2.41001 110.19 1.82001 109.76 1.37001C109.33 0.91001 108.73 0.68001 107.94 0.68001C107.55 0.68001 107.21 0.74001 106.91 0.87001C106.6 0.99001 106.35 1.16001 106.13 1.38001C105.92 1.59001 105.75 1.87001 105.63 2.15001C105.52 2.45001 105.46 2.79001 105.46 3.16001C105.46 3.90001 105.68 4.49001 106.12 4.95001C106.56 5.41001 107.17 5.63001 107.93 5.63001C108.69 5.63001 109.31 5.42001 109.75 4.95001C110.19 4.49001 110.4 3.90001 110.4 3.16001M111.19 3.16001C111.19 3.65001 111.1 4.10001 110.95 4.51001C110.79 4.90001 110.56 5.24001 110.27 5.49001C109.98 5.76001 109.63 5.96001 109.24 6.11001C108.84 6.25001 108.4 6.32001 107.93 6.32001C107.46 6.32001 107.03 6.25001 106.63 6.11001C106.23 5.96001 105.88 5.75001 105.6 5.49001C105.32 5.23001 105.09 4.90001 104.92 4.51001C104.76 4.11001 104.67 3.65001 104.67 3.16001C104.67 2.67001 104.76 2.23001 104.92 1.82001C105.09 1.43001 105.32 1.11001 105.6 0.83001C105.88 0.56001 106.23 0.35001 106.63 0.22001C107.03 0.0800098 107.46 0.0100098 107.93 0.0100098C108.4 0.0100098 108.84 0.0800098 109.24 0.22001C109.63 0.36001 109.99 0.56001 110.27 0.83001C110.56 1.11001 110.79 1.43001 110.95 1.82001C111.1 2.23001 111.19 2.66001 111.19 3.16001Z" fill="#6D6E71"/>
</g>
</svg>
