<svg width="1024" height="219" viewBox="0 0 1024 219" fill="none" xmlns="http://www.w3.org/2000/svg">
<path d="M0 43.178H49.8V182.378H77.4V43.178H126.9V20.978H0V43.178Z" fill="#C00C3F"/>
<path d="M282 33.5779C272.9 33.5779 265.7 40.8779 265.7 49.9779C265.7 59.0779 273 66.3779 282 66.3779C291 66.3779 298.3 59.0779 298.3 49.9779C298.3 40.8779 291 33.5779 282 33.5779Z" fill="#C00C3F"/>
<path d="M268.2 81.3779V182.278H295.3V81.3779C291.1 83.0779 286.5 84.1779 281.7 84.1779C277 84.1779 272.3 83.1779 268.2 81.3779Z" fill="#C00C3F"/>
<path d="M191.5 69.778C183.1 69.778 175.6 71.378 169.2 74.078V20.978H141.6V182.378H169.2V111.178C169.2 101.378 179.4 93.378 191.8 93.378C206.8 93.378 214.3 102.578 214.3 112.378V182.378H241.6V108.078C241.5 88.478 223.9 69.778 191.5 69.778Z" fill="#C00C3F"/>
<path d="M370.8 69.7781C338.6 69.8781 320.9 88.4781 320.9 108.078V182.378H348.2V112.378C348.2 102.578 355.9 93.3781 370.8 93.3781C385.8 93.3781 393.5 102.578 393.5 112.378V182.378H420.8V108.078C420.7 88.4781 403 69.8781 370.8 69.7781Z" fill="#C00C3F"/>
<path d="M572.5 203.978L544.9 172.578C547.8 170.178 550.5 167.478 552.8 164.478C563.1 151.078 568.5 127.078 568.9 99.778C568.5 72.478 563.1 51.878 552.8 38.378C542.4 24.878 526.2 17.678 506 17.678C485.9 17.678 469.7 24.878 459.2 38.378C448.9 51.878 443.4 72.478 443.1 99.778C443.5 127.078 448.9 151.078 459.2 164.478C469.6 177.978 485.8 185.178 506 185.178C511.6 185.178 516.8 184.578 521.8 183.578L539.8 203.978H572.5ZM480.2 147.378C474.4 137.578 471.4 120.578 471.2 100.578C471.4 80.478 474.4 65.378 480.2 55.578C486 45.878 494.9 40.678 506.1 40.678C517.3 40.678 526.2 45.778 532 55.578C537.8 65.378 540.8 80.578 541 100.578C540.8 120.578 537.8 137.578 532 147.378C526.2 157.078 517.2 162.278 506.1 162.278C494.9 162.278 486 157.078 480.2 147.378Z" fill="#C00C3F"/>
<path d="M742.447 84.6127H726.527C725.585 80.0334 723.937 76.0105 721.584 72.5439C719.273 69.0774 716.448 66.1672 713.11 63.8134C709.814 61.4167 706.155 59.6192 702.132 58.4209C698.109 57.2226 693.915 56.6234 689.55 56.6234C681.59 56.6234 674.378 58.6349 667.916 62.6578C661.497 66.6808 656.382 72.6081 652.573 80.44C648.807 88.2718 646.924 97.8798 646.924 109.264C646.924 120.648 648.807 130.256 652.573 138.088C656.382 145.919 661.497 151.847 667.916 155.87C674.378 159.893 681.59 161.904 689.55 161.904C693.915 161.904 698.109 161.305 702.132 160.107C706.155 158.908 709.814 157.132 713.11 154.778C716.448 152.382 719.273 149.45 721.584 145.984C723.937 142.474 725.585 138.451 726.527 133.915H742.447C741.249 140.634 739.066 146.647 735.899 151.954C732.732 157.261 728.795 161.776 724.087 165.499C719.38 169.18 714.094 171.983 708.231 173.909C702.411 175.835 696.184 176.797 689.55 176.797C678.337 176.797 668.366 174.058 659.635 168.58C650.904 163.102 644.035 155.313 639.028 145.213C634.021 135.113 631.517 123.13 631.517 109.264C631.517 95.3975 634.021 83.4144 639.028 73.3143C644.035 63.2142 650.904 55.4251 659.635 49.9471C668.366 44.4691 678.337 41.7301 689.55 41.7301C696.184 41.7301 702.411 42.693 708.231 44.6189C714.094 46.5448 719.38 49.3694 724.087 53.0927C728.795 56.7732 732.732 61.2669 735.899 66.5738C739.066 71.8378 741.249 77.8508 742.447 84.6127ZM795.136 177.311C788.887 177.311 783.217 176.134 778.124 173.78C773.031 171.384 768.987 167.938 765.991 163.445C762.995 158.908 761.497 153.43 761.497 147.011C761.497 141.362 762.61 136.782 764.835 133.273C767.061 129.721 770.035 126.939 773.759 124.927C777.482 122.916 781.59 121.418 786.084 120.434C790.621 119.407 795.178 118.594 799.758 117.994C805.749 117.224 810.607 116.646 814.33 116.261C818.096 115.833 820.835 115.127 822.547 114.143C824.302 113.158 825.179 111.446 825.179 109.007V108.493C825.179 102.159 823.446 97.2378 819.979 93.7285C816.556 90.2191 811.356 88.4644 804.38 88.4644C797.147 88.4644 791.476 90.0479 787.368 93.2149C783.259 96.3819 780.371 99.7628 778.702 103.358L764.322 98.2221C766.89 92.2306 770.313 87.5657 774.593 84.2275C778.916 80.8466 783.623 78.4927 788.716 77.166C793.852 75.7965 798.902 75.1118 803.866 75.1118C807.033 75.1118 810.671 75.4969 814.779 76.2673C818.931 76.9948 822.932 78.5141 826.784 80.8252C830.679 83.1362 833.91 86.6242 836.478 91.289C839.045 95.9539 840.329 102.202 840.329 110.034V175H825.179V161.647H824.409C823.382 163.787 821.67 166.077 819.273 168.516C816.877 170.956 813.688 173.031 809.708 174.743C805.728 176.455 800.87 177.311 795.136 177.311ZM797.447 163.702C803.438 163.702 808.488 162.525 812.597 160.171C816.748 157.817 819.872 154.778 821.969 151.055C824.109 147.332 825.179 143.416 825.179 139.307V125.441C824.537 126.211 823.125 126.918 820.942 127.56C818.802 128.159 816.32 128.694 813.496 129.164C810.714 129.592 807.996 129.978 805.343 130.32C802.732 130.619 800.614 130.876 798.987 131.09C795.05 131.604 791.369 132.438 787.946 133.594C784.565 134.707 781.826 136.397 779.729 138.665C777.674 140.891 776.647 143.929 776.647 147.781C776.647 153.045 778.595 157.025 782.489 159.721C786.426 162.375 791.412 163.702 797.447 163.702ZM867.981 175V76.3957H882.618V91.289H883.645C885.443 86.4102 888.695 82.4515 893.403 79.4129C898.111 76.3743 903.417 74.855 909.323 74.855C910.436 74.855 911.827 74.8764 913.496 74.9192C915.165 74.962 916.428 75.0262 917.284 75.1118V90.5187C916.77 90.3903 915.593 90.1977 913.753 89.9409C911.955 89.6413 910.051 89.4916 908.04 89.4916C903.246 89.4916 898.967 90.4973 895.2 92.5087C891.477 94.4774 888.524 97.2164 886.341 100.726C884.202 104.192 883.132 108.151 883.132 112.602V175H867.981ZM973.583 177.054C964.082 177.054 955.887 174.957 948.996 170.763C942.149 166.526 936.863 160.62 933.14 153.045C929.459 145.427 927.619 136.568 927.619 126.468C927.619 116.368 929.459 107.466 933.14 99.7628C936.863 92.0166 942.042 85.9822 948.675 81.6597C955.352 77.2944 963.141 75.1118 972.042 75.1118C977.178 75.1118 982.25 75.9677 987.257 77.6796C992.264 79.3915 996.822 82.1733 1000.93 86.025C1005.04 89.8339 1008.31 94.884 1010.75 101.175C1013.19 107.466 1014.41 115.213 1014.41 124.414V130.833H938.404V117.738H999.005C999.005 112.174 997.892 107.21 995.666 102.844C993.484 98.4789 990.36 95.0338 986.294 92.5087C982.271 89.9837 977.52 88.7212 972.042 88.7212C966.008 88.7212 960.787 90.2191 956.379 93.2149C952.013 96.1679 948.654 100.02 946.3 104.77C943.946 109.521 942.769 114.613 942.769 120.049V128.779C942.769 136.226 944.053 142.538 946.621 147.717C949.232 152.853 952.848 156.768 957.47 159.465C962.092 162.118 967.463 163.445 973.583 163.445C977.563 163.445 981.158 162.888 984.368 161.776C987.621 160.62 990.424 158.908 992.778 156.64C995.131 154.329 996.95 151.462 998.234 148.038L1012.87 152.146C1011.33 157.111 1008.74 161.476 1005.1 165.242C1001.47 168.966 996.972 171.876 991.622 173.973C986.272 176.027 980.259 177.054 973.583 177.054Z" fill="#6D6E71"/>
</svg>
