<svg width="923" height="211" viewBox="0 0 923 211" fill="none" xmlns="http://www.w3.org/2000/svg">
<path d="M0 27.1855H55.9734V184.711H87.1585V27.1855H143.132V2.39722H0V27.1855Z" fill="#C00C3F"/>
<path d="M318.249 16.7927C307.854 16.7927 299.857 24.7888 299.857 35.1839C299.857 45.579 307.854 53.5753 318.249 53.5753C328.644 53.5753 336.64 45.579 336.64 35.1839C336.64 24.7888 328.644 16.7927 318.249 16.7927Z" fill="#C00C3F"/>
<path d="M303.056 70.365V184.711H333.442V70.365C328.644 71.9642 323.846 73.5637 318.249 73.5637C312.652 73.5637 307.854 72.7639 303.056 70.365Z" fill="#C00C3F"/>
<path d="M215.898 57.5712C206.302 57.5712 198.306 59.1702 190.31 62.3687V2.39722H159.125V184.711H190.31V103.949C190.31 92.7544 201.504 83.9586 215.898 83.9586C232.69 83.9586 241.486 94.3537 241.486 105.548V184.711H272.671V100.751C272.671 78.3613 252.68 57.5712 215.898 57.5712Z" fill="#C00C3F"/>
<path d="M419.001 57.5742C382.219 57.5742 362.228 78.3643 362.228 100.754V184.714H393.414V105.551C393.414 94.3567 402.209 83.9616 419.001 83.9616C435.793 83.9616 444.589 94.3567 444.589 105.551V184.714H475.774V100.754C474.975 79.1639 454.984 57.5742 419.001 57.5742Z" fill="#C00C3F"/>
<path d="M646.892 209.501L615.707 174.317C618.906 171.918 622.104 168.72 624.503 165.521C636.497 150.329 642.095 123.142 642.894 92.756C642.095 61.5708 636.497 38.3817 624.503 23.1889C612.509 7.99615 594.118 0 571.728 0C549.339 0 530.947 7.99615 518.953 23.1889C506.959 38.3817 501.362 61.5708 500.562 92.756C501.362 123.941 506.959 150.329 518.953 165.521C530.947 180.714 549.339 188.71 571.728 188.71C578.125 188.71 583.723 187.911 589.32 187.111L609.31 210.3H646.892V209.501ZM542.142 145.531C535.745 134.336 532.547 115.145 531.747 92.756C531.747 70.3666 535.745 52.775 542.142 41.5803C548.539 30.3857 558.934 24.7883 571.728 24.7883C584.522 24.7883 594.118 30.3857 601.314 41.5803C607.711 52.775 610.91 69.567 611.709 92.756C611.709 115.145 607.711 134.336 601.314 145.531C594.917 156.726 584.522 162.323 571.728 162.323C558.934 162.323 549.339 155.926 542.142 145.531Z" fill="#C00C3F"/>
<path d="M805.217 51.1748V134.335C805.217 143.931 804.417 151.927 802.018 159.124C799.619 165.52 796.421 171.118 791.623 175.916C786.825 179.914 781.228 183.112 774.831 185.511C768.434 187.91 760.438 188.71 752.442 188.71C735.65 188.71 722.856 184.711 714.86 175.916C706.863 167.12 702.865 153.526 702.865 133.536V51.9745H724.455V136.734C724.455 147.929 726.854 156.725 730.852 163.122C734.85 169.519 742.846 171.917 753.241 171.917C765.236 171.917 773.232 168.719 778.029 163.122C782.827 157.524 785.226 147.129 785.226 133.536V51.9745H805.217V51.1748Z" fill="#6D6E71"/>
<path d="M828.405 185.511V51.1748H876.382C891.575 51.1748 902.77 54.3734 910.766 61.57C918.762 67.967 922.76 78.3619 922.76 91.9555C922.76 99.1521 921.961 104.749 919.562 110.347C917.163 115.944 914.764 119.942 910.766 123.94C906.768 127.938 901.97 130.337 897.173 131.936C891.575 133.536 885.978 135.135 879.581 135.135H850.795V185.511H828.405ZM875.583 118.343C878.781 118.343 881.98 117.543 885.178 116.744C888.377 115.944 890.776 114.345 893.175 111.946C895.573 109.547 897.173 107.148 898.772 103.95C900.371 100.751 901.171 96.7532 901.171 91.9555C901.171 87.9574 900.371 83.9593 898.772 80.7608C897.173 77.5624 895.573 75.1636 893.175 73.5643C890.776 71.9651 888.377 70.3658 885.178 69.5662C881.98 68.7666 878.781 68.7665 875.583 68.7665H849.995V118.343H875.583Z" fill="#6D6E71"/>
</svg>
