<svg width="154" height="39" viewBox="0 0 154 39" fill="none" xmlns="http://www.w3.org/2000/svg">
<path d="M9.10001 18.9H4.5L0 0H3.3L6.90001 15.8L10.9 0H14.1L18.1 15.8L21.7 0H25L20.5 18.9H15.9L12.5 4.9L9.10001 18.9Z" fill="#6D6E71"/>
<path d="M29.2 18.9C26.3 18.9 24.8 17 24.8 14.7C24.8 12.3 26.3 10.5 29.2 10.5H34.3V9.59999C34.3 8.29999 33.7 7.7 32.4 7.7H25.9L27.2 5H32.4C35.7 5 37.4 6.59999 37.4 9.59999V18.9H29.2ZM29.5 13.1C28.5 13.1 28 13.9 28 14.7C28 15.6 28.5 16.3 29.5 16.3H34.4V13.1H29.5Z" fill="#6D6E71"/>
<path d="M39.2 18.9001L40.5 16.3001H46.1C47 16.3001 47.6 15.9001 47.6 15.0001C47.6 14.4001 47.2 14.0001 46.5 13.8001L42.3 12.7001C40.3 12.2001 39.3 10.8001 39.3 9.00011C39.3 6.70011 40.8 5.1001 43.3 5.1001H49.8L48.5 7.6001H43.7C42.9 7.6001 42.4 8.0001 42.4 8.9001C42.4 9.5001 42.8 10.0001 43.4 10.1001L47.8 11.3001C49.4 11.7001 50.6 13.1001 50.6 15.0001C50.6 17.4001 49.1 19.0001 46.5 19.0001H39.2V18.9001Z" fill="#6D6E71"/>
<path d="M61.8 18.9V10.1C61.8 8.5 61.2 7.8 59.6 7.8H55.9V18.9H52.7V0H55.9V5.1H60.1C63.3 5.1 65 6.80001 65 10V19H61.8V18.9Z" fill="#6D6E71"/>
<path d="M76 0H82.1L80.6 2.9H76.6C72.6 2.9 70.5 5.30001 70.5 9.50001C70.5 13.7 72.6 16.1 76.6 16.1H82.1L80.6 19H75.9C71 18.9 67 15.6 67 9.50001C67.2 3.40001 71.1 0.1 76 0Z" fill="#C00C3F"/>
<path d="M90 4.7002C94.6 4.7002 97.2 7.7002 97.2 12.0002C97.2 16.3002 94.6 19.3002 90 19.3002C85.4 19.3002 82.8 16.3002 82.8 12.0002C82.8 7.7002 85.4 4.7002 90 4.7002ZM90 16.5002C92.7 16.5002 94 14.8002 94 12.0002C94 9.2002 92.6 7.5002 90 7.5002C87.3 7.5002 86 9.2002 86 12.0002C85.9 14.8002 87.3 16.5002 90 16.5002Z" fill="#C00C3F"/>
<path d="M113.5 18.9V9.7C113.5 8.5 112.9 7.7 111.7 7.7H109.3V18.8H106.2V7.7H102.2V18.8H99.1V5H112.1C114.8 5 116.6 6.79999 116.6 9.59999V18.9H113.5Z" fill="#C00C3F"/>
<path d="M119.3 18.9V0H122.5V5.1H125.2C129 5.1 131.9 7.60001 131.9 12C131.9 16.4 129 18.9 125.2 18.9H119.3ZM122.5 16.2H124.8C127.3 16.2 128.7 14.5 128.7 12C128.7 9.40001 127.4 7.8 124.8 7.8H122.5V16.2Z" fill="#C00C3F"/>
<path d="M140.2 4.7002C144.8 4.7002 147.4 7.7002 147.4 12.0002C147.4 16.3002 144.8 19.3002 140.2 19.3002C135.6 19.3002 133 16.3002 133 12.0002C133.1 7.7002 135.7 4.7002 140.2 4.7002ZM140.2 16.5002C142.9 16.5002 144.2 14.8002 144.2 12.0002C144.2 9.2002 142.8 7.5002 140.2 7.5002C137.5 7.5002 136.2 9.2002 136.2 12.0002C136.2 14.8002 137.6 16.5002 140.2 16.5002Z" fill="#C00C3F"/>
<path d="M149.2 0V0.400002H148.1V3.8H147.5V0.400002H146.3V0H149.2Z" fill="#6D6E71"/>
<path d="M153.6 0V3.8H153V0.400002L152 3.8H151.2L150.3 0.400002V3.8H149.7V0H150.7L151.6 3.3H151.7L152.6 0H153.6Z" fill="#6D6E71"/>
<path d="M76.9 38.6002L75.7 35.1002H70.5L69.3 38.6002H67.1L71.7 25.7002H74.5L79.1 38.6002H76.9ZM73 27.4002L71 33.4002H75.1L73.1 27.4002H73Z" fill="#6D6E71"/>
<path d="M83.2 38.7002C83.2 38.7002 83.1 38.7002 83 38.7002H82.9H82.8H82.6C82.2 38.7002 81.8 38.6002 81.5 38.5002C81.2 38.4002 80.9 38.2002 80.8 38.0002C80.6 37.8002 80.5 37.5002 80.4 37.2002C80.3 36.9002 80.3 36.5002 80.3 36.1002V25.4002L82.3 25.2002V36.1002C82.3 36.4002 82.3 36.6002 82.4 36.7002C82.4 36.9002 82.5 37.0002 82.6 37.1002C82.7 37.2002 82.8 37.2002 82.9 37.3002C83 37.3002 83.2 37.3002 83.4 37.3002V38.7002H83.2Z" fill="#6D6E71"/>
<path d="M87.4 38.7002C87.4 38.7002 87.3 38.7002 87.2 38.7002H87.1H87H86.8C86.4 38.7002 86 38.6002 85.7 38.5002C85.4 38.4002 85.1 38.2002 85 38.0002C84.8 37.8002 84.7 37.5002 84.6 37.2002C84.5 36.9002 84.5 36.5002 84.5 36.1002V25.4002L86.5 25.2002V36.1002C86.5 36.4002 86.5 36.6002 86.6 36.7002C86.6 36.9002 86.7 37.0002 86.8 37.1002C86.9 37.2002 87 37.2002 87.1 37.3002C87.2 37.3002 87.4 37.3002 87.6 37.3002V38.7002H87.4Z" fill="#6D6E71"/>
<path d="M93.9 33.5003H88.8V31.8003H93.9V33.5003Z" fill="#6D6E71"/>
<path d="M96.1 25.9004H98.1V27.7004H96.1V25.9004ZM96.1 29.7004H98.1V38.6004H96.1V29.7004Z" fill="#6D6E71"/>
<path d="M101.9 29.7L102 30.4C102.2 30.3 102.3 30.2 102.5 30.1C102.7 30 102.9 29.9 103.1 29.9C103.8 29.7 104.4 29.5 105 29.5C105.6 29.5 106.1 29.6 106.5 29.7C106.9 29.8 107.2 30.1 107.4 30.3C107.6 30.6 107.8 30.9 107.9 31.3C108 31.7 108 32.2 108 32.7V38.6H106V33.2C106 32.9 106 32.6 105.9 32.3C105.9 32 105.8 31.8 105.7 31.6C105.6 31.4 105.4 31.3 105.2 31.2C105 31.1 104.7 31 104.4 31C104 31 103.7 31 103.4 31.2C103.1 31.3 102.8 31.4 102.6 31.6L102.2 31.8V38.6H100.2V32L100 29.6H101.9V29.7Z" fill="#6D6E71"/>
<path d="M115.1 33.5003H110V31.8003H115.1V33.5003Z" fill="#6D6E71"/>
<path d="M117 32.1C117 29.9 117.5 28.2 118.4 27.1C119.3 26 120.8 25.5 122.8 25.5C123.8 25.5 124.7 25.7 125.3 26C126 26.3 126.6 26.8 127 27.3C127.4 27.9 127.7 28.6 127.9 29.4C128.1 30.2 128.2 31.2 128.2 32.2C128.2 34.4 127.7 36.1 126.8 37.2C125.8 38.3 124.4 38.8 122.4 38.8C121.4 38.8 120.5 38.6 119.8 38.3C119.1 38 118.6 37.5 118.1 37C117.7 36.4 117.4 35.7 117.2 34.9C117.1 34.1 117 33.1 117 32.1ZM126.1 32C126.1 31.3 126.1 30.7 126 30.1C125.9 29.5 125.7 29 125.5 28.6C125.3 28.2 124.9 27.8 124.5 27.6C124.1 27.3 123.5 27.2 122.9 27.2C122.2 27.2 121.6 27.3 121.1 27.5C120.6 27.7 120.2 28.1 119.9 28.5C119.6 28.9 119.4 29.5 119.3 30.1C119.2 30.7 119.1 31.5 119.1 32.3C119.1 33 119.2 33.6 119.3 34.2C119.4 34.8 119.6 35.3 119.8 35.7C120 36.1 120.4 36.5 120.8 36.7C121.2 37 121.7 37.1 122.4 37.1C123.1 37.1 123.7 37 124.2 36.8C124.7 36.6 125.1 36.2 125.4 35.8C125.7 35.4 125.9 34.8 126 34.2C126 33.6 126.1 32.8 126.1 32Z" fill="#6D6E71"/>
<path d="M131.7 29.7L131.8 30.4C132 30.3 132.1 30.2 132.3 30.1C132.5 30 132.7 29.9 132.9 29.9C133.6 29.7 134.2 29.5 134.8 29.5C135.4 29.5 135.9 29.6 136.3 29.7C136.7 29.8 137 30.1 137.2 30.3C137.4 30.6 137.6 30.9 137.7 31.3C137.8 31.7 137.8 32.2 137.8 32.7V38.6H135.8V33.2C135.8 32.9 135.8 32.6 135.7 32.3C135.7 32 135.6 31.8 135.5 31.6C135.4 31.4 135.2 31.3 135 31.2C134.8 31.1 134.5 31 134.2 31C133.8 31 133.5 31 133.2 31.2C132.9 31.3 132.6 31.4 132.4 31.6L132 31.8V38.6H130V32L129.8 29.6H131.7V29.7Z" fill="#6D6E71"/>
<path d="M143.7 38.8004C142.9 38.8004 142.2 38.7004 141.7 38.5004C141.1 38.3004 140.7 38.0004 140.4 37.6004C140.1 37.2004 139.8 36.7004 139.7 36.1004C139.6 35.5004 139.5 34.8004 139.5 34.0004C139.5 30.9004 140.9 29.4004 143.8 29.4004C144.6 29.4004 145.2 29.5004 145.7 29.7004C146.2 29.9004 146.6 30.2004 146.9 30.6004C147.2 31.0004 147.4 31.5004 147.5 32.0004C147.6 32.5004 147.7 33.1004 147.7 33.7004V34.5004H141.7C141.7 35.4004 141.9 36.0004 142.2 36.5004C142.6 37.0004 143.3 37.3004 144.3 37.3004C145 37.3004 145.5 37.2004 146 37.1004C146.5 37.0004 146.8 36.8004 147.2 36.6004L147.6 37.9004C147.4 38.0004 147.2 38.1004 147 38.2004C146.7 38.3004 146.5 38.4004 146.1 38.5004C145.8 38.6004 145.4 38.7004 145.1 38.7004C144.4 38.8004 144 38.8004 143.7 38.8004ZM145.3 33.2004C145.3 32.3004 145.2 31.7004 144.9 31.3004C144.6 30.9004 144.2 30.7004 143.6 30.7004C142.9 30.7004 142.5 30.9004 142.1 31.2004C141.8 31.5004 141.6 32.0004 141.5 32.6004L141.4 33.2004H145.3Z" fill="#6D6E71"/>
</svg>
