<svg width="1231" height="240" viewBox="0 0 1231 240" fill="none" xmlns="http://www.w3.org/2000/svg">
<g clip-path="url(#clip0_2_604)">
<path d="M1193.2 1.87646V6.83551H1183.92V33.5518H1177.53V6.83551H1168.16V1.87646H1193.2Z" fill="#6D6E71"/>
<path d="M1231 1.87646V33.5518H1224.57V6.79084H1224.17L1218.1 33.5518H1209.76L1203.6 6.79084H1203.24V33.5518H1196.86V1.87646H1208.11L1213.95 28.6374H1214.31L1220.07 1.87646H1230.96H1231Z" fill="#6D6E71"/>
<path d="M154.104 80.2383H177.891V102.398C173.517 104.051 164.993 105.748 156.826 105.748C130.495 105.748 121.748 92.3902 121.748 65.1824C121.748 37.9747 130.093 23.9911 156.424 23.9911C171.063 23.9911 179.364 28.5927 186.281 37.3939L204.49 20.6404C193.377 4.73567 174.008 -0.0446777 155.8 -0.0446777C114.875 -0.0446777 93.3638 22.2934 93.3638 64.959C93.3638 107.625 112.777 130.365 155.577 130.365C175.213 130.365 194.404 125.361 204.847 118.079V56.6046H154.104V80.2383Z" fill="#6D6E71"/>
<path d="M29.232 1.87646H0V128.533H89.7934V103.872H29.232V1.87646Z" fill="#6D6E71"/>
<path d="M790.066 18.496H753.917V128.578H734.771V18.496H691.793L700.407 1.87646H798.635L790.022 18.496H790.066Z" fill="#C00C3F"/>
<path d="M779.221 82.2487C779.221 52.7178 796.18 33.373 825.502 33.373C854.823 33.373 871.782 52.7178 871.782 82.2487C871.782 111.78 854.778 131.124 825.502 131.124C796.225 131.124 779.221 111.199 779.221 82.2487ZM797.385 82.2487C797.385 101.593 807.338 115.086 825.502 115.086C843.665 115.086 853.618 100.03 853.618 82.2487C853.618 62.0998 843.665 49.1884 825.502 49.1884C807.338 49.1884 797.385 62.0998 797.385 82.2487Z" fill="#C00C3F"/>
<path d="M1004.73 35.875L981.881 128.533H955.907L940.466 68.3098L925.247 128.533H899.273L876.245 35.875H894.007L912.751 114.058L932.299 35.875H948.901L968.27 114.058L987.014 35.875H1004.78H1004.73Z" fill="#C00C3F"/>
<path d="M1084.8 128.578H1053.56C1024.23 128.578 1010.4 107.089 1010.4 81.0871C1010.4 55.0856 1024.06 33.373 1054.94 33.373C1087.52 33.373 1098.27 54.8623 1098.27 81.0871V91.0499H1029.72C1031.87 105.123 1040.84 112.941 1054.49 112.941H1092.56L1084.75 128.578H1084.8ZM1029.19 75.3686H1079.75C1078.99 59.5532 1071.54 49.3671 1054.98 49.3671C1038.43 49.3671 1029.99 59.5532 1029.19 75.3686Z" fill="#C00C3F"/>
<path d="M1160.35 51.5563H1145.89C1136.7 51.5563 1130.85 58.9725 1130.85 68.9353V128.578H1113.09V69.3374C1113.09 51.3329 1124.83 35.875 1144.91 35.875H1168.16L1160.35 51.5116V51.5563Z" fill="#C00C3F"/>
<path d="M425.492 1.96582L392.333 128.578H366.404L350.739 69.3374L328.915 128.578H304.102L268.577 1.96582H288.303L317.758 108.831L342.929 39.4491L333.021 1.96582H352.122L379.034 108.831L405.632 1.96582H425.492Z" fill="#6D6E71"/>
<path d="M472.353 35.9197C483.287 35.9197 491.722 38.6449 497.613 44.1401C503.548 49.5906 506.494 57.5876 506.494 68.1311V128.533H451.868C447.048 128.533 442.853 127.774 439.193 126.255C435.668 124.736 432.678 122.77 430.268 120.268C427.858 117.811 426.073 114.862 424.823 111.556C423.573 108.25 422.948 104.721 422.948 100.923C422.948 97.1259 423.573 93.7752 424.823 90.4692C426.073 87.1185 427.858 84.2145 430.268 81.7127C432.722 79.2108 435.668 77.111 439.193 75.6367C442.808 74.1624 447.003 73.3582 451.868 73.3582H488.553V67.9078C488.553 62.7253 487.214 58.6598 484.626 55.8452C481.993 52.9413 478.021 51.467 472.576 51.467H430.937L438.97 35.875H472.353V35.9197ZM488.598 88.6822H453.028C449.012 88.6822 445.977 89.9778 444.058 92.569C442.139 95.2049 441.157 98.0195 441.157 101.013C441.157 104.14 442.139 106.955 444.058 109.278C445.977 111.735 448.878 112.941 452.627 112.941H488.553V88.7268L488.598 88.6822Z" fill="#6D6E71"/>
<path d="M573.66 78.362C577.409 79.4342 580.622 80.8638 583.211 82.8296C585.844 84.84 587.852 87.0291 589.459 89.5757C591.021 92.1222 592.047 94.8028 592.583 97.7961C593.119 100.655 593.163 103.604 592.806 106.508C592.271 109.546 591.378 112.584 590.084 115.264C588.879 117.99 587.228 120.358 585.219 122.323C583.211 124.334 580.667 125.853 577.722 126.925C574.687 127.997 571.161 128.578 567.011 128.578H519.347L527.336 112.763H564.11C570.402 112.763 574.062 110.127 574.999 104.9C575.356 101.951 574.91 99.4938 573.571 97.5727C572.188 95.6963 570.269 94.4454 567.814 93.7752C566.609 93.3285 564.645 92.7924 561.968 92.0329C559.245 91.2287 556.389 90.5139 553.488 89.665C550.543 88.9055 547.731 88.1907 545.232 87.5206C542.599 86.8504 540.769 86.4037 539.742 86.1356C532.2 84.2145 526.755 80.5958 523.542 75.2793C520.284 70.0522 519.168 64.0656 520.239 57.4089C521.266 50.3947 524.078 44.9889 528.63 41.3702C533.182 37.7514 539.162 35.9197 546.615 35.9197H587.004L578.971 51.5116H547.954C544.562 51.5116 542.108 52.3158 540.635 53.8795C539.118 55.4878 538.27 57.4089 538.002 59.7767C537.734 62.0105 538.002 64.155 538.761 66.2994C539.564 68.4886 541.394 69.9629 544.428 70.7224C545.589 70.9457 547.508 71.4372 550.319 72.152C553.042 72.8668 555.943 73.5816 559.111 74.3858C562.235 75.19 565.136 75.9941 567.948 76.7536C570.759 77.5131 572.679 78.0492 573.705 78.3173" fill="#6D6E71"/>
<path d="M678.494 44.2294C684.072 49.8139 686.884 57.6769 686.884 67.9524V128.533H668.899V68.7119C668.899 62.77 667.604 58.3917 665.06 55.7558C662.561 53.0753 658.322 51.6903 652.52 51.6903H624.359V128.533H606.597V1.96582H624.359V35.9643H655.421C665.194 35.9643 672.871 38.6896 678.449 44.2741" fill="#6D6E71"/>
<path d="M427.411 195.101L434.463 232.003H435.266L443.879 195.101H453.608L441.603 238.973H427.858L420.895 201.981H419.958L412.773 238.973H398.849L387.379 195.101H397.555L405.722 232.003H406.614L413.755 195.101H427.501H427.411Z" fill="#6D6E71"/>
<path d="M457.714 176.56H467.622V185.361H457.714V176.56ZM457.804 195.101H467.533V238.973H457.804V195.101Z" fill="#6D6E71"/>
<path d="M489.356 202.561V222.308C489.356 223.827 489.401 225.167 489.535 226.418C489.669 227.625 489.937 228.697 490.427 229.546C490.918 230.439 491.632 231.109 492.57 231.601C493.462 232.092 494.756 232.36 496.452 232.36C497.97 232.36 499.442 232.182 500.915 231.824C502.343 231.467 503.682 231.02 504.843 230.439L506.539 237.141C502.433 239.062 498.014 240 493.328 240C490.517 240 488.196 239.643 486.411 238.883C484.626 238.168 483.242 237.141 482.216 235.8C481.189 234.46 480.52 232.896 480.118 231.02C479.761 229.144 479.583 227.089 479.583 224.855V202.561H472.085V196.039L479.493 195.145V186.344L489.312 184.602V195.056H505.021V202.517H489.312L489.356 202.561Z" fill="#6D6E71"/>
<path d="M539.341 238.928V212.167C539.341 210.692 539.252 209.352 539.073 208.057C538.895 206.806 538.537 205.689 538.047 204.751C537.511 203.812 536.752 203.098 535.77 202.561C534.789 202.07 533.494 201.802 531.843 201.802C529.969 201.802 528.317 202.025 526.755 202.472C525.238 202.963 523.899 203.589 522.739 204.393L520.998 205.555V238.972H511.18V173.879L520.998 172.673V197.826C522.337 196.888 523.765 196.217 525.372 195.815C528.719 194.654 531.843 194.073 534.744 194.073C537.645 194.073 540.01 194.43 541.885 195.19C543.759 195.905 545.187 196.932 546.258 198.317C547.329 199.702 548.088 201.355 548.49 203.321C548.891 205.287 549.115 207.565 549.115 210.112V238.972H539.385L539.341 238.928Z" fill="#6D6E71"/>
<path d="M606.418 240C596.51 239.955 589.37 237.185 584.952 231.735C580.578 226.284 578.346 218.153 578.346 207.431C578.346 196.709 580.846 188.086 585.889 182.815C590.887 177.543 598.028 174.907 607.311 174.907C611.193 174.907 615.031 175.577 618.78 176.962C622.574 178.347 625.609 180.402 627.885 183.261L621.994 189.114C620.208 187.148 618.155 185.585 615.879 184.512C613.648 183.395 610.836 182.859 607.534 182.859C601.018 182.859 596.198 185.004 593.163 189.293C590.173 193.582 588.656 199.926 588.656 208.369C588.656 216.009 590.128 221.817 592.985 225.659C595.886 229.546 600.527 231.512 606.82 231.512C610.658 231.512 614.05 231.109 617.04 230.305C619.985 229.501 622.708 228.608 625.162 227.58L627.617 235.309C625.073 236.649 621.86 237.766 618.111 238.66C614.317 239.553 610.39 240 606.418 240Z" fill="#6D6E71"/>
<path d="M653.725 240C649.708 240 646.361 239.509 643.683 238.57C641.005 237.632 638.819 236.158 637.167 234.192C635.516 232.226 634.356 229.814 633.642 226.91C632.928 224.006 632.615 220.611 632.615 216.724C632.615 201.579 639.577 194.028 653.457 194.028C657.25 194.028 660.33 194.564 662.74 195.637C665.15 196.709 667.024 198.228 668.363 200.104C669.746 202.025 670.639 204.304 671.175 206.94C671.71 209.576 671.933 212.435 671.933 215.518V219.449H642.657C642.791 223.872 643.594 227.044 645.067 229.01C647.03 231.512 650.378 232.762 655.153 232.762C658.455 232.762 661.178 232.36 663.365 231.556C665.551 230.752 667.47 229.948 669.166 229.188L671.219 235.443C670.416 235.979 669.345 236.515 668.095 237.096C666.801 237.632 665.418 238.124 663.855 238.57C662.293 239.017 660.642 239.33 658.857 239.598C657.072 239.866 655.376 240 653.68 240H653.725ZM661.803 212.658C661.803 208.503 661.089 205.465 659.705 203.589C658.277 201.713 656.179 200.774 653.278 200.774C650.021 200.774 647.655 201.489 646.093 203.008C644.576 204.483 643.549 206.761 643.103 209.844L642.746 212.703H661.758L661.803 212.658Z" fill="#6D6E71"/>
<path d="M687.107 195.101L687.464 198.585C688.267 198.005 689.115 197.513 690.008 197.022C690.901 196.575 691.882 196.128 692.909 195.815C696.256 194.654 699.38 194.073 702.281 194.073C705.182 194.073 707.547 194.43 709.422 195.145C711.296 195.86 712.724 196.888 713.795 198.273C714.866 199.658 715.58 201.355 716.027 203.321C716.428 205.331 716.652 207.61 716.652 210.156V238.972H706.922V212.256C706.922 210.782 706.833 209.397 706.655 208.101C706.476 206.85 706.119 205.733 705.628 204.795C705.093 203.857 704.334 203.142 703.352 202.606C702.37 202.115 701.076 201.847 699.469 201.847C697.595 201.847 695.899 202.115 694.382 202.606C692.864 203.098 691.481 203.723 690.32 204.527L688.625 205.689V239.017H678.895V206.806L678.137 195.145H687.152L687.107 195.101Z" fill="#6D6E71"/>
<path d="M738.029 202.561V222.308C738.029 223.827 738.073 225.167 738.207 226.418C738.341 227.625 738.654 228.697 739.1 229.546C739.591 230.439 740.305 231.109 741.242 231.601C742.179 232.092 743.474 232.36 745.169 232.36C746.687 232.36 748.16 232.182 749.588 231.824C751.06 231.467 752.355 231.02 753.515 230.439L755.256 237.141C751.15 239.062 746.731 240 742.045 240C739.234 240 736.913 239.643 735.128 238.883C733.343 238.168 731.959 237.141 730.977 235.8C729.951 234.46 729.282 232.896 728.88 231.02C728.523 229.144 728.3 227.089 728.3 224.855V202.561H720.847V196.039L728.21 195.145V186.344L738.029 184.602V195.056H753.783V202.517H738.029V202.561Z" fill="#6D6E71"/>
<path d="M778.998 240C774.982 240 771.679 239.509 768.957 238.57C766.234 237.632 764.092 236.158 762.441 234.192C760.79 232.226 759.629 229.814 758.915 226.91C758.201 224.006 757.889 220.611 757.889 216.724C757.889 201.579 764.851 194.028 778.775 194.028C782.524 194.028 785.603 194.564 788.013 195.637C790.423 196.709 792.298 198.228 793.636 200.104C795.02 202.025 795.957 204.304 796.493 206.94C796.984 209.576 797.251 212.435 797.251 215.518V219.449H767.975C768.109 223.872 768.912 227.044 770.429 229.01C772.393 231.512 775.74 232.762 780.516 232.762C783.818 232.762 786.54 232.36 788.727 231.556C790.914 230.752 792.833 229.948 794.529 229.188L796.627 235.443C795.823 235.979 794.752 236.515 793.503 237.096C792.208 237.632 790.78 238.124 789.263 238.57C787.701 239.017 786.005 239.33 784.22 239.598C782.479 239.866 780.739 240 779.043 240H778.998ZM787.076 212.658C787.076 208.503 786.362 205.465 784.978 203.589C783.595 201.713 781.453 200.774 778.507 200.774C775.249 200.774 772.884 201.489 771.367 203.008C769.849 204.483 768.823 206.761 768.376 209.844L768.019 212.703H787.031L787.076 212.658Z" fill="#6D6E71"/>
<path d="M812.113 195.101L812.693 200.417C814.166 198.585 815.728 197.245 817.468 196.486C820.369 194.877 823.315 194.028 826.349 194.028C827.733 194.028 829.027 194.162 830.188 194.43C831.348 194.698 832.33 194.967 833.044 195.279L830.634 203.366C829.161 202.561 827.376 202.159 825.234 202.159C822.69 202.159 820.369 202.874 818.227 204.349C817.468 204.795 816.754 205.287 816.085 205.867C815.415 206.404 814.746 207.029 814.032 207.744V239.017H804.303V207.431L803.098 195.145H812.157L812.113 195.101Z" fill="#6D6E71"/>
<path d="M885.126 240C875.218 239.955 868.078 237.185 863.659 231.735C859.286 226.284 857.054 218.153 857.054 207.431C857.054 196.709 859.553 188.086 864.597 182.815C869.595 177.543 876.736 174.907 886.018 174.907C889.901 174.907 893.739 175.577 897.488 176.962C901.282 178.347 904.316 180.402 906.637 183.261L900.701 189.114C898.916 187.148 896.863 185.585 894.632 184.512C892.356 183.395 889.589 182.859 886.242 182.859C879.726 182.859 874.95 185.004 871.916 189.293C868.881 193.582 867.364 199.926 867.364 208.369C867.364 216.009 868.836 221.817 871.737 225.659C874.638 229.546 879.235 231.512 885.572 231.512C889.366 231.512 892.802 231.109 895.748 230.305C898.738 229.501 901.46 228.608 903.87 227.58L906.325 235.309C903.781 236.649 900.612 237.766 896.774 238.66C892.981 239.553 889.098 240 885.081 240H885.126Z" fill="#6D6E71"/>
<path d="M931.451 240C927.523 240 924.265 239.464 921.677 238.436C919.088 237.409 917.035 235.89 915.473 233.879C913.956 231.869 912.84 229.456 912.215 226.597C911.591 223.738 911.278 220.477 911.278 216.902C911.278 209.129 913.019 203.41 916.545 199.658C920.07 195.949 925.738 194.073 933.548 194.073C937.386 194.073 940.6 194.609 943.188 195.681C945.821 196.754 947.874 198.273 949.481 200.328C951.043 202.338 952.158 204.751 952.828 207.655C953.497 210.514 953.81 213.73 953.81 217.349C953.81 225.123 951.98 230.886 948.41 234.55C944.795 238.258 939.171 240.089 931.451 240.089V240ZM931.451 233.031C933.816 233.031 935.824 232.718 937.431 232.003C938.993 231.288 940.287 230.261 941.269 228.876C942.206 227.491 942.876 225.748 943.277 223.693C943.634 221.638 943.813 219.226 943.813 216.5C943.813 214.401 943.679 212.435 943.367 210.514C943.099 208.593 942.563 206.94 941.76 205.51C940.957 204.08 939.93 202.964 938.636 202.115C937.342 201.266 935.646 200.864 933.548 200.864C931.183 200.864 929.219 201.221 927.657 201.936C926.095 202.651 924.845 203.723 923.864 205.153C922.926 206.538 922.212 208.325 921.855 210.424C921.498 212.524 921.275 214.892 921.275 217.662C921.275 219.806 921.409 221.817 921.677 223.649C921.945 225.525 922.436 227.133 923.194 228.518C923.953 229.903 924.979 231.02 926.318 231.824C927.657 232.628 929.353 233.031 931.451 233.031Z" fill="#6D6E71"/>
<path d="M968.939 195.101L969.296 198.585C970.099 198.005 970.947 197.513 971.84 197.022C972.732 196.575 973.714 196.128 974.741 195.815C978.088 194.654 981.257 194.073 984.113 194.073C986.969 194.073 989.379 194.43 991.253 195.145C993.128 195.86 994.556 196.888 995.627 198.273C996.698 199.658 997.412 201.355 997.814 203.321C998.216 205.331 998.439 207.61 998.439 210.156V238.972H988.71V212.256C988.71 210.782 988.62 209.397 988.442 208.101C988.263 206.85 987.906 205.733 987.415 204.795C986.88 203.857 986.121 203.142 985.184 202.606C984.202 202.115 982.908 201.847 981.257 201.847C979.382 201.847 977.686 202.115 976.169 202.606C974.607 203.098 973.313 203.723 972.152 204.527L970.412 205.689V239.017H960.683V206.806L959.879 195.145H968.894L968.939 195.101Z" fill="#6D6E71"/>
<path d="M1019.86 202.561V222.308C1019.86 223.827 1019.91 225.167 1020.04 226.418C1020.17 227.625 1020.49 228.697 1020.98 229.546C1021.47 230.439 1022.18 231.109 1023.12 231.601C1024.06 232.092 1025.35 232.36 1027.05 232.36C1028.56 232.36 1030.04 232.182 1031.46 231.824C1032.94 231.467 1034.23 231.02 1035.39 230.439L1037.13 237.141C1033.03 239.062 1028.61 240 1023.92 240C1021.07 240 1018.79 239.643 1017 238.883C1015.22 238.168 1013.84 237.141 1012.81 235.8C1011.78 234.46 1011.11 232.896 1010.71 231.02C1010.35 229.144 1010.13 227.089 1010.13 224.855V202.561H1002.68V196.039L1010.04 195.145V186.344L1019.86 184.602V195.056H1035.61V202.517H1019.86V202.561Z" fill="#6D6E71"/>
<path d="M1049.76 195.101L1050.39 200.417C1051.86 198.585 1053.42 197.245 1055.16 196.486C1058.06 194.877 1061.01 194.028 1064.04 194.028C1065.43 194.028 1066.72 194.162 1067.88 194.43C1069.04 194.698 1070.02 194.967 1070.74 195.279L1068.28 203.366C1066.81 202.561 1065.02 202.159 1062.88 202.159C1060.34 202.159 1058.02 202.874 1055.88 204.349C1055.12 204.795 1054.4 205.287 1053.73 205.867C1053.06 206.404 1052.35 207.029 1051.68 207.744V239.017H1041.95V207.431L1040.75 195.145H1049.76V195.101Z" fill="#6D6E71"/>
<path d="M1092.03 240C1088.05 240 1084.84 239.464 1082.25 238.436C1079.66 237.409 1077.61 235.89 1076.09 233.879C1074.53 231.869 1073.46 229.456 1072.84 226.597C1072.21 223.738 1071.9 220.477 1071.9 216.902C1071.9 209.129 1073.64 203.41 1077.16 199.658C1080.69 195.949 1086.31 194.073 1094.17 194.073C1098.01 194.073 1101.22 194.609 1103.81 195.681C1106.44 196.754 1108.49 198.273 1110.06 200.328C1111.62 202.338 1112.73 204.751 1113.4 207.655C1114.07 210.514 1114.43 213.73 1114.43 217.349C1114.43 225.123 1112.64 230.886 1109.03 234.55C1105.41 238.258 1099.79 240.089 1092.11 240.089L1092.03 240ZM1092.03 233.031C1094.39 233.031 1096.35 232.718 1097.96 232.003C1099.52 231.288 1100.82 230.261 1101.75 228.876C1102.69 227.491 1103.36 225.748 1103.76 223.693C1104.12 221.638 1104.34 219.226 1104.34 216.5C1104.34 214.401 1104.16 212.435 1103.9 210.514C1103.58 208.593 1103.09 206.94 1102.29 205.51C1101.49 204.08 1100.46 202.964 1099.17 202.115C1097.83 201.266 1096.18 200.864 1094.08 200.864C1091.71 200.864 1089.75 201.221 1088.19 201.936C1086.63 202.651 1085.38 203.723 1084.39 205.153C1083.46 206.538 1082.79 208.325 1082.39 210.424C1082.03 212.524 1081.81 214.892 1081.81 217.662C1081.81 219.806 1081.94 221.817 1082.21 223.649C1082.47 225.525 1082.97 227.133 1083.72 228.518C1084.44 229.903 1085.51 231.02 1086.85 231.824C1088.19 232.628 1089.88 233.031 1091.98 233.031H1092.03Z" fill="#6D6E71"/>
<path d="M1135.63 239.196C1135.63 239.196 1135.18 239.285 1134.69 239.285C1134.6 239.419 1134.42 239.464 1134.24 239.464H1132.82C1130.63 239.464 1128.76 239.151 1127.24 238.57C1125.76 237.99 1124.52 237.141 1123.62 236.024C1122.73 234.952 1122.06 233.567 1121.7 231.958C1121.35 230.35 1121.17 228.474 1121.17 226.374V173.79L1130.9 172.584V226.195C1130.9 227.535 1130.99 228.608 1131.17 229.367C1131.34 230.171 1131.61 230.752 1131.97 231.154C1132.33 231.556 1132.82 231.824 1133.44 231.958C1134.07 232.092 1134.82 232.182 1135.67 232.182V239.151L1135.63 239.196Z" fill="#6D6E71"/>
<path d="M1153.17 152.211H280.047V154.892H1153.17V152.211Z" fill="#6D6E71"/>
</g>
<defs>
<clipPath id="clip0_2_604">
<rect width="1231" height="240" fill="white"/>
</clipPath>
</defs>
</svg>
