<svg width="1221" height="1224" viewBox="0 0 1221 1224" fill="none" xmlns="http://www.w3.org/2000/svg">
<path d="M469.129 568.97C457.612 557.454 441.993 550.984 425.706 550.984C409.419 550.984 393.8 557.454 382.283 568.97C370.767 580.486 364.297 596.106 364.297 612.393C364.297 628.68 370.767 644.299 382.283 655.816L565.76 839.293C571.475 844.961 578.252 849.445 585.704 852.489C593.155 855.532 601.134 857.075 609.183 857.029C617.556 856.763 625.784 854.78 633.359 851.203C640.934 847.626 647.693 842.532 653.217 836.235L1081.33 346.963C1091.22 334.69 1095.98 319.075 1094.63 303.374C1093.29 287.673 1085.93 273.097 1074.1 262.687C1062.27 252.276 1046.88 246.834 1031.14 247.494C1015.39 248.155 1000.51 254.868 989.592 266.233L609.183 706.578L469.129 568.97Z" fill="#262626"/>
<path d="M1159.53 551.205C1143.31 551.205 1127.75 557.648 1116.28 569.118C1104.82 580.588 1098.37 596.144 1098.37 612.364C1098.37 742.127 1046.82 866.575 955.067 958.331C863.311 1050.09 738.863 1101.64 609.1 1101.64C512.474 1101.59 418.025 1072.94 337.662 1019.29C257.299 965.637 194.621 889.393 157.532 800.169C120.442 710.945 110.602 612.737 129.252 517.928C147.903 423.119 194.208 335.955 262.329 267.427C307.629 221.521 361.631 185.11 421.174 160.327C480.717 135.543 544.606 122.885 609.1 123.092C648.208 123.337 687.173 127.849 725.302 136.547C733.281 139.015 741.681 139.823 749.985 138.92C758.288 138.017 766.318 135.424 773.581 131.299C780.843 127.173 787.184 121.604 792.211 114.935C797.239 108.266 800.847 100.637 802.814 92.5198C804.781 84.4024 805.064 75.9683 803.646 67.7373C802.228 59.5064 799.139 51.6531 794.57 44.6616C790.001 37.67 784.048 31.6885 777.079 27.0857C770.109 22.4829 762.271 19.3564 754.047 17.8989C706.535 6.72168 657.908 0.976693 609.1 0.774414C488.271 1.40212 370.335 37.8074 270.175 105.396C170.016 172.985 92.1217 268.728 46.3227 380.543C0.523747 492.358 -11.1276 615.234 12.8392 733.664C36.8059 852.094 95.3166 960.771 180.987 1045.98C294.541 1159.59 448.475 1223.58 609.1 1223.95C771.304 1223.95 926.864 1159.52 1041.56 1044.82C1156.25 930.128 1220.69 774.567 1220.69 612.364C1220.69 596.144 1214.25 580.588 1202.78 569.118C1191.31 557.648 1175.75 551.205 1159.53 551.205Z" fill="#262626"/>
</svg>
