<svg width="134" height="134" viewBox="0 0 134 134" fill="none" xmlns="http://www.w3.org/2000/svg">
<path d="M7 7L127.628 127.628" stroke="#262626" stroke-width="12.0628" stroke-linecap="round" stroke-linejoin="round"/>
<path d="M35.4246 35.4834C17.041 47.9845 7 67.3135 7 67.3135C7 67.3135 28.9323 109.533 67.314 109.533C79.6801 109.533 90.3382 105.151 99.1061 99.21M61.2826 25.4449C63.2452 25.2152 65.2561 25.0938 67.314 25.0938C105.695 25.0938 127.628 67.3135 127.628 67.3135C127.628 67.3135 123.455 75.3455 115.565 84.4035" stroke="#262626" stroke-width="12.0628" stroke-linecap="round" stroke-linejoin="round"/>
<path d="M79.3767 80.791C76.1752 83.656 71.9484 85.3984 67.3139 85.3984C57.3205 85.3984 49.2197 77.2977 49.2197 67.3042C49.2197 62.3362 51.2217 57.8361 54.4629 54.5664" stroke="#262626" stroke-width="12.0628" stroke-linecap="round" stroke-linejoin="round"/>
</svg>
